ISO-10303-21;
HEADER;

/* File generated by Shapr3D Version 5.1015.0.10234 */

FILE_DESCRIPTION(('HOOPS Exchange Step'),'2;1');

FILE_NAME('/Users/ken/Library/Containers/com.shapr3d.shapr/Data/tmp/export/temp_export',
'2026-08-25T22:36:36+08:00',
('ken'),
('Shapr3D Limited'),
'HOOPS Exchange 2025.7',
'Shapr3D',
'Authorized');

FILE_SCHEMA( ('AP242_MANAGED_MODEL_BASED_3D_ENGINEERING_MIM_LF {1 0 10303 442 1 1 4}') );

ENDSEC;

DATA;
#3=(NAMED_UNIT(*)PLANE_ANGLE_UNIT()SI_UNIT($,.RADIAN.));
#4=PLANE_ANGLE_MEASURE_WITH_UNIT(PLANE_ANGLE_MEASURE(0.0174532925),#3);
#5=(CONVERSION_BASED_UNIT('DEGREE',#4)NAMED_UNIT(#6)PLANE_ANGLE_UNIT());
#6=DIMENSIONAL_EXPONENTS(0.,0.,0.,0.,0.,0.,0.);
#7=(NAMED_UNIT(*)SI_UNIT($,.STERADIAN.)SOLID_ANGLE_UNIT());
#8=(LENGTH_UNIT()NAMED_UNIT(*)SI_UNIT(.MILLI.,.METRE.));
#9=UNCERTAINTY_MEASURE_WITH_UNIT(LENGTH_MEASURE(1.000000E-03),#8,'DISTANCE_ACCURACY_VALUE','Maximum Tolerance applied to model');
#10=(GEOMETRIC_REPRESENTATION_CONTEXT(3)GLOBAL_UNCERTAINTY_ASSIGNED_CONTEXT((#9))GLOBAL_UNIT_ASSIGNED_CONTEXT((#8,#5,#7))REPRESENTATION_CONTEXT('','root'));
#12=CARTESIAN_POINT('',(0.,0.,0.));
#13=DIRECTION('',(0.,0.,1.));
#14=DIRECTION('',(1.,0.,0.));
#15=AXIS2_PLACEMENT_3D('',#12,#13,#14);
#26=(NAMED_UNIT(*)PLANE_ANGLE_UNIT()SI_UNIT($,.RADIAN.));
#27=PLANE_ANGLE_MEASURE_WITH_UNIT(PLANE_ANGLE_MEASURE(0.0174532925),#26);
#28=(CONVERSION_BASED_UNIT('DEGREE',#27)NAMED_UNIT(#29)PLANE_ANGLE_UNIT());
#29=DIMENSIONAL_EXPONENTS(0.,0.,0.,0.,0.,0.,0.);
#30=(NAMED_UNIT(*)SI_UNIT($,.STERADIAN.)SOLID_ANGLE_UNIT());
#31=(LENGTH_UNIT()NAMED_UNIT(*)SI_UNIT(.MILLI.,.METRE.));
#32=UNCERTAINTY_MEASURE_WITH_UNIT(LENGTH_MEASURE(1.000000E-03),#31,'DISTANCE_ACCURACY_VALUE','Maximum Tolerance applied to model');
#33=(GEOMETRIC_REPRESENTATION_CONTEXT(3)GLOBAL_UNCERTAINTY_ASSIGNED_CONTEXT((#32))GLOBAL_UNIT_ASSIGNED_CONTEXT((#31,#28,#30))REPRESENTATION_CONTEXT('','1 \X2\4E2AFF0853556B2179FB52A8\X0\20mm\X2\FF09\X0\.step'));
#45=CARTESIAN_POINT('',(0.,0.,0.));
#46=DIRECTION('',(0.,0.,1.));
#47=DIRECTION('',(1.,0.,-0.));
#48=AXIS2_PLACEMENT_3D('',#45,#46,#47);
#49=ITEM_DEFINED_TRANSFORMATION('','',#48,#15);
#50=(REPRESENTATION_RELATIONSHIP('','',#35,#16)REPRESENTATION_RELATIONSHIP_WITH_TRANSFORMATION(#49)SHAPE_REPRESENTATION_RELATIONSHIP());
#51=NEXT_ASSEMBLY_USAGE_OCCURRENCE('1 \X2\4E2AFF0853556B2179FB52A8\X0\20mm\X2\FF09\X0\.step_1','1 \X2\4E2AFF0853556B2179FB52A8\X0\20mm\X2\FF09\X0\.step','1 \X2\4E2AFF0853556B2179FB52A8\X0\20mm\X2\FF09\X0\.step',#25,#44,$);
#52=PRODUCT_DEFINITION_SHAPE('','',#51);
#53=CONTEXT_DEPENDENT_SHAPE_REPRESENTATION(#50,#52);
#54=(NAMED_UNIT(*)PLANE_ANGLE_UNIT()SI_UNIT($,.RADIAN.));
#55=PLANE_ANGLE_MEASURE_WITH_UNIT(PLANE_ANGLE_MEASURE(0.0174532925),#54);
#56=(CONVERSION_BASED_UNIT('DEGREE',#55)NAMED_UNIT(#57)PLANE_ANGLE_UNIT());
#57=DIMENSIONAL_EXPONENTS(0.,0.,0.,0.,0.,0.,0.);
#58=(NAMED_UNIT(*)SI_UNIT($,.STERADIAN.)SOLID_ANGLE_UNIT());
#59=(LENGTH_UNIT()NAMED_UNIT(*)SI_UNIT(.MILLI.,.METRE.));
#60=UNCERTAINTY_MEASURE_WITH_UNIT(LENGTH_MEASURE(1.000000E-03),#59,'DISTANCE_ACCURACY_VALUE','Maximum Tolerance applied to model');
#61=(GEOMETRIC_REPRESENTATION_CONTEXT(3)GLOBAL_UNCERTAINTY_ASSIGNED_CONTEXT((#60))GLOBAL_UNIT_ASSIGNED_CONTEXT((#59,#56,#58))REPRESENTATION_CONTEXT('','1 \X2\4E2AFF0853556B2179FB52A8\X0\20mm\X2\FF09\X0\.step'));
#73=CARTESIAN_POINT('',(0.,0.,0.));
#74=DIRECTION('',(0.,0.,1.));
#75=DIRECTION('',(1.,0.,-0.));
#76=AXIS2_PLACEMENT_3D('',#73,#74,#75);
#77=ITEM_DEFINED_TRANSFORMATION('','',#76,#15);
#78=(REPRESENTATION_RELATIONSHIP('','',#63,#35)REPRESENTATION_RELATIONSHIP_WITH_TRANSFORMATION(#77)SHAPE_REPRESENTATION_RELATIONSHIP());
#79=NEXT_ASSEMBLY_USAGE_OCCURRENCE('1 \X2\4E2AFF0853556B2179FB52A8\X0\20mm\X2\FF09\X0\.step_2','1 \X2\4E2AFF0853556B2179FB52A8\X0\20mm\X2\FF09\X0\.step','1 \X2\4E2AFF0853556B2179FB52A8\X0\20mm\X2\FF09\X0\.step',#44,#72,$);
#80=PRODUCT_DEFINITION_SHAPE('','',#79);
#81=CONTEXT_DEPENDENT_SHAPE_REPRESENTATION(#78,#80);
#82=(NAMED_UNIT(*)PLANE_ANGLE_UNIT()SI_UNIT($,.RADIAN.));
#83=PLANE_ANGLE_MEASURE_WITH_UNIT(PLANE_ANGLE_MEASURE(0.0174532925),#82);
#84=(CONVERSION_BASED_UNIT('DEGREE',#83)NAMED_UNIT(#85)PLANE_ANGLE_UNIT());
#85=DIMENSIONAL_EXPONENTS(0.,0.,0.,0.,0.,0.,0.);
#86=(NAMED_UNIT(*)SI_UNIT($,.STERADIAN.)SOLID_ANGLE_UNIT());
#87=(LENGTH_UNIT()NAMED_UNIT(*)SI_UNIT(.MILLI.,.METRE.));
#88=UNCERTAINTY_MEASURE_WITH_UNIT(LENGTH_MEASURE(1.000000E-03),#87,'DISTANCE_ACCURACY_VALUE','Maximum Tolerance applied to model');
#89=(GEOMETRIC_REPRESENTATION_CONTEXT(3)GLOBAL_UNCERTAINTY_ASSIGNED_CONTEXT((#88))GLOBAL_UNIT_ASSIGNED_CONTEXT((#87,#84,#86))REPRESENTATION_CONTEXT('','\X2\5DF25BFC5165\X0\'));
#101=CARTESIAN_POINT('',(0.,0.,0.));
#102=DIRECTION('',(0.,0.,1.));
#103=DIRECTION('',(1.,0.,-0.));
#104=AXIS2_PLACEMENT_3D('',#101,#102,#103);
#105=ITEM_DEFINED_TRANSFORMATION('','',#104,#15);
#106=(REPRESENTATION_RELATIONSHIP('','',#91,#63)REPRESENTATION_RELATIONSHIP_WITH_TRANSFORMATION(#105)SHAPE_REPRESENTATION_RELATIONSHIP());
#107=NEXT_ASSEMBLY_USAGE_OCCURRENCE('\X2\5DF25BFC5165\X0\_3','\X2\5DF25BFC5165\X0\','\X2\5DF25BFC5165\X0\',#72,#100,$);
#108=PRODUCT_DEFINITION_SHAPE('','',#107);
#109=CONTEXT_DEPENDENT_SHAPE_REPRESENTATION(#106,#108);
#91=SHAPE_REPRESENTATION('\X2\5DF25BFC5165\X0\',(#15),#89);
#110=CARTESIAN_POINT('',(0.,0.,0.));
#111=DIRECTION('',(0.,0.,1.));
#112=DIRECTION('',(1.,0.,0.));
#113=AXIS2_PLACEMENT_3D('',#110,#111,#112);
#115=MAPPED_ITEM('',#114,#113);
#114=REPRESENTATION_MAP(#113,#91);
#116=APPLICATION_CONTEXT('Managed model based 3d engineering');
#117=APPLICATION_PROTOCOL_DEFINITION('international standard','ap242_managed_model_based_3d_engineering',2014,#116);
#118=PRODUCT_CONTEXT('',#116,'mechanical');
#119=PRODUCT_DEFINITION_CONTEXT('part definition',#116,'design');
#99=PRODUCT('\X2\5DF25BFC5165\X0\','\X2\5DF25BFC5165\X0\','',(#118));
#120=PRODUCT_RELATED_PRODUCT_CATEGORY('part','',(#99));
#121=PRODUCT_DEFINITION_FORMATION_WITH_SPECIFIED_SOURCE('','',#99,.NOT_KNOWN.);
#100=PRODUCT_DEFINITION('design','',#121,#119);
#98=PRODUCT_DEFINITION_SHAPE('','',#100);
#122=SHAPE_DEFINITION_REPRESENTATION(#98,#91);
#90=DRAUGHTING_MODEL('',(#115),#89);
#123=(NAMED_UNIT(*)PLANE_ANGLE_UNIT()SI_UNIT($,.RADIAN.));
#124=PLANE_ANGLE_MEASURE_WITH_UNIT(PLANE_ANGLE_MEASURE(0.0174532925),#123);
#125=(CONVERSION_BASED_UNIT('DEGREE',#124)NAMED_UNIT(#126)PLANE_ANGLE_UNIT());
#126=DIMENSIONAL_EXPONENTS(0.,0.,0.,0.,0.,0.,0.);
#127=(NAMED_UNIT(*)SI_UNIT($,.STERADIAN.)SOLID_ANGLE_UNIT());
#128=(LENGTH_UNIT()NAMED_UNIT(*)SI_UNIT(.MILLI.,.METRE.));
#129=UNCERTAINTY_MEASURE_WITH_UNIT(LENGTH_MEASURE(1.000000E-05),#128,'DISTANCE_ACCURACY_VALUE','Maximum Tolerance applied to model');
#130=(GEOMETRIC_REPRESENTATION_CONTEXT(3)GLOBAL_UNCERTAINTY_ASSIGNED_CONTEXT((#129))GLOBAL_UNIT_ASSIGNED_CONTEXT((#128,#125,#127))REPRESENTATION_CONTEXT('','All-Purpose+Wall+Mount+Hook+Module.STEP'));
#142=CARTESIAN_POINT('',(0.,0.,0.));
#143=DIRECTION('',(0.,0.,1.));
#144=DIRECTION('',(1.,0.,-0.));
#145=AXIS2_PLACEMENT_3D('',#142,#143,#144);
#146=ITEM_DEFINED_TRANSFORMATION('','',#145,#15);
#147=(REPRESENTATION_RELATIONSHIP('','',#132,#63)REPRESENTATION_RELATIONSHIP_WITH_TRANSFORMATION(#146)SHAPE_REPRESENTATION_RELATIONSHIP());
#148=NEXT_ASSEMBLY_USAGE_OCCURRENCE('All-Purpose+Wall+Mount+Hook+Module.STEP_4','All-Purpose+Wall+Mount+Hook+Module.STEP','All-Purpose+Wall+Mount+Hook+Module.STEP',#72,#141,$);
#149=PRODUCT_DEFINITION_SHAPE('','',#148);
#150=CONTEXT_DEPENDENT_SHAPE_REPRESENTATION(#147,#149);
#152=CARTESIAN_POINT('',(148.,133.,79.19));
#153=DIRECTION('',(0.,0.,-1.));
#154=DIRECTION('',(-1.,0.,0.));
#155=AXIS2_PLACEMENT_3D('',#152,#153,#154);
#156=PLANE('',#155);
#157=CARTESIAN_POINT('',(146.99517251,144.1,79.19));
#158=VERTEX_POINT('',#157);
#159=CARTESIAN_POINT('',(146.324328891,143.300519707,79.19));
#160=VERTEX_POINT('',#159);
#161=CARTESIAN_POINT('',(146.99517251,144.1,79.19));
#162=DIRECTION('',(-0.64278761,-0.766044443,0.));
#163=VECTOR('',#162,1.043647403);
#164=LINE('',#161,#163);
#165=EDGE_CURVE('NONE',#158,#160,#164,.T.);
#166=ORIENTED_EDGE('',*,*,#165,.T.);
#167=CARTESIAN_POINT('',(145.95,142.272059531,79.19));
#168=VERTEX_POINT('',#167);
#169=CARTESIAN_POINT('',(147.55,142.272059531,79.19));
#170=DIRECTION('',(-0.,-0.,1.));
#171=DIRECTION('',(-1.,0.,0.));
#172=AXIS2_PLACEMENT_3D('',#169,#170,#171);
#173=CIRCLE('',#172,1.6);
#174=EDGE_CURVE('NONE',#160,#168,#173,.T.);
#175=ORIENTED_EDGE('',*,*,#174,.T.);
#176=CARTESIAN_POINT('',(145.95,133.828427125,79.19));
#177=VERTEX_POINT('',#176);
#178=CARTESIAN_POINT('',(145.95,142.272059531,79.19));
#179=DIRECTION('',(-0.,-1.,-0.));
#180=VECTOR('',#179,8.443632406);
#181=LINE('',#178,#180);
#182=EDGE_CURVE('NONE',#168,#177,#181,.T.);
#183=ORIENTED_EDGE('',*,*,#182,.T.);
#184=CARTESIAN_POINT('',(146.41862915,132.697056275,79.19));
#185=VERTEX_POINT('',#184);
#186=CARTESIAN_POINT('',(147.55,133.828427125,79.19));
#187=DIRECTION('',(-0.,-0.,1.));
#188=DIRECTION('',(-1.,0.,0.));
#189=AXIS2_PLACEMENT_3D('',#186,#187,#188);
#190=CIRCLE('',#189,1.6);
#191=EDGE_CURVE('NONE',#177,#185,#190,.T.);
#192=ORIENTED_EDGE('',*,*,#191,.T.);
#193=CARTESIAN_POINT('',(146.697056275,132.41862915,79.19));
#194=VERTEX_POINT('',#193);
#195=CARTESIAN_POINT('',(146.41862915,132.697056275,79.19));
#196=DIRECTION('',(0.707106781,-0.707106781,0.));
#197=VECTOR('',#196,0.393755416);
#198=LINE('',#195,#197);
#199=EDGE_CURVE('NONE',#185,#194,#198,.T.);
#200=ORIENTED_EDGE('',*,*,#199,.T.);
#201=CARTESIAN_POINT('',(147.828427125,131.95,79.19));
#202=VERTEX_POINT('',#201);
#203=CARTESIAN_POINT('',(147.828427125,133.55,79.19));
#204=DIRECTION('',(-0.,-0.,1.));
#205=DIRECTION('',(-1.,0.,0.));
#206=AXIS2_PLACEMENT_3D('',#203,#204,#205);
#207=CIRCLE('',#206,1.6);
#208=EDGE_CURVE('NONE',#194,#202,#207,.T.);
#209=ORIENTED_EDGE('',*,*,#208,.T.);
#210=CARTESIAN_POINT('',(148.171572875,131.95,79.19));
#211=VERTEX_POINT('',#210);
#212=CARTESIAN_POINT('',(147.828427125,131.95,79.19));
#213=DIRECTION('',(1.,-0.,-0.));
#214=VECTOR('',#213,0.34314575);
#215=LINE('',#212,#214);
#216=EDGE_CURVE('NONE',#202,#211,#215,.T.);
#217=ORIENTED_EDGE('',*,*,#216,.T.);
#218=CARTESIAN_POINT('',(149.302943725,132.41862915,79.19));
#219=VERTEX_POINT('',#218);
#220=CARTESIAN_POINT('',(148.171572875,133.55,79.19));
#221=DIRECTION('',(-0.,-0.,1.));
#222=DIRECTION('',(-1.,0.,0.));
#223=AXIS2_PLACEMENT_3D('',#220,#221,#222);
#224=CIRCLE('',#223,1.6);
#225=EDGE_CURVE('NONE',#211,#219,#224,.T.);
#226=ORIENTED_EDGE('',*,*,#225,.T.);
#227=CARTESIAN_POINT('',(149.58137085,132.697056275,79.19));
#228=VERTEX_POINT('',#227);
#229=CARTESIAN_POINT('',(149.302943725,132.41862915,79.19));
#230=DIRECTION('',(0.707106781,0.707106781,0.));
#231=VECTOR('',#230,0.393755416);
#232=LINE('',#229,#231);
#233=EDGE_CURVE('NONE',#219,#228,#232,.T.);
#234=ORIENTED_EDGE('',*,*,#233,.T.);
#235=CARTESIAN_POINT('',(150.05,133.828427125,79.19));
#236=VERTEX_POINT('',#235);
#237=CARTESIAN_POINT('',(148.45,133.828427125,79.19));
#238=DIRECTION('',(-0.,-0.,1.));
#239=DIRECTION('',(-1.,0.,0.));
#240=AXIS2_PLACEMENT_3D('',#237,#238,#239);
#241=CIRCLE('',#240,1.6);
#242=EDGE_CURVE('NONE',#228,#236,#241,.T.);
#243=ORIENTED_EDGE('',*,*,#242,.T.);
#244=CARTESIAN_POINT('',(150.05,142.272059531,79.19));
#245=VERTEX_POINT('',#244);
#246=CARTESIAN_POINT('',(150.05,133.828427125,79.19));
#247=DIRECTION('',(0.,1.,0.));
#248=VECTOR('',#247,8.443632406);
#249=LINE('',#246,#248);
#250=EDGE_CURVE('NONE',#236,#245,#249,.T.);
#251=ORIENTED_EDGE('',*,*,#250,.T.);
#252=CARTESIAN_POINT('',(149.675671109,143.300519707,79.19));
#253=VERTEX_POINT('',#252);
#254=CARTESIAN_POINT('',(148.45,142.272059531,79.19));
#255=DIRECTION('',(-0.,-0.,1.));
#256=DIRECTION('',(-1.,0.,0.));
#257=AXIS2_PLACEMENT_3D('',#254,#255,#256);
#258=CIRCLE('',#257,1.6);
#259=EDGE_CURVE('NONE',#245,#253,#258,.T.);
#260=ORIENTED_EDGE('',*,*,#259,.T.);
#261=CARTESIAN_POINT('',(149.00482749,144.1,79.19));
#262=VERTEX_POINT('',#261);
#263=CARTESIAN_POINT('',(149.675671109,143.300519707,79.19));
#264=DIRECTION('',(-0.64278761,0.766044443,0.));
#265=VECTOR('',#264,1.043647402);
#266=LINE('',#263,#265);
#267=EDGE_CURVE('NONE',#253,#262,#266,.T.);
#268=ORIENTED_EDGE('',*,*,#267,.T.);
#269=CARTESIAN_POINT('',(149.00482749,144.1,79.19));
#270=DIRECTION('',(-1.,0.,0.));
#271=VECTOR('',#270,2.00965498);
#272=LINE('',#269,#271);
#273=EDGE_CURVE('NONE',#262,#158,#272,.T.);
#274=ORIENTED_EDGE('',*,*,#273,.T.);
#275=EDGE_LOOP('',(#166,#175,#183,#192,#200,#209,#217,#226,#234,#243,#251,#260,#268,#274));
#276=FACE_BOUND('',#275,.T.);
#277=ADVANCED_FACE('NONE',(#276),#156,.F.);
#278=CARTESIAN_POINT('',(157.8,130.55,74.24));
#279=DIRECTION('',(0.,0.,1.));
#280=DIRECTION('',(1.,0.,0.));
#281=AXIS2_PLACEMENT_3D('',#278,#279,#280);
#282=PLANE('',#281);
#283=CARTESIAN_POINT('',(146.277207794,132.555634919,74.24));
#284=VERTEX_POINT('',#283);
#285=CARTESIAN_POINT('',(145.75,133.828427125,74.24));
#286=VERTEX_POINT('',#285);
#287=CARTESIAN_POINT('',(147.55,133.828427125,74.24));
#288=DIRECTION('',(-0.,-0.,-1.));
#289=DIRECTION('',(1.,0.,-0.));
#290=AXIS2_PLACEMENT_3D('',#287,#288,#289);
#291=CIRCLE('',#290,1.8);
#292=EDGE_CURVE('NONE',#284,#286,#291,.T.);
#293=ORIENTED_EDGE('',*,*,#292,.T.);
#294=CARTESIAN_POINT('',(145.75,134.,74.24));
#295=VERTEX_POINT('',#294);
#296=CARTESIAN_POINT('',(145.75,133.828427125,74.24));
#297=DIRECTION('',(0.,1.,0.));
#298=VECTOR('',#297,0.171572875);
#299=LINE('',#296,#298);
#300=EDGE_CURVE('NONE',#286,#295,#299,.T.);
#301=ORIENTED_EDGE('',*,*,#300,.T.);
#302=CARTESIAN_POINT('',(150.25,134.,74.24));
#303=VERTEX_POINT('',#302);
#304=CARTESIAN_POINT('',(150.25,134.,74.24));
#305=DIRECTION('',(-1.,0.,0.));
#306=VECTOR('',#305,4.5);
#307=LINE('',#304,#306);
#308=EDGE_CURVE('NONE',#303,#295,#307,.T.);
#309=ORIENTED_EDGE('',*,*,#308,.F.);
#310=CARTESIAN_POINT('',(150.25,133.828427125,74.24));
#311=VERTEX_POINT('',#310);
#312=CARTESIAN_POINT('',(150.25,134.,74.24));
#313=DIRECTION('',(-0.,-1.,-0.));
#314=VECTOR('',#313,0.171572875);
#315=LINE('',#312,#314);
#316=EDGE_CURVE('NONE',#303,#311,#315,.T.);
#317=ORIENTED_EDGE('',*,*,#316,.T.);
#318=CARTESIAN_POINT('',(149.722792206,132.555634919,74.24));
#319=VERTEX_POINT('',#318);
#320=CARTESIAN_POINT('',(148.45,133.828427125,74.24));
#321=DIRECTION('',(-0.,-0.,-1.));
#322=DIRECTION('',(1.,0.,-0.));
#323=AXIS2_PLACEMENT_3D('',#320,#321,#322);
#324=CIRCLE('',#323,1.8);
#325=EDGE_CURVE('NONE',#311,#319,#324,.T.);
#326=ORIENTED_EDGE('',*,*,#325,.T.);
#327=CARTESIAN_POINT('',(149.444365081,132.277207794,74.24));
#328=VERTEX_POINT('',#327);
#329=CARTESIAN_POINT('',(149.722792206,132.555634919,74.24));
#330=DIRECTION('',(-0.707106781,-0.707106781,0.));
#331=VECTOR('',#330,0.393755416);
#332=LINE('',#329,#331);
#333=EDGE_CURVE('NONE',#319,#328,#332,.T.);
#334=ORIENTED_EDGE('',*,*,#333,.T.);
#335=CARTESIAN_POINT('',(148.171572875,131.75,74.24));
#336=VERTEX_POINT('',#335);
#337=CARTESIAN_POINT('',(148.171572875,133.55,74.24));
#338=DIRECTION('',(-0.,-0.,-1.));
#339=DIRECTION('',(1.,0.,-0.));
#340=AXIS2_PLACEMENT_3D('',#337,#338,#339);
#341=CIRCLE('',#340,1.8);
#342=EDGE_CURVE('NONE',#328,#336,#341,.T.);
#343=ORIENTED_EDGE('',*,*,#342,.T.);
#344=CARTESIAN_POINT('',(147.828427125,131.75,74.24));
#345=VERTEX_POINT('',#344);
#346=CARTESIAN_POINT('',(148.171572875,131.75,74.24));
#347=DIRECTION('',(-1.,-0.,0.));
#348=VECTOR('',#347,0.34314575);
#349=LINE('',#346,#348);
#350=EDGE_CURVE('NONE',#336,#345,#349,.T.);
#351=ORIENTED_EDGE('',*,*,#350,.T.);
#352=CARTESIAN_POINT('',(146.555634919,132.277207794,74.24));
#353=VERTEX_POINT('',#352);
#354=CARTESIAN_POINT('',(147.828427125,133.55,74.24));
#355=DIRECTION('',(-0.,-0.,-1.));
#356=DIRECTION('',(1.,0.,-0.));
#357=AXIS2_PLACEMENT_3D('',#354,#355,#356);
#358=CIRCLE('',#357,1.8);
#359=EDGE_CURVE('NONE',#345,#353,#358,.T.);
#360=ORIENTED_EDGE('',*,*,#359,.T.);
#361=CARTESIAN_POINT('',(146.555634919,132.277207794,74.24));
#362=DIRECTION('',(-0.707106781,0.707106781,0.));
#363=VECTOR('',#362,0.393755416);
#364=LINE('',#361,#363);
#365=EDGE_CURVE('NONE',#353,#284,#364,.T.);
#366=ORIENTED_EDGE('',*,*,#365,.T.);
#367=EDGE_LOOP('',(#293,#301,#309,#317,#326,#334,#343,#351,#360,#366));
#368=FACE_BOUND('',#367,.T.);
#369=ADVANCED_FACE('NONE',(#368),#282,.F.);
#370=CARTESIAN_POINT('',(157.8,130.55,74.24));
#371=DIRECTION('',(0.,0.,1.));
#372=DIRECTION('',(1.,0.,0.));
#373=AXIS2_PLACEMENT_3D('',#370,#371,#372);
#374=PLANE('',#373);
#375=CARTESIAN_POINT('',(145.95,136.,74.24));
#376=VERTEX_POINT('',#375);
#377=CARTESIAN_POINT('',(150.05,136.,74.24));
#378=VERTEX_POINT('',#377);
#379=CARTESIAN_POINT('',(145.95,136.,74.24));
#380=DIRECTION('',(1.,-0.,-0.));
#381=VECTOR('',#380,4.1);
#382=LINE('',#379,#381);
#383=EDGE_CURVE('NONE',#376,#378,#382,.T.);
#384=ORIENTED_EDGE('',*,*,#383,.F.);
#385=CARTESIAN_POINT('',(145.95,138.661145618,74.24));
#386=VERTEX_POINT('',#385);
#387=CARTESIAN_POINT('',(145.95,136.,74.24));
#388=DIRECTION('',(0.,1.,0.));
#389=VECTOR('',#388,2.661145618);
#390=LINE('',#387,#389);
#391=EDGE_CURVE('NONE',#376,#386,#390,.T.);
#392=ORIENTED_EDGE('',*,*,#391,.T.);
#393=CARTESIAN_POINT('',(147.55,138.05,74.24));
#394=VERTEX_POINT('',#393);
#395=CARTESIAN_POINT('',(147.55,140.45,74.24));
#396=DIRECTION('',(0.,0.,1.));
#397=DIRECTION('',(1.,0.,-0.));
#398=AXIS2_PLACEMENT_3D('',#395,#396,#397);
#399=CIRCLE('',#398,2.4);
#400=EDGE_CURVE('NONE',#386,#394,#399,.T.);
#401=ORIENTED_EDGE('',*,*,#400,.T.);
#402=CARTESIAN_POINT('',(148.45,138.05,74.24));
#403=VERTEX_POINT('',#402);
#404=CARTESIAN_POINT('',(147.55,138.05,74.24));
#405=DIRECTION('',(1.,0.,-0.));
#406=VECTOR('',#405,0.9);
#407=LINE('',#404,#406);
#408=EDGE_CURVE('NONE',#394,#403,#407,.T.);
#409=ORIENTED_EDGE('',*,*,#408,.T.);
#410=CARTESIAN_POINT('',(150.05,138.661145618,74.24));
#411=VERTEX_POINT('',#410);
#412=CARTESIAN_POINT('',(148.45,140.45,74.24));
#413=DIRECTION('',(0.,0.,1.));
#414=DIRECTION('',(1.,0.,-0.));
#415=AXIS2_PLACEMENT_3D('',#412,#413,#414);
#416=CIRCLE('',#415,2.4);
#417=EDGE_CURVE('NONE',#403,#411,#416,.T.);
#418=ORIENTED_EDGE('',*,*,#417,.T.);
#419=CARTESIAN_POINT('',(150.05,138.661145618,74.24));
#420=DIRECTION('',(-0.,-1.,-0.));
#421=VECTOR('',#420,2.661145618);
#422=LINE('',#419,#421);
#423=EDGE_CURVE('NONE',#411,#378,#422,.T.);
#424=ORIENTED_EDGE('',*,*,#423,.T.);
#425=EDGE_LOOP('',(#384,#392,#401,#409,#418,#424));
#426=FACE_BOUND('',#425,.T.);
#427=ADVANCED_FACE('NONE',(#426),#374,.F.);
#428=CARTESIAN_POINT('',(150.45,133.,79.19));
#429=DIRECTION('',(1.,0.,0.));
#430=DIRECTION('',(0.,0.,-1.));
#431=AXIS2_PLACEMENT_3D('',#428,#429,#430);
#432=PLANE('',#431);
#433=CARTESIAN_POINT('',(150.45,133.828427125,78.79));
#434=VERTEX_POINT('',#433);
#435=CARTESIAN_POINT('',(150.45,133.828427125,74.44));
#436=VERTEX_POINT('',#435);
#437=CARTESIAN_POINT('',(150.45,133.828427125,78.79));
#438=DIRECTION('',(0.,0.,-1.));
#439=VECTOR('',#438,4.35);
#440=LINE('',#437,#439);
#441=EDGE_CURVE('NONE',#434,#436,#440,.T.);
#442=ORIENTED_EDGE('',*,*,#441,.T.);
#443=CARTESIAN_POINT('',(150.45,136.2,74.44));
#444=VERTEX_POINT('',#443);
#445=CARTESIAN_POINT('',(150.45,133.828427125,74.44));
#446=DIRECTION('',(0.,1.,0.));
#447=VECTOR('',#446,2.371572875);
#448=LINE('',#445,#447);
#449=EDGE_CURVE('NONE',#436,#444,#448,.T.);
#450=ORIENTED_EDGE('',*,*,#449,.T.);
#451=CARTESIAN_POINT('',(150.45,136.4,74.64));
#452=VERTEX_POINT('',#451);
#453=CARTESIAN_POINT('',(150.45,136.2,74.44));
#454=DIRECTION('',(0.,0.707106781,0.707106781));
#455=VECTOR('',#454,0.282842712);
#456=LINE('',#453,#455);
#457=EDGE_CURVE('NONE',#444,#452,#456,.T.);
#458=ORIENTED_EDGE('',*,*,#457,.T.);
#459=CARTESIAN_POINT('',(150.45,138.490408207,74.64));
#460=VERTEX_POINT('',#459);
#461=CARTESIAN_POINT('',(150.45,136.4,74.64));
#462=DIRECTION('',(0.,1.,0.));
#463=VECTOR('',#462,2.090408207);
#464=LINE('',#461,#463);
#465=EDGE_CURVE('NONE',#452,#460,#464,.T.);
#466=ORIENTED_EDGE('',*,*,#465,.T.);
#467=CARTESIAN_POINT('',(150.45,140.45,73.839999999));
#468=VERTEX_POINT('',#467);
#469=CARTESIAN_POINT('',(150.45,138.490408207,74.64));
#470=CARTESIAN_POINT('',(150.45,138.637282309,74.537209541));
#471=CARTESIAN_POINT('',(150.45,138.786295193,74.438680009));
#472=CARTESIAN_POINT('',(150.45,138.938656981,74.346822236));
#473=CARTESIAN_POINT('',(150.45,139.091018769,74.254964464));
#474=CARTESIAN_POINT('',(150.45,139.246693739,74.169707283));
#475=CARTESIAN_POINT('',(150.45,139.407794227,74.095258937));
#476=CARTESIAN_POINT('',(150.45,139.568894715,74.02081059));
#477=CARTESIAN_POINT('',(150.45,139.735365681,73.957061424));
#478=CARTESIAN_POINT('',(150.45,139.910906587,73.911381591));
#479=CARTESIAN_POINT('',(150.45,140.086447494,73.865701758));
#480=CARTESIAN_POINT('',(150.45,140.26740043,73.839999999));
#481=CARTESIAN_POINT('',(150.45,140.45,73.839999999));
#482=B_SPLINE_CURVE_WITH_KNOTS('',3,(#469,#470,#471,#472,#473,#474,#475,#476,#477,#478,#479,#480,#481),.UNSPECIFIED.,.F.,.F.,(4,3,3,3,4),(0.,0.000532135,0.001064269,0.001596404,0.002128539),.UNSPECIFIED.);
#483=EDGE_CURVE('NONE',#460,#468,#482,.T.);
#484=ORIENTED_EDGE('',*,*,#483,.T.);
#485=CARTESIAN_POINT('',(150.45,140.45,68.8));
#486=VERTEX_POINT('',#485);
#487=CARTESIAN_POINT('',(150.45,140.45,73.839999999));
#488=DIRECTION('',(0.,0.,-1.));
#489=VECTOR('',#488,5.039999999);
#490=LINE('',#487,#489);
#491=EDGE_CURVE('NONE',#468,#486,#490,.T.);
#492=ORIENTED_EDGE('',*,*,#491,.T.);
#493=CARTESIAN_POINT('',(150.45,142.272059531,68.8));
#494=VERTEX_POINT('',#493);
#495=CARTESIAN_POINT('',(150.45,142.272059531,68.8));
#496=DIRECTION('',(0.,-1.,0.));
#497=VECTOR('',#496,1.822059531);
#498=LINE('',#495,#497);
#499=EDGE_CURVE('NONE',#494,#486,#498,.T.);
#500=ORIENTED_EDGE('',*,*,#499,.F.);
#501=CARTESIAN_POINT('',(150.449999999,142.272059531,78.79));
#502=VERTEX_POINT('',#501);
#503=CARTESIAN_POINT('',(150.45,142.272059531,68.8));
#504=DIRECTION('',(-0.,-0.,1.));
#505=VECTOR('',#504,9.99);
#506=LINE('',#503,#505);
#507=EDGE_CURVE('NONE',#494,#502,#506,.T.);
#508=ORIENTED_EDGE('',*,*,#507,.T.);
#509=CARTESIAN_POINT('',(150.45,142.272059531,78.79));
#510=DIRECTION('',(-0.,-1.,-0.));
#511=VECTOR('',#510,8.443632406);
#512=LINE('',#509,#511);
#513=EDGE_CURVE('NONE',#502,#434,#512,.T.);
#514=ORIENTED_EDGE('',*,*,#513,.T.);
#515=EDGE_LOOP('',(#442,#450,#458,#466,#484,#492,#500,#508,#514));
#516=FACE_BOUND('',#515,.T.);
#517=ADVANCED_FACE('NONE',(#516),#432,.T.);
#518=CARTESIAN_POINT('',(145.55,133.,79.19));
#519=DIRECTION('',(-1.,0.,0.));
#520=DIRECTION('',(0.,0.,1.));
#521=AXIS2_PLACEMENT_3D('',#518,#519,#520);
#522=PLANE('',#521);
#523=CARTESIAN_POINT('',(145.55,136.4,74.64));
#524=VERTEX_POINT('',#523);
#525=CARTESIAN_POINT('',(145.55,136.2,74.44));
#526=VERTEX_POINT('',#525);
#527=CARTESIAN_POINT('',(145.55,136.4,74.64));
#528=DIRECTION('',(0.,-0.707106781,-0.707106781));
#529=VECTOR('',#528,0.282842712);
#530=LINE('',#527,#529);
#531=EDGE_CURVE('NONE',#524,#526,#530,.T.);
#532=ORIENTED_EDGE('',*,*,#531,.T.);
#533=CARTESIAN_POINT('',(145.55,133.828427125,74.44));
#534=VERTEX_POINT('',#533);
#535=CARTESIAN_POINT('',(145.55,136.2,74.44));
#536=DIRECTION('',(-0.,-1.,-0.));
#537=VECTOR('',#536,2.371572875);
#538=LINE('',#535,#537);
#539=EDGE_CURVE('NONE',#526,#534,#538,.T.);
#540=ORIENTED_EDGE('',*,*,#539,.T.);
#541=CARTESIAN_POINT('',(145.55,133.828427125,78.79));
#542=VERTEX_POINT('',#541);
#543=CARTESIAN_POINT('',(145.55,133.828427125,74.44));
#544=DIRECTION('',(0.,0.,1.));
#545=VECTOR('',#544,4.35);
#546=LINE('',#543,#545);
#547=EDGE_CURVE('NONE',#534,#542,#546,.T.);
#548=ORIENTED_EDGE('',*,*,#547,.T.);
#549=CARTESIAN_POINT('',(145.55,142.272059531,78.789999999));
#550=VERTEX_POINT('',#549);
#551=CARTESIAN_POINT('',(145.55,133.828427125,78.79));
#552=DIRECTION('',(0.,1.,0.));
#553=VECTOR('',#552,8.443632406);
#554=LINE('',#551,#553);
#555=EDGE_CURVE('NONE',#542,#550,#554,.T.);
#556=ORIENTED_EDGE('',*,*,#555,.T.);
#557=CARTESIAN_POINT('',(145.55,142.272059531,68.8));
#558=VERTEX_POINT('',#557);
#559=CARTESIAN_POINT('',(145.55,142.272059531,78.789999999));
#560=DIRECTION('',(-0.,-0.,-1.));
#561=VECTOR('',#560,9.989999999);
#562=LINE('',#559,#561);
#563=EDGE_CURVE('NONE',#550,#558,#562,.T.);
#564=ORIENTED_EDGE('',*,*,#563,.T.);
#565=CARTESIAN_POINT('',(145.55,140.45,68.8));
#566=VERTEX_POINT('',#565);
#567=CARTESIAN_POINT('',(145.55,140.45,68.8));
#568=DIRECTION('',(0.,1.,0.));
#569=VECTOR('',#568,1.822059531);
#570=LINE('',#567,#569);
#571=EDGE_CURVE('NONE',#566,#558,#570,.T.);
#572=ORIENTED_EDGE('',*,*,#571,.F.);
#573=CARTESIAN_POINT('',(145.55,140.45,73.839999999));
#574=VERTEX_POINT('',#573);
#575=CARTESIAN_POINT('',(145.55,140.45,68.8));
#576=DIRECTION('',(0.,0.,1.));
#577=VECTOR('',#576,5.039999999);
#578=LINE('',#575,#577);
#579=EDGE_CURVE('NONE',#566,#574,#578,.T.);
#580=ORIENTED_EDGE('',*,*,#579,.T.);
#581=CARTESIAN_POINT('',(145.55,138.490408208,74.64));
#582=VERTEX_POINT('',#581);
#583=CARTESIAN_POINT('',(145.55,140.45,73.839999999));
#584=CARTESIAN_POINT('',(145.55,140.268446573,73.839999999));
#585=CARTESIAN_POINT('',(145.55,140.091233454,73.864982766));
#586=CARTESIAN_POINT('',(145.55,139.917446939,73.909689044));
#587=CARTESIAN_POINT('',(145.55,139.743660425,73.954395322));
#588=CARTESIAN_POINT('',(145.55,139.573452487,74.01889748));
#589=CARTESIAN_POINT('',(145.55,139.411165398,74.093703026));
#590=CARTESIAN_POINT('',(145.55,139.248878308,74.168508571));
#591=CARTESIAN_POINT('',(145.55,139.09246763,74.254127541));
#592=CARTESIAN_POINT('',(145.55,138.93959492,74.346256872));
#593=CARTESIAN_POINT('',(145.55,138.78672221,74.438386203));
#594=CARTESIAN_POINT('',(145.55,138.637430796,74.537105622));
#595=CARTESIAN_POINT('',(145.55,138.490408207,74.64));
#596=B_SPLINE_CURVE_WITH_KNOTS('',3,(#583,#584,#585,#586,#587,#588,#589,#590,#591,#592,#593,#594,#595),.UNSPECIFIED.,.F.,.F.,(4,3,3,3,4),(0.,0.000536622,0.001073244,0.001609866,0.002146488),.UNSPECIFIED.);
#597=EDGE_CURVE('NONE',#574,#582,#596,.T.);
#598=ORIENTED_EDGE('',*,*,#597,.T.);
#599=CARTESIAN_POINT('',(145.55,138.490408208,74.64));
#600=DIRECTION('',(-0.,-1.,-0.));
#601=VECTOR('',#600,2.090408208);
#602=LINE('',#599,#601);
#603=EDGE_CURVE('NONE',#582,#524,#602,.T.);
#604=ORIENTED_EDGE('',*,*,#603,.T.);
#605=EDGE_LOOP('',(#532,#540,#548,#556,#564,#572,#580,#598,#604));
#606=FACE_BOUND('',#605,.T.);
#607=ADVANCED_FACE('NONE',(#606),#522,.T.);
#608=CARTESIAN_POINT('',(157.8,138.45,69.19));
#609=DIRECTION('',(0.,1.,0.));
#610=DIRECTION('',(0.,0.,-1.));
#611=AXIS2_PLACEMENT_3D('',#608,#609,#610);
#612=PLANE('',#611);
#613=CARTESIAN_POINT('',(148.45,138.45,68.8));
#614=VERTEX_POINT('',#613);
#615=CARTESIAN_POINT('',(148.45,138.449999999,73.84));
#616=VERTEX_POINT('',#615);
#617=CARTESIAN_POINT('',(148.45,138.45,68.8));
#618=DIRECTION('',(-0.,-0.,1.));
#619=VECTOR('',#618,5.04);
#620=LINE('',#617,#619);
#621=EDGE_CURVE('NONE',#614,#616,#620,.T.);
#622=ORIENTED_EDGE('',*,*,#621,.T.);
#623=CARTESIAN_POINT('',(147.55,138.45,73.84));
#624=VERTEX_POINT('',#623);
#625=CARTESIAN_POINT('',(148.45,138.45,73.84));
#626=DIRECTION('',(-1.,0.,0.));
#627=VECTOR('',#626,0.9);
#628=LINE('',#625,#627);
#629=EDGE_CURVE('NONE',#616,#624,#628,.T.);
#630=ORIENTED_EDGE('',*,*,#629,.T.);
#631=CARTESIAN_POINT('',(147.55,138.45,68.8));
#632=VERTEX_POINT('',#631);
#633=CARTESIAN_POINT('',(147.55,138.45,73.84));
#634=DIRECTION('',(0.,0.,-1.));
#635=VECTOR('',#634,5.04);
#636=LINE('',#633,#635);
#637=EDGE_CURVE('NONE',#624,#632,#636,.T.);
#638=ORIENTED_EDGE('',*,*,#637,.T.);
#639=CARTESIAN_POINT('',(148.45,138.45,68.8));
#640=DIRECTION('',(-1.,0.,0.));
#641=VECTOR('',#640,0.9);
#642=LINE('',#639,#641);
#643=EDGE_CURVE('NONE',#614,#632,#642,.T.);
#644=ORIENTED_EDGE('',*,*,#643,.F.);
#645=EDGE_LOOP('',(#622,#630,#638,#644));
#646=FACE_BOUND('',#645,.T.);
#647=ADVANCED_FACE('NONE',(#646),#612,.F.);
#648=CARTESIAN_POINT('',(145.55,134.,74.24));
#649=DIRECTION('',(0.,-0.707106781,-0.707106781));
#650=DIRECTION('',(0.,-0.707106781,0.707106781));
#651=AXIS2_PLACEMENT_3D('',#648,#649,#650);
#652=PLANE('',#651);
#653=ORIENTED_EDGE('',*,*,#308,.T.);
#654=CARTESIAN_POINT('',(146.05,134.3,73.94));
#655=VERTEX_POINT('',#654);
#656=CARTESIAN_POINT('',(145.75,134.,74.24));
#657=DIRECTION('',(0.577350269,0.577350269,-0.577350269));
#658=VECTOR('',#657,0.519615242);
#659=LINE('',#656,#658);
#660=EDGE_CURVE('NONE',#295,#655,#659,.T.);
#661=ORIENTED_EDGE('',*,*,#660,.T.);
#662=CARTESIAN_POINT('',(149.95,134.3,73.94));
#663=VERTEX_POINT('',#662);
#664=CARTESIAN_POINT('',(149.95,134.3,73.94));
#665=DIRECTION('',(-1.,0.,0.));
#666=VECTOR('',#665,3.9);
#667=LINE('',#664,#666);
#668=EDGE_CURVE('NONE',#663,#655,#667,.T.);
#669=ORIENTED_EDGE('',*,*,#668,.F.);
#670=CARTESIAN_POINT('',(149.95,134.3,73.94));
#671=DIRECTION('',(0.577350269,-0.577350269,0.577350269));
#672=VECTOR('',#671,0.519615242);
#673=LINE('',#670,#672);
#674=EDGE_CURVE('NONE',#663,#303,#673,.T.);
#675=ORIENTED_EDGE('',*,*,#674,.T.);
#676=EDGE_LOOP('',(#653,#661,#669,#675));
#677=FACE_BOUND('',#676,.T.);
#678=ADVANCED_FACE('NONE',(#677),#652,.T.);
#679=CARTESIAN_POINT('',(145.55,136.,74.24));
#680=DIRECTION('',(0.,0.707106781,-0.707106781));
#681=DIRECTION('',(0.,-0.707106781,-0.707106781));
#682=AXIS2_PLACEMENT_3D('',#679,#680,#681);
#683=PLANE('',#682);
#684=CARTESIAN_POINT('',(146.05,135.7,73.94));
#685=VERTEX_POINT('',#684);
#686=CARTESIAN_POINT('',(149.95,135.7,73.94));
#687=VERTEX_POINT('',#686);
#688=CARTESIAN_POINT('',(146.05,135.7,73.94));
#689=DIRECTION('',(1.,-0.,-0.));
#690=VECTOR('',#689,3.9);
#691=LINE('',#688,#690);
#692=EDGE_CURVE('NONE',#685,#687,#691,.T.);
#693=ORIENTED_EDGE('',*,*,#692,.F.);
#694=CARTESIAN_POINT('',(146.05,135.7,73.94));
#695=DIRECTION('',(-0.577350269,0.577350269,0.577350269));
#696=VECTOR('',#695,0.866025404);
#697=LINE('',#694,#696);
#698=EDGE_CURVE('NONE',#685,#526,#697,.T.);
#699=ORIENTED_EDGE('',*,*,#698,.T.);
#700=ORIENTED_EDGE('',*,*,#531,.F.);
#701=CARTESIAN_POINT('',(145.55,136.4,74.64));
#702=DIRECTION('',(0.577350269,-0.577350269,-0.577350269));
#703=VECTOR('',#702,0.692820323);
#704=LINE('',#701,#703);
#705=EDGE_CURVE('NONE',#524,#376,#704,.T.);
#706=ORIENTED_EDGE('',*,*,#705,.T.);
#707=ORIENTED_EDGE('',*,*,#383,.T.);
#708=CARTESIAN_POINT('',(150.05,136.,74.24));
#709=DIRECTION('',(0.577350269,0.577350269,0.577350269));
#710=VECTOR('',#709,0.692820323);
#711=LINE('',#708,#710);
#712=EDGE_CURVE('NONE',#378,#452,#711,.T.);
#713=ORIENTED_EDGE('',*,*,#712,.T.);
#714=ORIENTED_EDGE('',*,*,#457,.F.);
#715=CARTESIAN_POINT('',(150.45,136.2,74.44));
#716=DIRECTION('',(-0.577350269,-0.577350269,-0.577350269));
#717=VECTOR('',#716,0.866025404);
#718=LINE('',#715,#717);
#719=EDGE_CURVE('NONE',#444,#687,#718,.T.);
#720=ORIENTED_EDGE('',*,*,#719,.T.);
#721=EDGE_LOOP('',(#693,#699,#700,#706,#707,#713,#714,#720));
#722=FACE_BOUND('',#721,.T.);
#723=ADVANCED_FACE('NONE',(#722),#683,.T.);
#724=CARTESIAN_POINT('',(128.,138.,73.94));
#725=DIRECTION('',(0.,0.,-1.));
#726=DIRECTION('',(-1.,0.,0.));
#727=AXIS2_PLACEMENT_3D('',#724,#725,#726);
#728=PLANE('',#727);
#729=ORIENTED_EDGE('',*,*,#668,.T.);
#730=CARTESIAN_POINT('',(146.05,134.3,73.94));
#731=DIRECTION('',(0.,1.,0.));
#732=VECTOR('',#731,1.4);
#733=LINE('',#730,#732);
#734=EDGE_CURVE('NONE',#655,#685,#733,.T.);
#735=ORIENTED_EDGE('',*,*,#734,.T.);
#736=ORIENTED_EDGE('',*,*,#692,.T.);
#737=CARTESIAN_POINT('',(149.95,135.7,73.94));
#738=DIRECTION('',(-0.,-1.,-0.));
#739=VECTOR('',#738,1.4);
#740=LINE('',#737,#739);
#741=EDGE_CURVE('NONE',#687,#663,#740,.T.);
#742=ORIENTED_EDGE('',*,*,#741,.T.);
#743=EDGE_LOOP('',(#729,#735,#736,#742));
#744=FACE_BOUND('',#743,.T.);
#745=ADVANCED_FACE('NONE',(#744),#728,.T.);
#746=CARTESIAN_POINT('',(147.55,140.45,69.19));
#747=DIRECTION('',(0.,0.,1.));
#748=DIRECTION('',(1.,0.,-0.));
#749=AXIS2_PLACEMENT_3D('',#746,#747,#748);
#750=CYLINDRICAL_SURFACE('',#749,2.);
#751=ORIENTED_EDGE('',*,*,#637,.F.);
#752=CARTESIAN_POINT('',(147.55,140.45,73.84));
#753=DIRECTION('',(-0.,-0.,-1.));
#754=DIRECTION('',(1.,0.,-0.));
#755=AXIS2_PLACEMENT_3D('',#752,#753,#754);
#756=CIRCLE('',#755,2.);
#757=EDGE_CURVE('NONE',#624,#574,#756,.T.);
#758=ORIENTED_EDGE('',*,*,#757,.T.);
#759=ORIENTED_EDGE('',*,*,#579,.F.);
#760=CARTESIAN_POINT('',(147.55,140.45,68.8));
#761=DIRECTION('',(-0.,-0.,-1.));
#762=DIRECTION('',(1.,0.,-0.));
#763=AXIS2_PLACEMENT_3D('',#760,#761,#762);
#764=CIRCLE('',#763,2.);
#765=EDGE_CURVE('NONE',#632,#566,#764,.T.);
#766=ORIENTED_EDGE('',*,*,#765,.F.);
#767=EDGE_LOOP('',(#751,#758,#759,#766));
#768=FACE_BOUND('',#767,.T.);
#769=ADVANCED_FACE('NONE',(#768),#750,.T.);
#770=CARTESIAN_POINT('',(148.45,140.45,69.19));
#771=DIRECTION('',(0.,0.,-1.));
#772=DIRECTION('',(-1.,0.,0.));
#773=AXIS2_PLACEMENT_3D('',#770,#771,#772);
#774=CYLINDRICAL_SURFACE('',#773,2.);
#775=ORIENTED_EDGE('',*,*,#491,.F.);
#776=CARTESIAN_POINT('',(148.45,140.45,73.84));
#777=DIRECTION('',(0.,0.,-1.));
#778=DIRECTION('',(-1.,0.,0.));
#779=AXIS2_PLACEMENT_3D('',#776,#777,#778);
#780=CIRCLE('',#779,2.);
#781=EDGE_CURVE('NONE',#468,#616,#780,.T.);
#782=ORIENTED_EDGE('',*,*,#781,.T.);
#783=ORIENTED_EDGE('',*,*,#621,.F.);
#784=CARTESIAN_POINT('',(148.45,140.45,68.8));
#785=DIRECTION('',(-0.,-0.,-1.));
#786=DIRECTION('',(1.,0.,-0.));
#787=AXIS2_PLACEMENT_3D('',#784,#785,#786);
#788=CIRCLE('',#787,2.);
#789=EDGE_CURVE('NONE',#486,#614,#788,.T.);
#790=ORIENTED_EDGE('',*,*,#789,.F.);
#791=EDGE_LOOP('',(#775,#782,#783,#790));
#792=FACE_BOUND('',#791,.T.);
#793=ADVANCED_FACE('NONE',(#792),#774,.T.);
#794=CARTESIAN_POINT('',(147.55,140.45,74.24));
#795=DIRECTION('',(0.,0.,1.));
#796=DIRECTION('',(1.,0.,-0.));
#797=AXIS2_PLACEMENT_3D('',#794,#795,#796);
#798=CONICAL_SURFACE('',#797,2.4,44.999999898);
#799=ORIENTED_EDGE('',*,*,#597,.F.);
#800=ORIENTED_EDGE('',*,*,#757,.F.);
#801=CARTESIAN_POINT('',(147.55,138.05,74.24));
#802=DIRECTION('',(-0.,0.707106781,-0.707106781));
#803=VECTOR('',#802,0.565685425);
#804=LINE('',#801,#803);
#805=EDGE_CURVE('NONE',#394,#624,#804,.T.);
#806=ORIENTED_EDGE('',*,*,#805,.F.);
#807=ORIENTED_EDGE('',*,*,#400,.F.);
#808=CARTESIAN_POINT('',(145.95,138.661145618,74.24));
#809=CARTESIAN_POINT('',(145.817195817,138.601753783,74.372804183));
#810=CARTESIAN_POINT('',(145.683820075,138.545040024,74.506179925));
#811=CARTESIAN_POINT('',(145.55,138.490408208,74.64));
#812=B_SPLINE_CURVE_WITH_KNOTS('',3,(#808,#809,#810,#811),.UNSPECIFIED.,.F.,.F.,(4,4),(0.,0.00059089),.UNSPECIFIED.);
#813=EDGE_CURVE('NONE',#386,#582,#812,.T.);
#814=ORIENTED_EDGE('',*,*,#813,.T.);
#815=EDGE_LOOP('',(#799,#800,#806,#807,#814));
#816=FACE_BOUND('',#815,.T.);
#817=ADVANCED_FACE('NONE',(#816),#798,.T.);
#818=CARTESIAN_POINT('',(157.8,138.45,73.84));
#819=DIRECTION('',(0.,-0.707106781,-0.707106781));
#820=DIRECTION('',(1.,0.,0.));
#821=AXIS2_PLACEMENT_3D('',#818,#819,#820);
#822=PLANE('',#821);
#823=ORIENTED_EDGE('',*,*,#805,.T.);
#824=ORIENTED_EDGE('',*,*,#629,.F.);
#825=CARTESIAN_POINT('',(148.45,138.05,74.24));
#826=CARTESIAN_POINT('',(148.45,138.183333333,74.106666667));
#827=CARTESIAN_POINT('',(148.45,138.316666666,73.973333333));
#828=CARTESIAN_POINT('',(148.450000001,138.449999999,73.84));
#829=B_SPLINE_CURVE_WITH_KNOTS('',3,(#825,#826,#827,#828),.UNSPECIFIED.,.F.,.F.,(4,4),(0.,0.565685425),.UNSPECIFIED.);
#830=EDGE_CURVE('NONE',#403,#616,#829,.T.);
#831=ORIENTED_EDGE('',*,*,#830,.F.);
#832=ORIENTED_EDGE('',*,*,#408,.F.);
#833=EDGE_LOOP('',(#823,#824,#831,#832));
#834=FACE_BOUND('',#833,.T.);
#835=ADVANCED_FACE('NONE',(#834),#822,.T.);
#836=CARTESIAN_POINT('',(148.45,140.45,74.24));
#837=DIRECTION('',(0.,0.,1.));
#838=DIRECTION('',(1.,0.,-0.));
#839=AXIS2_PLACEMENT_3D('',#836,#837,#838);
#840=CONICAL_SURFACE('',#839,2.4,44.999999898);
#841=ORIENTED_EDGE('',*,*,#830,.T.);
#842=ORIENTED_EDGE('',*,*,#781,.F.);
#843=ORIENTED_EDGE('',*,*,#483,.F.);
#844=CARTESIAN_POINT('',(150.45,138.490408208,74.64));
#845=CARTESIAN_POINT('',(150.316179925,138.545040024,74.506179925));
#846=CARTESIAN_POINT('',(150.182804183,138.601753783,74.372804183));
#847=CARTESIAN_POINT('',(150.05,138.661145618,74.24));
#848=B_SPLINE_CURVE_WITH_KNOTS('',3,(#844,#845,#846,#847),.UNSPECIFIED.,.F.,.F.,(4,4),(0.,0.00059089),.UNSPECIFIED.);
#849=EDGE_CURVE('NONE',#460,#411,#848,.T.);
#850=ORIENTED_EDGE('',*,*,#849,.T.);
#851=ORIENTED_EDGE('',*,*,#417,.F.);
#852=EDGE_LOOP('',(#841,#842,#843,#850,#851));
#853=FACE_BOUND('',#852,.T.);
#854=ADVANCED_FACE('NONE',(#853),#840,.T.);
#855=CARTESIAN_POINT('',(143.,144.5,59.19));
#856=DIRECTION('',(0.,1.,0.));
#857=DIRECTION('',(0.,0.,-1.));
#858=AXIS2_PLACEMENT_3D('',#855,#856,#857);
#859=PLANE('',#858);
#860=CARTESIAN_POINT('',(146.808649447,144.5,68.8));
#861=VERTEX_POINT('',#860);
#862=CARTESIAN_POINT('',(149.191350553,144.5,68.8));
#863=VERTEX_POINT('',#862);
#864=CARTESIAN_POINT('',(146.808649447,144.5,68.8));
#865=DIRECTION('',(1.,0.,-0.));
#866=VECTOR('',#865,2.382701106);
#867=LINE('',#864,#866);
#868=EDGE_CURVE('NONE',#861,#863,#867,.T.);
#869=ORIENTED_EDGE('',*,*,#868,.F.);
#870=CARTESIAN_POINT('',(146.808649447,144.5,78.789999999));
#871=VERTEX_POINT('',#870);
#872=CARTESIAN_POINT('',(146.808649447,144.5,68.8));
#873=DIRECTION('',(-0.,-0.,1.));
#874=VECTOR('',#873,9.989999999);
#875=LINE('',#872,#874);
#876=EDGE_CURVE('NONE',#861,#871,#875,.T.);
#877=ORIENTED_EDGE('',*,*,#876,.T.);
#878=CARTESIAN_POINT('',(149.191350553,144.5,78.79));
#879=VERTEX_POINT('',#878);
#880=CARTESIAN_POINT('',(146.808649447,144.5,78.789999999));
#881=DIRECTION('',(1.,-0.,-0.));
#882=VECTOR('',#881,2.382701106);
#883=LINE('',#880,#882);
#884=EDGE_CURVE('NONE',#871,#879,#883,.T.);
#885=ORIENTED_EDGE('',*,*,#884,.T.);
#886=CARTESIAN_POINT('',(149.191350553,144.5,68.8));
#887=DIRECTION('',(-0.,-0.,1.));
#888=VECTOR('',#887,9.99);
#889=LINE('',#886,#888);
#890=EDGE_CURVE('NONE',#863,#879,#889,.T.);
#891=ORIENTED_EDGE('',*,*,#890,.F.);
#892=EDGE_LOOP('',(#869,#877,#885,#891));
#893=FACE_BOUND('',#892,.T.);
#894=ADVANCED_FACE('NONE',(#893),#859,.T.);
#895=CARTESIAN_POINT('',(145.55,143.,63.711633455));
#896=DIRECTION('',(0.766044443,-0.64278761,0.));
#897=DIRECTION('',(-0.64278761,-0.766044443,0.));
#898=AXIS2_PLACEMENT_3D('',#895,#896,#897);
#899=PLANE('',#898);
#900=CARTESIAN_POINT('',(146.017911114,143.557634751,68.8));
#901=VERTEX_POINT('',#900);
#902=CARTESIAN_POINT('',(146.017911115,143.557634751,78.79));
#903=VERTEX_POINT('',#902);
#904=CARTESIAN_POINT('',(146.017911114,143.557634751,68.8));
#905=DIRECTION('',(-0.,-0.,1.));
#906=VECTOR('',#905,9.99);
#907=LINE('',#904,#906);
#908=EDGE_CURVE('NONE',#901,#903,#907,.T.);
#909=ORIENTED_EDGE('',*,*,#908,.T.);
#910=CARTESIAN_POINT('',(146.017911114,143.557634751,78.79));
#911=DIRECTION('',(0.64278761,0.766044443,-0.));
#912=VECTOR('',#911,1.230170465);
#913=LINE('',#910,#912);
#914=EDGE_CURVE('NONE',#903,#871,#913,.T.);
#915=ORIENTED_EDGE('',*,*,#914,.T.);
#916=ORIENTED_EDGE('',*,*,#876,.F.);
#917=CARTESIAN_POINT('',(146.017911114,143.557634751,68.8));
#918=DIRECTION('',(0.64278761,0.766044443,0.));
#919=VECTOR('',#918,1.230170465);
#920=LINE('',#917,#919);
#921=EDGE_CURVE('NONE',#901,#861,#920,.T.);
#922=ORIENTED_EDGE('',*,*,#921,.F.);
#923=EDGE_LOOP('',(#909,#915,#916,#922));
#924=FACE_BOUND('',#923,.T.);
#925=ADVANCED_FACE('NONE',(#924),#899,.F.);
#926=CARTESIAN_POINT('',(150.45,143.,63.711633455));
#927=DIRECTION('',(-0.766044443,-0.64278761,0.));
#928=DIRECTION('',(-0.64278761,0.766044443,0.));
#929=AXIS2_PLACEMENT_3D('',#926,#927,#928);
#930=PLANE('',#929);
#931=ORIENTED_EDGE('',*,*,#890,.T.);
#932=CARTESIAN_POINT('',(149.982088886,143.557634751,78.79));
#933=VERTEX_POINT('',#932);
#934=CARTESIAN_POINT('',(149.191350553,144.5,78.79));
#935=DIRECTION('',(0.64278761,-0.766044443,-0.));
#936=VECTOR('',#935,1.230170465);
#937=LINE('',#934,#936);
#938=EDGE_CURVE('NONE',#879,#933,#937,.T.);
#939=ORIENTED_EDGE('',*,*,#938,.T.);
#940=CARTESIAN_POINT('',(149.982088886,143.557634751,68.8));
#941=VERTEX_POINT('',#940);
#942=CARTESIAN_POINT('',(149.982088886,143.557634751,78.79));
#943=DIRECTION('',(0.,0.,-1.));
#944=VECTOR('',#943,9.99);
#945=LINE('',#942,#944);
#946=EDGE_CURVE('NONE',#933,#941,#945,.T.);
#947=ORIENTED_EDGE('',*,*,#946,.T.);
#948=CARTESIAN_POINT('',(149.191350553,144.5,68.8));
#949=DIRECTION('',(0.64278761,-0.766044443,0.));
#950=VECTOR('',#949,1.230170465);
#951=LINE('',#948,#950);
#952=EDGE_CURVE('NONE',#863,#941,#951,.T.);
#953=ORIENTED_EDGE('',*,*,#952,.F.);
#954=EDGE_LOOP('',(#931,#939,#947,#953));
#955=FACE_BOUND('',#954,.T.);
#956=ADVANCED_FACE('NONE',(#955),#930,.F.);
#957=CARTESIAN_POINT('',(149.,131.55,63.711633455));
#958=DIRECTION('',(0.,1.,0.));
#959=DIRECTION('',(0.,0.,-1.));
#960=AXIS2_PLACEMENT_3D('',#957,#958,#959);
#961=PLANE('',#960);
#962=CARTESIAN_POINT('',(147.828427125,131.550000001,78.789999999));
#963=VERTEX_POINT('',#962);
#964=CARTESIAN_POINT('',(147.828427125,131.55,74.44));
#965=VERTEX_POINT('',#964);
#966=CARTESIAN_POINT('',(147.828427125,131.55,78.789999999));
#967=DIRECTION('',(0.,0.,-1.));
#968=VECTOR('',#967,4.349999999);
#969=LINE('',#966,#968);
#970=EDGE_CURVE('NONE',#963,#965,#969,.T.);
#971=ORIENTED_EDGE('',*,*,#970,.T.);
#972=CARTESIAN_POINT('',(148.171572875,131.55,74.44));
#973=VERTEX_POINT('',#972);
#974=CARTESIAN_POINT('',(147.828427125,131.55,74.44));
#975=DIRECTION('',(1.,-0.,-0.));
#976=VECTOR('',#975,0.34314575);
#977=LINE('',#974,#976);
#978=EDGE_CURVE('NONE',#965,#973,#977,.T.);
#979=ORIENTED_EDGE('',*,*,#978,.T.);
#980=CARTESIAN_POINT('',(148.171572875,131.55,78.79));
#981=VERTEX_POINT('',#980);
#982=CARTESIAN_POINT('',(148.171572875,131.55,74.44));
#983=DIRECTION('',(-0.,-0.,1.));
#984=VECTOR('',#983,4.35);
#985=LINE('',#982,#984);
#986=EDGE_CURVE('NONE',#973,#981,#985,.T.);
#987=ORIENTED_EDGE('',*,*,#986,.T.);
#988=CARTESIAN_POINT('',(148.171572875,131.55,78.79));
#989=DIRECTION('',(-1.,0.,0.));
#990=VECTOR('',#989,0.34314575);
#991=LINE('',#988,#990);
#992=EDGE_CURVE('NONE',#981,#963,#991,.T.);
#993=ORIENTED_EDGE('',*,*,#992,.T.);
#994=EDGE_LOOP('',(#971,#979,#987,#993));
#995=FACE_BOUND('',#994,.T.);
#996=ADVANCED_FACE('NONE',(#995),#961,.F.);
#997=CARTESIAN_POINT('',(150.45,133.,63.711633455));
#998=DIRECTION('',(-0.707106781,0.707106781,0.));
#999=DIRECTION('',(0.707106781,0.707106781,0.));
#1000=AXIS2_PLACEMENT_3D('',#997,#998,#999);
#1001=PLANE('',#1000);
#1002=CARTESIAN_POINT('',(149.585786437,132.135786438,78.789999999));
#1003=VERTEX_POINT('',#1002);
#1004=CARTESIAN_POINT('',(149.585786437,132.135786438,74.44));
#1005=VERTEX_POINT('',#1004);
#1006=CARTESIAN_POINT('',(149.585786438,132.135786438,78.789999999));
#1007=DIRECTION('',(0.,0.,-1.));
#1008=VECTOR('',#1007,4.349999999);
#1009=LINE('',#1006,#1008);
#1010=EDGE_CURVE('NONE',#1003,#1005,#1009,.T.);
#1011=ORIENTED_EDGE('',*,*,#1010,.T.);
#1012=CARTESIAN_POINT('',(149.864213562,132.414213562,74.44));
#1013=VERTEX_POINT('',#1012);
#1014=CARTESIAN_POINT('',(149.585786438,132.135786438,74.44));
#1015=DIRECTION('',(0.707106781,0.707106781,0.));
#1016=VECTOR('',#1015,0.393755416);
#1017=LINE('',#1014,#1016);
#1018=EDGE_CURVE('NONE',#1005,#1013,#1017,.T.);
#1019=ORIENTED_EDGE('',*,*,#1018,.T.);
#1020=CARTESIAN_POINT('',(149.864213562,132.414213563,78.79));
#1021=VERTEX_POINT('',#1020);
#1022=CARTESIAN_POINT('',(149.864213562,132.414213562,74.44));
#1023=DIRECTION('',(-0.,-0.,1.));
#1024=VECTOR('',#1023,4.35);
#1025=LINE('',#1022,#1024);
#1026=EDGE_CURVE('NONE',#1013,#1021,#1025,.T.);
#1027=ORIENTED_EDGE('',*,*,#1026,.T.);
#1028=CARTESIAN_POINT('',(149.864213562,132.414213562,78.79));
#1029=DIRECTION('',(-0.707106781,-0.707106781,-0.));
#1030=VECTOR('',#1029,0.393755416);
#1031=LINE('',#1028,#1030);
#1032=EDGE_CURVE('NONE',#1021,#1003,#1031,.T.);
#1033=ORIENTED_EDGE('',*,*,#1032,.T.);
#1034=EDGE_LOOP('',(#1011,#1019,#1027,#1033));
#1035=FACE_BOUND('',#1034,.T.);
#1036=ADVANCED_FACE('NONE',(#1035),#1001,.F.);
#1037=CARTESIAN_POINT('',(147.,131.55,63.711633455));
#1038=DIRECTION('',(0.707106781,0.707106781,0.));
#1039=DIRECTION('',(0.707106781,-0.707106781,0.));
#1040=AXIS2_PLACEMENT_3D('',#1037,#1038,#1039);
#1041=PLANE('',#1040);
#1042=CARTESIAN_POINT('',(146.135786438,132.414213563,78.789999999));
#1043=VERTEX_POINT('',#1042);
#1044=CARTESIAN_POINT('',(146.135786438,132.414213563,74.44));
#1045=VERTEX_POINT('',#1044);
#1046=CARTESIAN_POINT('',(146.135786438,132.414213562,78.789999999));
#1047=DIRECTION('',(0.,0.,-1.));
#1048=VECTOR('',#1047,4.349999999);
#1049=LINE('',#1046,#1048);
#1050=EDGE_CURVE('NONE',#1043,#1045,#1049,.T.);
#1051=ORIENTED_EDGE('',*,*,#1050,.T.);
#1052=CARTESIAN_POINT('',(146.414213562,132.135786438,74.44));
#1053=VERTEX_POINT('',#1052);
#1054=CARTESIAN_POINT('',(146.135786438,132.414213562,74.44));
#1055=DIRECTION('',(0.707106781,-0.707106781,0.));
#1056=VECTOR('',#1055,0.393755416);
#1057=LINE('',#1054,#1056);
#1058=EDGE_CURVE('NONE',#1045,#1053,#1057,.T.);
#1059=ORIENTED_EDGE('',*,*,#1058,.T.);
#1060=CARTESIAN_POINT('',(146.414213562,132.135786438,78.79));
#1061=VERTEX_POINT('',#1060);
#1062=CARTESIAN_POINT('',(146.414213562,132.135786438,74.44));
#1063=DIRECTION('',(-0.,-0.,1.));
#1064=VECTOR('',#1063,4.35);
#1065=LINE('',#1062,#1064);
#1066=EDGE_CURVE('NONE',#1053,#1061,#1065,.T.);
#1067=ORIENTED_EDGE('',*,*,#1066,.T.);
#1068=CARTESIAN_POINT('',(146.414213562,132.135786438,78.79));
#1069=DIRECTION('',(-0.707106781,0.707106781,-0.));
#1070=VECTOR('',#1069,0.393755416);
#1071=LINE('',#1068,#1070);
#1072=EDGE_CURVE('NONE',#1061,#1043,#1071,.T.);
#1073=ORIENTED_EDGE('',*,*,#1072,.T.);
#1074=EDGE_LOOP('',(#1051,#1059,#1067,#1073));
#1075=FACE_BOUND('',#1074,.T.);
#1076=ADVANCED_FACE('NONE',(#1075),#1041,.F.);
#1077=CARTESIAN_POINT('',(147.55,133.828427125,63.711633455));
#1078=DIRECTION('',(0.,0.,1.));
#1079=DIRECTION('',(1.,0.,-0.));
#1080=AXIS2_PLACEMENT_3D('',#1077,#1078,#1079);
#1081=CYLINDRICAL_SURFACE('',#1080,2.);
#1082=ORIENTED_EDGE('',*,*,#547,.F.);
#1083=CARTESIAN_POINT('',(147.55,133.828427125,74.44));
#1084=DIRECTION('',(0.,0.,1.));
#1085=DIRECTION('',(1.,0.,-0.));
#1086=AXIS2_PLACEMENT_3D('',#1083,#1084,#1085);
#1087=CIRCLE('',#1086,2.);
#1088=EDGE_CURVE('NONE',#534,#1045,#1087,.T.);
#1089=ORIENTED_EDGE('',*,*,#1088,.T.);
#1090=ORIENTED_EDGE('',*,*,#1050,.F.);
#1091=CARTESIAN_POINT('',(147.55,133.828427125,78.79));
#1092=DIRECTION('',(-0.,-0.,-1.));
#1093=DIRECTION('',(1.,0.,-0.));
#1094=AXIS2_PLACEMENT_3D('',#1091,#1092,#1093);
#1095=CIRCLE('',#1094,2.);
#1096=EDGE_CURVE('NONE',#1043,#542,#1095,.T.);
#1097=ORIENTED_EDGE('',*,*,#1096,.T.);
#1098=EDGE_LOOP('',(#1082,#1089,#1090,#1097));
#1099=FACE_BOUND('',#1098,.T.);
#1100=ADVANCED_FACE('NONE',(#1099),#1081,.T.);
#1101=CARTESIAN_POINT('',(148.45,133.828427125,79.19));
#1102=DIRECTION('',(0.,0.,1.));
#1103=DIRECTION('',(1.,0.,-0.));
#1104=AXIS2_PLACEMENT_3D('',#1101,#1102,#1103);
#1105=CYLINDRICAL_SURFACE('',#1104,2.);
#1106=ORIENTED_EDGE('',*,*,#1026,.F.);
#1107=CARTESIAN_POINT('',(148.45,133.828427125,74.44));
#1108=DIRECTION('',(0.,0.,1.));
#1109=DIRECTION('',(1.,0.,-0.));
#1110=AXIS2_PLACEMENT_3D('',#1107,#1108,#1109);
#1111=CIRCLE('',#1110,2.);
#1112=EDGE_CURVE('NONE',#1013,#436,#1111,.T.);
#1113=ORIENTED_EDGE('',*,*,#1112,.T.);
#1114=ORIENTED_EDGE('',*,*,#441,.F.);
#1115=CARTESIAN_POINT('',(148.45,133.828427125,78.79));
#1116=DIRECTION('',(-0.,-0.,-1.));
#1117=DIRECTION('',(1.,0.,-0.));
#1118=AXIS2_PLACEMENT_3D('',#1115,#1116,#1117);
#1119=CIRCLE('',#1118,2.);
#1120=EDGE_CURVE('NONE',#434,#1021,#1119,.T.);
#1121=ORIENTED_EDGE('',*,*,#1120,.T.);
#1122=EDGE_LOOP('',(#1106,#1113,#1114,#1121));
#1123=FACE_BOUND('',#1122,.T.);
#1124=ADVANCED_FACE('NONE',(#1123),#1105,.T.);
#1125=CARTESIAN_POINT('',(147.55,142.272059531,79.19));
#1126=DIRECTION('',(0.,0.,1.));
#1127=DIRECTION('',(1.,0.,-0.));
#1128=AXIS2_PLACEMENT_3D('',#1125,#1126,#1127);
#1129=CYLINDRICAL_SURFACE('',#1128,2.);
#1130=ORIENTED_EDGE('',*,*,#563,.F.);
#1131=CARTESIAN_POINT('',(147.55,142.272059531,78.79));
#1132=DIRECTION('',(-0.,-0.,-1.));
#1133=DIRECTION('',(1.,0.,-0.));
#1134=AXIS2_PLACEMENT_3D('',#1131,#1132,#1133);
#1135=CIRCLE('',#1134,2.);
#1136=EDGE_CURVE('NONE',#550,#903,#1135,.T.);
#1137=ORIENTED_EDGE('',*,*,#1136,.T.);
#1138=ORIENTED_EDGE('',*,*,#908,.F.);
#1139=CARTESIAN_POINT('',(147.55,142.272059531,68.8));
#1140=DIRECTION('',(-0.,-0.,-1.));
#1141=DIRECTION('',(1.,0.,-0.));
#1142=AXIS2_PLACEMENT_3D('',#1139,#1140,#1141);
#1143=CIRCLE('',#1142,2.);
#1144=EDGE_CURVE('NONE',#558,#901,#1143,.T.);
#1145=ORIENTED_EDGE('',*,*,#1144,.F.);
#1146=EDGE_LOOP('',(#1130,#1137,#1138,#1145));
#1147=FACE_BOUND('',#1146,.T.);
#1148=ADVANCED_FACE('NONE',(#1147),#1129,.T.);
#1149=CARTESIAN_POINT('',(148.45,142.272059531,63.711633455));
#1150=DIRECTION('',(0.,0.,1.));
#1151=DIRECTION('',(1.,0.,-0.));
#1152=AXIS2_PLACEMENT_3D('',#1149,#1150,#1151);
#1153=CYLINDRICAL_SURFACE('',#1152,2.);
#1154=ORIENTED_EDGE('',*,*,#946,.F.);
#1155=CARTESIAN_POINT('',(148.45,142.272059531,78.79));
#1156=DIRECTION('',(-0.,-0.,-1.));
#1157=DIRECTION('',(1.,0.,-0.));
#1158=AXIS2_PLACEMENT_3D('',#1155,#1156,#1157);
#1159=CIRCLE('',#1158,2.);
#1160=EDGE_CURVE('NONE',#933,#502,#1159,.T.);
#1161=ORIENTED_EDGE('',*,*,#1160,.T.);
#1162=ORIENTED_EDGE('',*,*,#507,.F.);
#1163=CARTESIAN_POINT('',(148.45,142.272059531,68.8));
#1164=DIRECTION('',(-0.,-0.,-1.));
#1165=DIRECTION('',(1.,0.,-0.));
#1166=AXIS2_PLACEMENT_3D('',#1163,#1164,#1165);
#1167=CIRCLE('',#1166,2.);
#1168=EDGE_CURVE('NONE',#941,#494,#1167,.T.);
#1169=ORIENTED_EDGE('',*,*,#1168,.F.);
#1170=EDGE_LOOP('',(#1154,#1161,#1162,#1169));
#1171=FACE_BOUND('',#1170,.T.);
#1172=ADVANCED_FACE('NONE',(#1171),#1153,.T.);
#1173=CARTESIAN_POINT('',(148.171572875,133.55,63.711633455));
#1174=DIRECTION('',(0.,0.,1.));
#1175=DIRECTION('',(1.,0.,-0.));
#1176=AXIS2_PLACEMENT_3D('',#1173,#1174,#1175);
#1177=CYLINDRICAL_SURFACE('',#1176,2.);
#1178=ORIENTED_EDGE('',*,*,#986,.F.);
#1179=CARTESIAN_POINT('',(148.171572875,133.55,74.44));
#1180=DIRECTION('',(0.,0.,1.));
#1181=DIRECTION('',(1.,0.,-0.));
#1182=AXIS2_PLACEMENT_3D('',#1179,#1180,#1181);
#1183=CIRCLE('',#1182,2.);
#1184=EDGE_CURVE('NONE',#973,#1005,#1183,.T.);
#1185=ORIENTED_EDGE('',*,*,#1184,.T.);
#1186=ORIENTED_EDGE('',*,*,#1010,.F.);
#1187=CARTESIAN_POINT('',(148.171572875,133.55,78.79));
#1188=DIRECTION('',(-0.,-0.,-1.));
#1189=DIRECTION('',(1.,0.,-0.));
#1190=AXIS2_PLACEMENT_3D('',#1187,#1188,#1189);
#1191=CIRCLE('',#1190,2.);
#1192=EDGE_CURVE('NONE',#1003,#981,#1191,.T.);
#1193=ORIENTED_EDGE('',*,*,#1192,.T.);
#1194=EDGE_LOOP('',(#1178,#1185,#1186,#1193));
#1195=FACE_BOUND('',#1194,.T.);
#1196=ADVANCED_FACE('NONE',(#1195),#1177,.T.);
#1197=CARTESIAN_POINT('',(147.828427125,133.55,63.711633455));
#1198=DIRECTION('',(0.,0.,1.));
#1199=DIRECTION('',(1.,0.,-0.));
#1200=AXIS2_PLACEMENT_3D('',#1197,#1198,#1199);
#1201=CYLINDRICAL_SURFACE('',#1200,2.);
#1202=ORIENTED_EDGE('',*,*,#1066,.F.);
#1203=CARTESIAN_POINT('',(147.828427125,133.55,74.44));
#1204=DIRECTION('',(0.,0.,1.));
#1205=DIRECTION('',(1.,0.,-0.));
#1206=AXIS2_PLACEMENT_3D('',#1203,#1204,#1205);
#1207=CIRCLE('',#1206,2.);
#1208=EDGE_CURVE('NONE',#1053,#965,#1207,.T.);
#1209=ORIENTED_EDGE('',*,*,#1208,.T.);
#1210=ORIENTED_EDGE('',*,*,#970,.F.);
#1211=CARTESIAN_POINT('',(147.828427125,133.55,78.79));
#1212=DIRECTION('',(-0.,-0.,-1.));
#1213=DIRECTION('',(1.,0.,-0.));
#1214=AXIS2_PLACEMENT_3D('',#1211,#1212,#1213);
#1215=CIRCLE('',#1214,2.);
#1216=EDGE_CURVE('NONE',#963,#1061,#1215,.T.);
#1217=ORIENTED_EDGE('',*,*,#1216,.T.);
#1218=EDGE_LOOP('',(#1202,#1209,#1210,#1217));
#1219=FACE_BOUND('',#1218,.T.);
#1220=ADVANCED_FACE('NONE',(#1219),#1201,.T.);
#1221=CARTESIAN_POINT('',(150.45,133.,78.79));
#1222=DIRECTION('',(-0.5,0.5,-0.707106781));
#1223=DIRECTION('',(-0.707106781,-0.707106781,0.));
#1224=AXIS2_PLACEMENT_3D('',#1221,#1222,#1223);
#1225=PLANE('',#1224);
#1226=CARTESIAN_POINT('',(149.585786437,132.135786438,78.789999999));
#1227=DIRECTION('',(-0.499999999,0.499999999,0.707106782));
#1228=VECTOR('',#1227,0.565685425);
#1229=LINE('',#1226,#1228);
#1230=EDGE_CURVE('NONE',#1003,#219,#1229,.T.);
#1231=ORIENTED_EDGE('',*,*,#1230,.F.);
#1232=ORIENTED_EDGE('',*,*,#1032,.F.);
#1233=CARTESIAN_POINT('',(149.58137085,132.697056275,79.19));
#1234=CARTESIAN_POINT('',(149.675651754,132.602775371,79.056666667));
#1235=CARTESIAN_POINT('',(149.769932657,132.508494467,78.923333333));
#1236=CARTESIAN_POINT('',(149.864213561,132.414213563,78.79));
#1237=B_SPLINE_CURVE_WITH_KNOTS('',3,(#1233,#1234,#1235,#1236),.UNSPECIFIED.,.F.,.F.,(4,4),(0.,0.565685425),.UNSPECIFIED.);
#1238=EDGE_CURVE('NONE',#228,#1021,#1237,.T.);
#1239=ORIENTED_EDGE('',*,*,#1238,.F.);
#1240=ORIENTED_EDGE('',*,*,#233,.F.);
#1241=EDGE_LOOP('',(#1231,#1232,#1239,#1240));
#1242=FACE_BOUND('',#1241,.T.);
#1243=ADVANCED_FACE('NONE',(#1242),#1225,.F.);
#1244=CARTESIAN_POINT('',(148.45,133.828427125,79.19));
#1245=DIRECTION('',(0.,0.,-1.));
#1246=DIRECTION('',(-1.,0.,0.));
#1247=AXIS2_PLACEMENT_3D('',#1244,#1245,#1246);
#1248=CONICAL_SURFACE('',#1247,1.6,44.999999898);
#1249=ORIENTED_EDGE('',*,*,#1238,.T.);
#1250=ORIENTED_EDGE('',*,*,#1120,.F.);
#1251=CARTESIAN_POINT('',(150.05,133.828427125,79.19));
#1252=DIRECTION('',(0.707106781,-0.,-0.707106781));
#1253=VECTOR('',#1252,0.565685425);
#1254=LINE('',#1251,#1253);
#1255=EDGE_CURVE('NONE',#236,#434,#1254,.T.);
#1256=ORIENTED_EDGE('',*,*,#1255,.F.);
#1257=ORIENTED_EDGE('',*,*,#242,.F.);
#1258=EDGE_LOOP('',(#1249,#1250,#1256,#1257));
#1259=FACE_BOUND('',#1258,.T.);
#1260=ADVANCED_FACE('NONE',(#1259),#1248,.T.);
#1261=CARTESIAN_POINT('',(148.171572875,133.55,79.19));
#1262=DIRECTION('',(0.,0.,-1.));
#1263=DIRECTION('',(-1.,0.,0.));
#1264=AXIS2_PLACEMENT_3D('',#1261,#1262,#1263);
#1265=CONICAL_SURFACE('',#1264,1.6,44.999999898);
#1266=ORIENTED_EDGE('',*,*,#1230,.T.);
#1267=ORIENTED_EDGE('',*,*,#225,.F.);
#1268=CARTESIAN_POINT('',(148.171572875,131.55,78.79));
#1269=DIRECTION('',(0.,0.707106781,0.707106781));
#1270=VECTOR('',#1269,0.565685425);
#1271=LINE('',#1268,#1270);
#1272=EDGE_CURVE('NONE',#981,#211,#1271,.T.);
#1273=ORIENTED_EDGE('',*,*,#1272,.F.);
#1274=ORIENTED_EDGE('',*,*,#1192,.F.);
#1275=EDGE_LOOP('',(#1266,#1267,#1273,#1274));
#1276=FACE_BOUND('',#1275,.T.);
#1277=ADVANCED_FACE('NONE',(#1276),#1265,.T.);
#1278=CARTESIAN_POINT('',(150.45,133.,78.79));
#1279=DIRECTION('',(0.707106781,0.,0.707106781));
#1280=DIRECTION('',(0.,1.,0.));
#1281=AXIS2_PLACEMENT_3D('',#1278,#1279,#1280);
#1282=PLANE('',#1281);
#1283=ORIENTED_EDGE('',*,*,#1255,.T.);
#1284=ORIENTED_EDGE('',*,*,#513,.F.);
#1285=CARTESIAN_POINT('',(150.05,142.272059531,79.19));
#1286=CARTESIAN_POINT('',(150.183333333,142.272059531,79.056666667));
#1287=CARTESIAN_POINT('',(150.316666666,142.272059531,78.923333333));
#1288=CARTESIAN_POINT('',(150.449999999,142.272059531,78.79));
#1289=B_SPLINE_CURVE_WITH_KNOTS('',3,(#1285,#1286,#1287,#1288),.UNSPECIFIED.,.F.,.F.,(4,4),(0.,0.565685425),.UNSPECIFIED.);
#1290=EDGE_CURVE('NONE',#245,#502,#1289,.T.);
#1291=ORIENTED_EDGE('',*,*,#1290,.F.);
#1292=ORIENTED_EDGE('',*,*,#250,.F.);
#1293=EDGE_LOOP('',(#1283,#1284,#1291,#1292));
#1294=FACE_BOUND('',#1293,.T.);
#1295=ADVANCED_FACE('NONE',(#1294),#1282,.T.);
#1296=CARTESIAN_POINT('',(149.,131.55,78.79));
#1297=DIRECTION('',(0.,0.707106781,-0.707106781));
#1298=DIRECTION('',(-1.,0.,0.));
#1299=AXIS2_PLACEMENT_3D('',#1296,#1297,#1298);
#1300=PLANE('',#1299);
#1301=ORIENTED_EDGE('',*,*,#1272,.T.);
#1302=ORIENTED_EDGE('',*,*,#216,.F.);
#1303=CARTESIAN_POINT('',(147.828427125,131.550000001,78.789999999));
#1304=DIRECTION('',(-0.,0.70710678,0.707106782));
#1305=VECTOR('',#1304,0.565685425);
#1306=LINE('',#1303,#1305);
#1307=EDGE_CURVE('NONE',#963,#202,#1306,.T.);
#1308=ORIENTED_EDGE('',*,*,#1307,.F.);
#1309=ORIENTED_EDGE('',*,*,#992,.F.);
#1310=EDGE_LOOP('',(#1301,#1302,#1308,#1309));
#1311=FACE_BOUND('',#1310,.T.);
#1312=ADVANCED_FACE('NONE',(#1311),#1300,.F.);
#1313=CARTESIAN_POINT('',(148.45,142.272059531,79.19));
#1314=DIRECTION('',(0.,0.,-1.));
#1315=DIRECTION('',(-1.,0.,0.));
#1316=AXIS2_PLACEMENT_3D('',#1313,#1314,#1315);
#1317=CONICAL_SURFACE('',#1316,1.6,44.999999898);
#1318=ORIENTED_EDGE('',*,*,#1290,.T.);
#1319=ORIENTED_EDGE('',*,*,#1160,.F.);
#1320=CARTESIAN_POINT('',(149.675671109,143.300519707,79.19));
#1321=DIRECTION('',(0.54167522,0.454519478,-0.707106781));
#1322=VECTOR('',#1321,0.565685425);
#1323=LINE('',#1320,#1322);
#1324=EDGE_CURVE('NONE',#253,#933,#1323,.T.);
#1325=ORIENTED_EDGE('',*,*,#1324,.F.);
#1326=ORIENTED_EDGE('',*,*,#259,.F.);
#1327=EDGE_LOOP('',(#1318,#1319,#1325,#1326));
#1328=FACE_BOUND('',#1327,.T.);
#1329=ADVANCED_FACE('NONE',(#1328),#1317,.T.);
#1330=CARTESIAN_POINT('',(147.828427125,133.55,79.19));
#1331=DIRECTION('',(0.,0.,-1.));
#1332=DIRECTION('',(-1.,0.,0.));
#1333=AXIS2_PLACEMENT_3D('',#1330,#1331,#1332);
#1334=CONICAL_SURFACE('',#1333,1.6,44.999999898);
#1335=ORIENTED_EDGE('',*,*,#1307,.T.);
#1336=ORIENTED_EDGE('',*,*,#208,.F.);
#1337=CARTESIAN_POINT('',(146.414213562,132.135786438,78.79));
#1338=DIRECTION('',(0.5,0.5,0.707106781));
#1339=VECTOR('',#1338,0.565685425);
#1340=LINE('',#1337,#1339);
#1341=EDGE_CURVE('NONE',#1061,#194,#1340,.T.);
#1342=ORIENTED_EDGE('',*,*,#1341,.F.);
#1343=ORIENTED_EDGE('',*,*,#1216,.F.);
#1344=EDGE_LOOP('',(#1335,#1336,#1342,#1343));
#1345=FACE_BOUND('',#1344,.T.);
#1346=ADVANCED_FACE('NONE',(#1345),#1334,.T.);
#1347=CARTESIAN_POINT('',(150.45,143.,78.79));
#1348=DIRECTION('',(-0.54167522,-0.454519478,-0.707106781));
#1349=DIRECTION('',(0.64278761,-0.766044443,0.));
#1350=AXIS2_PLACEMENT_3D('',#1347,#1348,#1349);
#1351=PLANE('',#1350);
#1352=ORIENTED_EDGE('',*,*,#1324,.T.);
#1353=ORIENTED_EDGE('',*,*,#938,.F.);
#1354=CARTESIAN_POINT('',(149.00482749,144.1,79.19));
#1355=DIRECTION('',(0.313145613,0.671542934,-0.671542934));
#1356=VECTOR('',#1355,0.595643226);
#1357=LINE('',#1354,#1356);
#1358=EDGE_CURVE('NONE',#262,#879,#1357,.T.);
#1359=ORIENTED_EDGE('',*,*,#1358,.F.);
#1360=ORIENTED_EDGE('',*,*,#267,.F.);
#1361=EDGE_LOOP('',(#1352,#1353,#1359,#1360));
#1362=FACE_BOUND('',#1361,.T.);
#1363=ADVANCED_FACE('NONE',(#1362),#1351,.F.);
#1364=CARTESIAN_POINT('',(147.,131.55,78.79));
#1365=DIRECTION('',(0.5,0.5,-0.707106781));
#1366=DIRECTION('',(-0.707106781,0.707106781,0.));
#1367=AXIS2_PLACEMENT_3D('',#1364,#1365,#1366);
#1368=PLANE('',#1367);
#1369=ORIENTED_EDGE('',*,*,#1341,.T.);
#1370=ORIENTED_EDGE('',*,*,#199,.F.);
#1371=CARTESIAN_POINT('',(146.135786438,132.414213563,78.789999999));
#1372=DIRECTION('',(0.499999999,0.499999999,0.707106782));
#1373=VECTOR('',#1372,0.565685425);
#1374=LINE('',#1371,#1373);
#1375=EDGE_CURVE('NONE',#1043,#185,#1374,.T.);
#1376=ORIENTED_EDGE('',*,*,#1375,.F.);
#1377=ORIENTED_EDGE('',*,*,#1072,.F.);
#1378=EDGE_LOOP('',(#1369,#1370,#1376,#1377));
#1379=FACE_BOUND('',#1378,.T.);
#1380=ADVANCED_FACE('NONE',(#1379),#1368,.F.);
#1381=CARTESIAN_POINT('',(148.,144.1,79.19));
#1382=DIRECTION('',(0.,0.707106781,0.707106781));
#1383=DIRECTION('',(1.,0.,0.));
#1384=AXIS2_PLACEMENT_3D('',#1381,#1382,#1383);
#1385=PLANE('',#1384);
#1386=ORIENTED_EDGE('',*,*,#1358,.T.);
#1387=ORIENTED_EDGE('',*,*,#884,.F.);
#1388=CARTESIAN_POINT('',(146.995172511,144.1,79.189999999));
#1389=DIRECTION('',(-0.313145613,0.671542934,-0.671542934));
#1390=VECTOR('',#1389,0.595643227);
#1391=LINE('',#1388,#1390);
#1392=EDGE_CURVE('NONE',#158,#871,#1391,.T.);
#1393=ORIENTED_EDGE('',*,*,#1392,.F.);
#1394=ORIENTED_EDGE('',*,*,#273,.F.);
#1395=EDGE_LOOP('',(#1386,#1387,#1393,#1394));
#1396=FACE_BOUND('',#1395,.T.);
#1397=ADVANCED_FACE('NONE',(#1396),#1385,.T.);
#1398=CARTESIAN_POINT('',(147.55,133.828427125,79.19));
#1399=DIRECTION('',(0.,0.,-1.));
#1400=DIRECTION('',(-1.,0.,0.));
#1401=AXIS2_PLACEMENT_3D('',#1398,#1399,#1400);
#1402=CONICAL_SURFACE('',#1401,1.6,44.999999898);
#1403=ORIENTED_EDGE('',*,*,#1375,.T.);
#1404=ORIENTED_EDGE('',*,*,#191,.F.);
#1405=CARTESIAN_POINT('',(145.55,133.828427125,78.79));
#1406=DIRECTION('',(0.707106781,0.,0.707106781));
#1407=VECTOR('',#1406,0.565685425);
#1408=LINE('',#1405,#1407);
#1409=EDGE_CURVE('NONE',#542,#177,#1408,.T.);
#1410=ORIENTED_EDGE('',*,*,#1409,.F.);
#1411=ORIENTED_EDGE('',*,*,#1096,.F.);
#1412=EDGE_LOOP('',(#1403,#1404,#1410,#1411));
#1413=FACE_BOUND('',#1412,.T.);
#1414=ADVANCED_FACE('NONE',(#1413),#1402,.T.);
#1415=CARTESIAN_POINT('',(145.55,143.,78.79));
#1416=DIRECTION('',(0.54167522,-0.454519478,-0.707106781));
#1417=DIRECTION('',(0.64278761,0.766044443,-0.));
#1418=AXIS2_PLACEMENT_3D('',#1415,#1416,#1417);
#1419=PLANE('',#1418);
#1420=ORIENTED_EDGE('',*,*,#1392,.T.);
#1421=ORIENTED_EDGE('',*,*,#914,.F.);
#1422=CARTESIAN_POINT('',(146.324328891,143.300519707,79.19));
#1423=CARTESIAN_POINT('',(146.222189633,143.386224721,79.056666667));
#1424=CARTESIAN_POINT('',(146.120050374,143.471929736,78.923333333));
#1425=CARTESIAN_POINT('',(146.017911115,143.55763475,78.79));
#1426=B_SPLINE_CURVE_WITH_KNOTS('',3,(#1422,#1423,#1424,#1425),.UNSPECIFIED.,.F.,.F.,(4,4),(0.,0.565685425),.UNSPECIFIED.);
#1427=EDGE_CURVE('NONE',#160,#903,#1426,.T.);
#1428=ORIENTED_EDGE('',*,*,#1427,.F.);
#1429=ORIENTED_EDGE('',*,*,#165,.F.);
#1430=EDGE_LOOP('',(#1420,#1421,#1428,#1429));
#1431=FACE_BOUND('',#1430,.T.);
#1432=ADVANCED_FACE('NONE',(#1431),#1419,.F.);
#1433=CARTESIAN_POINT('',(145.55,133.,78.79));
#1434=DIRECTION('',(-0.707106781,0.,0.707106781));
#1435=DIRECTION('',(0.,-1.,0.));
#1436=AXIS2_PLACEMENT_3D('',#1433,#1434,#1435);
#1437=PLANE('',#1436);
#1438=ORIENTED_EDGE('',*,*,#1409,.T.);
#1439=ORIENTED_EDGE('',*,*,#182,.F.);
#1440=CARTESIAN_POINT('',(145.55,142.272059531,78.789999999));
#1441=DIRECTION('',(0.70710678,-0.,0.707106782));
#1442=VECTOR('',#1441,0.565685426);
#1443=LINE('',#1440,#1442);
#1444=EDGE_CURVE('NONE',#550,#168,#1443,.T.);
#1445=ORIENTED_EDGE('',*,*,#1444,.F.);
#1446=ORIENTED_EDGE('',*,*,#555,.F.);
#1447=EDGE_LOOP('',(#1438,#1439,#1445,#1446));
#1448=FACE_BOUND('',#1447,.T.);
#1449=ADVANCED_FACE('NONE',(#1448),#1437,.T.);
#1450=CARTESIAN_POINT('',(147.55,142.272059531,79.19));
#1451=DIRECTION('',(0.,0.,-1.));
#1452=DIRECTION('',(-1.,0.,0.));
#1453=AXIS2_PLACEMENT_3D('',#1450,#1451,#1452);
#1454=CONICAL_SURFACE('',#1453,1.6,44.999999898);
#1455=ORIENTED_EDGE('',*,*,#1427,.T.);
#1456=ORIENTED_EDGE('',*,*,#1136,.F.);
#1457=ORIENTED_EDGE('',*,*,#1444,.T.);
#1458=ORIENTED_EDGE('',*,*,#174,.F.);
#1459=EDGE_LOOP('',(#1455,#1456,#1457,#1458));
#1460=FACE_BOUND('',#1459,.T.);
#1461=ADVANCED_FACE('NONE',(#1460),#1454,.T.);
#1462=CARTESIAN_POINT('',(145.95,130.55,74.24));
#1463=DIRECTION('',(-0.707106781,0.,-0.707106781));
#1464=DIRECTION('',(0.,-1.,0.));
#1465=AXIS2_PLACEMENT_3D('',#1462,#1463,#1464);
#1466=PLANE('',#1465);
#1467=ORIENTED_EDGE('',*,*,#705,.F.);
#1468=ORIENTED_EDGE('',*,*,#603,.F.);
#1469=ORIENTED_EDGE('',*,*,#813,.F.);
#1470=ORIENTED_EDGE('',*,*,#391,.F.);
#1471=EDGE_LOOP('',(#1467,#1468,#1469,#1470));
#1472=FACE_BOUND('',#1471,.T.);
#1473=ADVANCED_FACE('NONE',(#1472),#1466,.T.);
#1474=CARTESIAN_POINT('',(150.05,130.55,74.24));
#1475=DIRECTION('',(0.707106781,0.,-0.707106781));
#1476=DIRECTION('',(0.,1.,0.));
#1477=AXIS2_PLACEMENT_3D('',#1474,#1475,#1476);
#1478=PLANE('',#1477);
#1479=ORIENTED_EDGE('',*,*,#849,.F.);
#1480=ORIENTED_EDGE('',*,*,#465,.F.);
#1481=ORIENTED_EDGE('',*,*,#712,.F.);
#1482=ORIENTED_EDGE('',*,*,#423,.F.);
#1483=EDGE_LOOP('',(#1479,#1480,#1481,#1482));
#1484=FACE_BOUND('',#1483,.T.);
#1485=ADVANCED_FACE('NONE',(#1484),#1478,.T.);
#1486=CARTESIAN_POINT('',(139.,144.5,68.8));
#1487=DIRECTION('',(0.,0.,1.));
#1488=DIRECTION('',(0.,1.,0.));
#1489=AXIS2_PLACEMENT_3D('',#1486,#1487,#1488);
#1490=PLANE('',#1489);
#1491=ORIENTED_EDGE('',*,*,#868,.T.);
#1492=ORIENTED_EDGE('',*,*,#952,.T.);
#1493=ORIENTED_EDGE('',*,*,#1168,.T.);
#1494=ORIENTED_EDGE('',*,*,#499,.T.);
#1495=ORIENTED_EDGE('',*,*,#789,.T.);
#1496=ORIENTED_EDGE('',*,*,#643,.T.);
#1497=ORIENTED_EDGE('',*,*,#765,.T.);
#1498=ORIENTED_EDGE('',*,*,#571,.T.);
#1499=ORIENTED_EDGE('',*,*,#1144,.T.);
#1500=ORIENTED_EDGE('',*,*,#921,.T.);
#1501=EDGE_LOOP('',(#1491,#1492,#1493,#1494,#1495,#1496,#1497,#1498,#1499,#1500));
#1502=FACE_BOUND('',#1501,.T.);
#1503=ADVANCED_FACE('NONE',(#1502),#1490,.F.);
#1504=CARTESIAN_POINT('',(150.25,130.55,74.24));
#1505=DIRECTION('',(0.707106781,0.,-0.707106781));
#1506=DIRECTION('',(0.,1.,0.));
#1507=AXIS2_PLACEMENT_3D('',#1504,#1505,#1506);
#1508=PLANE('',#1507);
#1509=ORIENTED_EDGE('',*,*,#719,.F.);
#1510=ORIENTED_EDGE('',*,*,#449,.F.);
#1511=CARTESIAN_POINT('',(150.25,133.828427125,74.24));
#1512=CARTESIAN_POINT('',(150.316666666,133.828427125,74.306666667));
#1513=CARTESIAN_POINT('',(150.383333333,133.828427125,74.373333333));
#1514=CARTESIAN_POINT('',(150.449999999,133.828427125,74.44));
#1515=B_SPLINE_CURVE_WITH_KNOTS('',3,(#1511,#1512,#1513,#1514),.UNSPECIFIED.,.F.,.F.,(4,4),(0.,0.282842712),.UNSPECIFIED.);
#1516=EDGE_CURVE('NONE',#311,#436,#1515,.T.);
#1517=ORIENTED_EDGE('',*,*,#1516,.F.);
#1518=ORIENTED_EDGE('',*,*,#316,.F.);
#1519=ORIENTED_EDGE('',*,*,#674,.F.);
#1520=ORIENTED_EDGE('',*,*,#741,.F.);
#1521=EDGE_LOOP('',(#1509,#1510,#1517,#1518,#1519,#1520));
#1522=FACE_BOUND('',#1521,.T.);
#1523=ADVANCED_FACE('NONE',(#1522),#1508,.T.);
#1524=CARTESIAN_POINT('',(148.45,133.828427125,74.24));
#1525=DIRECTION('',(0.,0.,1.));
#1526=DIRECTION('',(1.,0.,-0.));
#1527=AXIS2_PLACEMENT_3D('',#1524,#1525,#1526);
#1528=CONICAL_SURFACE('',#1527,1.8,44.999999898);
#1529=ORIENTED_EDGE('',*,*,#1516,.T.);
#1530=ORIENTED_EDGE('',*,*,#1112,.F.);
#1531=CARTESIAN_POINT('',(149.722792206,132.555634919,74.24));
#1532=DIRECTION('',(0.5,-0.5,0.707106781));
#1533=VECTOR('',#1532,0.282842713);
#1534=LINE('',#1531,#1533);
#1535=EDGE_CURVE('NONE',#319,#1013,#1534,.T.);
#1536=ORIENTED_EDGE('',*,*,#1535,.F.);
#1537=ORIENTED_EDGE('',*,*,#325,.F.);
#1538=EDGE_LOOP('',(#1529,#1530,#1536,#1537));
#1539=FACE_BOUND('',#1538,.T.);
#1540=ADVANCED_FACE('NONE',(#1539),#1528,.T.);
#1541=CARTESIAN_POINT('',(152.758578644,135.591421356,74.24));
#1542=DIRECTION('',(-0.5,0.5,0.707106781));
#1543=DIRECTION('',(-0.707106781,-0.707106781,0.));
#1544=AXIS2_PLACEMENT_3D('',#1541,#1542,#1543);
#1545=PLANE('',#1544);
#1546=ORIENTED_EDGE('',*,*,#1535,.T.);
#1547=ORIENTED_EDGE('',*,*,#1018,.F.);
#1548=CARTESIAN_POINT('',(149.444365081,132.277207794,74.24));
#1549=CARTESIAN_POINT('',(149.491505533,132.230067342,74.306666667));
#1550=CARTESIAN_POINT('',(149.538645985,132.18292689,74.373333333));
#1551=CARTESIAN_POINT('',(149.585786437,132.135786438,74.44));
#1552=B_SPLINE_CURVE_WITH_KNOTS('',3,(#1548,#1549,#1550,#1551),.UNSPECIFIED.,.F.,.F.,(4,4),(0.,0.282842713),.UNSPECIFIED.);
#1553=EDGE_CURVE('NONE',#328,#1005,#1552,.T.);
#1554=ORIENTED_EDGE('',*,*,#1553,.F.);
#1555=ORIENTED_EDGE('',*,*,#333,.F.);
#1556=EDGE_LOOP('',(#1546,#1547,#1554,#1555));
#1557=FACE_BOUND('',#1556,.T.);
#1558=ADVANCED_FACE('NONE',(#1557),#1545,.F.);
#1559=CARTESIAN_POINT('',(148.171572875,133.55,74.24));
#1560=DIRECTION('',(0.,0.,1.));
#1561=DIRECTION('',(1.,0.,-0.));
#1562=AXIS2_PLACEMENT_3D('',#1559,#1560,#1561);
#1563=CONICAL_SURFACE('',#1562,1.8,44.999999898);
#1564=ORIENTED_EDGE('',*,*,#1553,.T.);
#1565=ORIENTED_EDGE('',*,*,#1184,.F.);
#1566=CARTESIAN_POINT('',(148.171572875,131.75,74.24));
#1567=DIRECTION('',(0.,-0.707106781,0.707106781));
#1568=VECTOR('',#1567,0.282842712);
#1569=LINE('',#1566,#1568);
#1570=EDGE_CURVE('NONE',#336,#973,#1569,.T.);
#1571=ORIENTED_EDGE('',*,*,#1570,.F.);
#1572=ORIENTED_EDGE('',*,*,#342,.F.);
#1573=EDGE_LOOP('',(#1564,#1565,#1571,#1572));
#1574=FACE_BOUND('',#1573,.T.);
#1575=ADVANCED_FACE('NONE',(#1574),#1563,.T.);
#1576=CARTESIAN_POINT('',(157.8,131.75,74.24));
#1577=DIRECTION('',(0.,0.707106781,0.707106781));
#1578=DIRECTION('',(-1.,0.,0.));
#1579=AXIS2_PLACEMENT_3D('',#1576,#1577,#1578);
#1580=PLANE('',#1579);
#1581=ORIENTED_EDGE('',*,*,#1570,.T.);
#1582=ORIENTED_EDGE('',*,*,#978,.F.);
#1583=CARTESIAN_POINT('',(147.828427125,131.75,74.24));
#1584=CARTESIAN_POINT('',(147.828427125,131.683333334,74.306666667));
#1585=CARTESIAN_POINT('',(147.828427125,131.616666667,74.373333333));
#1586=CARTESIAN_POINT('',(147.828427125,131.550000001,74.44));
#1587=B_SPLINE_CURVE_WITH_KNOTS('',3,(#1583,#1584,#1585,#1586),.UNSPECIFIED.,.F.,.F.,(4,4),(0.,0.282842712),.UNSPECIFIED.);
#1588=EDGE_CURVE('NONE',#345,#965,#1587,.T.);
#1589=ORIENTED_EDGE('',*,*,#1588,.F.);
#1590=ORIENTED_EDGE('',*,*,#350,.F.);
#1591=EDGE_LOOP('',(#1581,#1582,#1589,#1590));
#1592=FACE_BOUND('',#1591,.T.);
#1593=ADVANCED_FACE('NONE',(#1592),#1580,.F.);
#1594=CARTESIAN_POINT('',(147.828427125,133.55,74.24));
#1595=DIRECTION('',(0.,0.,1.));
#1596=DIRECTION('',(1.,0.,-0.));
#1597=AXIS2_PLACEMENT_3D('',#1594,#1595,#1596);
#1598=CONICAL_SURFACE('',#1597,1.8,44.999999898);
#1599=ORIENTED_EDGE('',*,*,#1588,.T.);
#1600=ORIENTED_EDGE('',*,*,#1208,.F.);
#1601=CARTESIAN_POINT('',(146.555634919,132.277207794,74.24));
#1602=DIRECTION('',(-0.5,-0.5,0.707106781));
#1603=VECTOR('',#1602,0.282842713);
#1604=LINE('',#1601,#1603);
#1605=EDGE_CURVE('NONE',#353,#1053,#1604,.T.);
#1606=ORIENTED_EDGE('',*,*,#1605,.F.);
#1607=ORIENTED_EDGE('',*,*,#359,.F.);
#1608=EDGE_LOOP('',(#1599,#1600,#1606,#1607));
#1609=FACE_BOUND('',#1608,.T.);
#1610=ADVANCED_FACE('NONE',(#1609),#1598,.T.);
#1611=CARTESIAN_POINT('',(153.041421356,125.791421356,74.24));
#1612=DIRECTION('',(0.5,0.5,0.707106781));
#1613=DIRECTION('',(-0.707106781,0.707106781,0.));
#1614=AXIS2_PLACEMENT_3D('',#1611,#1612,#1613);
#1615=PLANE('',#1614);
#1616=ORIENTED_EDGE('',*,*,#1605,.T.);
#1617=ORIENTED_EDGE('',*,*,#1058,.F.);
#1618=CARTESIAN_POINT('',(146.277207794,132.555634919,74.24));
#1619=CARTESIAN_POINT('',(146.230067342,132.508494467,74.306666667));
#1620=CARTESIAN_POINT('',(146.18292689,132.461354015,74.373333333));
#1621=CARTESIAN_POINT('',(146.135786438,132.414213563,74.44));
#1622=B_SPLINE_CURVE_WITH_KNOTS('',3,(#1618,#1619,#1620,#1621),.UNSPECIFIED.,.F.,.F.,(4,4),(0.,0.282842713),.UNSPECIFIED.);
#1623=EDGE_CURVE('NONE',#284,#1045,#1622,.T.);
#1624=ORIENTED_EDGE('',*,*,#1623,.F.);
#1625=ORIENTED_EDGE('',*,*,#365,.F.);
#1626=EDGE_LOOP('',(#1616,#1617,#1624,#1625));
#1627=FACE_BOUND('',#1626,.T.);
#1628=ADVANCED_FACE('NONE',(#1627),#1615,.F.);
#1629=CARTESIAN_POINT('',(145.75,130.55,74.24));
#1630=DIRECTION('',(-0.707106781,0.,-0.707106781));
#1631=DIRECTION('',(0.,-1.,0.));
#1632=AXIS2_PLACEMENT_3D('',#1629,#1630,#1631);
#1633=PLANE('',#1632);
#1634=ORIENTED_EDGE('',*,*,#660,.F.);
#1635=ORIENTED_EDGE('',*,*,#300,.F.);
#1636=CARTESIAN_POINT('',(145.55,133.828427125,74.44));
#1637=DIRECTION('',(0.70710678,-0.,-0.707106782));
#1638=VECTOR('',#1637,0.282842713);
#1639=LINE('',#1636,#1638);
#1640=EDGE_CURVE('NONE',#534,#286,#1639,.T.);
#1641=ORIENTED_EDGE('',*,*,#1640,.F.);
#1642=ORIENTED_EDGE('',*,*,#539,.F.);
#1643=ORIENTED_EDGE('',*,*,#698,.F.);
#1644=ORIENTED_EDGE('',*,*,#734,.F.);
#1645=EDGE_LOOP('',(#1634,#1635,#1641,#1642,#1643,#1644));
#1646=FACE_BOUND('',#1645,.T.);
#1647=ADVANCED_FACE('NONE',(#1646),#1633,.T.);
#1648=CARTESIAN_POINT('',(147.55,133.828427125,74.24));
#1649=DIRECTION('',(0.,0.,1.));
#1650=DIRECTION('',(1.,0.,-0.));
#1651=AXIS2_PLACEMENT_3D('',#1648,#1649,#1650);
#1652=CONICAL_SURFACE('',#1651,1.8,44.999999898);
#1653=ORIENTED_EDGE('',*,*,#1623,.T.);
#1654=ORIENTED_EDGE('',*,*,#1088,.F.);
#1655=ORIENTED_EDGE('',*,*,#1640,.T.);
#1656=ORIENTED_EDGE('',*,*,#292,.F.);
#1657=EDGE_LOOP('',(#1653,#1654,#1655,#1656));
#1658=FACE_BOUND('',#1657,.T.);
#1659=ADVANCED_FACE('NONE',(#1658),#1652,.T.);
#1660=CLOSED_SHELL('',(#277,#369,#427,#517,#607,#647,#678,#723,#745,#769,#793,#817,#835,#854,#894,#925,#956,#996,#1036,#1076,#1100,#1124,#1148,#1172,#1196,#1220,
#1243,#1260,#1277,#1295,#1312,#1329,#1346,#1363,#1380,#1397,#1414,#1432,#1449,#1461,#1473,#1485,#1503,#1523,#1540,#1558,#1575,#1593,#1610,#1628,#1647,
#1659));
#1661=MANIFOLD_SOLID_BREP('\S\R\S\F\S\6\S\/\S\C\S\f2',#1660);
#1662=COLOUR_RGB('',0.792156875,0.819607854,0.933333337);
#1663=FILL_AREA_STYLE_COLOUR('',#1662);
#1664=FILL_AREA_STYLE('',(#1663));
#1665=SURFACE_STYLE_FILL_AREA(#1664);
#1666=SURFACE_SIDE_STYLE('',(#1665));
#1667=SURFACE_STYLE_USAGE(.BOTH.,#1666);
#1668=PRESENTATION_STYLE_ASSIGNMENT((#1667));
#151=STYLED_ITEM('',(#1668),#1661);
#132=SHAPE_REPRESENTATION('All-Purpose+Wall+Mount+Hook+Module.STEP',(#15),#130);
#133=ADVANCED_BREP_SHAPE_REPRESENTATION('All-Purpose+Wall+Mount+Hook+Module.STEP',(#1661),#130);
#1676=SHAPE_REPRESENTATION_RELATIONSHIP('','',#132,#133);
#1677=CARTESIAN_POINT('',(0.,0.,0.));
#1678=DIRECTION('',(0.,0.,1.));
#1679=DIRECTION('',(1.,0.,0.));
#1680=AXIS2_PLACEMENT_3D('',#1677,#1678,#1679);
#1682=MAPPED_ITEM('',#1681,#1680);
#1681=REPRESENTATION_MAP(#1680,#132);
#140=PRODUCT('All-Purpose+Wall+Mount+Hook+Module.STEP','All-Purpose+Wall+Mount+Hook+Module.STEP','',(#118));
#1683=PRODUCT_RELATED_PRODUCT_CATEGORY('part','',(#140));
#1684=PRODUCT_DEFINITION_FORMATION_WITH_SPECIFIED_SOURCE('','',#140,.NOT_KNOWN.);
#141=PRODUCT_DEFINITION('design','',#1684,#119);
#139=PRODUCT_DEFINITION_SHAPE('','',#141);
#1685=SHAPE_DEFINITION_REPRESENTATION(#139,#132);
#131=DRAUGHTING_MODEL('',(#1682),#130);
#63=SHAPE_REPRESENTATION('1 \X2\4E2AFF0853556B2179FB52A8\X0\20mm\X2\FF09\X0\.step',(#15,#104,#145),#61);
#1686=CARTESIAN_POINT('',(0.,0.,0.));
#1687=DIRECTION('',(0.,0.,1.));
#1688=DIRECTION('',(1.,0.,0.));
#1689=AXIS2_PLACEMENT_3D('',#1686,#1687,#1688);
#1691=MAPPED_ITEM('',#1690,#1689);
#1690=REPRESENTATION_MAP(#1689,#63);
#71=PRODUCT('1 \X2\4E2AFF0853556B2179FB52A8\X0\20mm\X2\FF09\X0\.step','1 \X2\4E2AFF0853556B2179FB52A8\X0\20mm\X2\FF09\X0\.step','',(#118));
#1692=PRODUCT_RELATED_PRODUCT_CATEGORY('part','',(#71));
#1693=PRODUCT_DEFINITION_FORMATION_WITH_SPECIFIED_SOURCE('','',#71,.NOT_KNOWN.);
#72=PRODUCT_DEFINITION('design','',#1693,#119);
#70=PRODUCT_DEFINITION_SHAPE('','',#72);
#1694=SHAPE_DEFINITION_REPRESENTATION(#70,#63);
#62=DRAUGHTING_MODEL('',(#1691),#61);
#35=SHAPE_REPRESENTATION('1 \X2\4E2AFF0853556B2179FB52A8\X0\20mm\X2\FF09\X0\.step',(#15,#76),#33);
#1695=CARTESIAN_POINT('',(0.,0.,0.));
#1696=DIRECTION('',(0.,0.,1.));
#1697=DIRECTION('',(1.,0.,0.));
#1698=AXIS2_PLACEMENT_3D('',#1695,#1696,#1697);
#1700=MAPPED_ITEM('',#1699,#1698);
#1699=REPRESENTATION_MAP(#1698,#35);
#43=PRODUCT('1 \X2\4E2AFF0853556B2179FB52A8\X0\20mm\X2\FF09\X0\.step','1 \X2\4E2AFF0853556B2179FB52A8\X0\20mm\X2\FF09\X0\.step','',(#118));
#1701=PRODUCT_RELATED_PRODUCT_CATEGORY('part','',(#43));
#1702=PRODUCT_DEFINITION_FORMATION_WITH_SPECIFIED_SOURCE('','',#43,.NOT_KNOWN.);
#44=PRODUCT_DEFINITION('design','',#1702,#119);
#42=PRODUCT_DEFINITION_SHAPE('','',#44);
#1703=SHAPE_DEFINITION_REPRESENTATION(#42,#35);
#34=DRAUGHTING_MODEL('',(#1700),#33);
#16=SHAPE_REPRESENTATION('root',(#15,#48),#10);
#1704=CARTESIAN_POINT('',(0.,0.,0.));
#1705=DIRECTION('',(0.,0.,1.));
#1706=DIRECTION('',(1.,0.,0.));
#1707=AXIS2_PLACEMENT_3D('',#1704,#1705,#1706);
#1709=MAPPED_ITEM('',#1708,#1707);
#1708=REPRESENTATION_MAP(#1707,#16);
#24=PRODUCT('root','root','',(#118));
#1710=PRODUCT_RELATED_PRODUCT_CATEGORY('part','',(#24));
#1711=PRODUCT_DEFINITION_FORMATION_WITH_SPECIFIED_SOURCE('','',#24,.NOT_KNOWN.);
#25=PRODUCT_DEFINITION('design','',#1711,#119);
#23=PRODUCT_DEFINITION_SHAPE('','',#25);
#1712=SHAPE_DEFINITION_REPRESENTATION(#23,#16);
#11=DRAUGHTING_MODEL('',(#1709),#10);
#1713=DESCRIPTIVE_REPRESENTATION_ITEM('KEY','/Users/ken/Library/Containers/com.shapr3d.shapr/Data/tmp/0A4F7539-5F9D-49D6-9E2F-AF68FDC78B80.tmp');
#1714=PROPERTY_DEFINITION('KEY','',#25);
#1715=REPRESENTATION('',(#1713),#10);
#1716=PROPERTY_DEFINITION_REPRESENTATION(#1714,#1715);
#1717=GENERAL_PROPERTY('','KEY','');
#1718=GENERAL_PROPERTY_ASSOCIATION('','',#1717,#1714);
#1=MECHANICAL_DESIGN_GEOMETRIC_PRESENTATION_REPRESENTATION('',(#151),#10);
ENDSEC;
END-ISO-10303-21;
