ISO-10303-21;
HEADER;

/* File generated by Shapr3D Version 5.1015.0.10234 */

FILE_DESCRIPTION(('HOOPS Exchange Step'),'2;1');

FILE_NAME('/Users/ken/Library/Containers/com.shapr3d.shapr/Data/tmp/export/temp_export',
'2026-08-23T16:21:49+08:00',
('ken'),
('Shapr3D Limited'),
'HOOPS Exchange 2025.7',
'Shapr3D',
'Authorized');

FILE_SCHEMA( ('AP242_MANAGED_MODEL_BASED_3D_ENGINEERING_MIM_LF {1 0 10303 442 1 1 4}') );

ENDSEC;

DATA;
#3=(NAMED_UNIT(*)PLANE_ANGLE_UNIT()SI_UNIT($,.RADIAN.));
#4=PLANE_ANGLE_MEASURE_WITH_UNIT(PLANE_ANGLE_MEASURE(0.0174532925),#3);
#5=(CONVERSION_BASED_UNIT('DEGREE',#4)NAMED_UNIT(#6)PLANE_ANGLE_UNIT());
#6=DIMENSIONAL_EXPONENTS(0.,0.,0.,0.,0.,0.,0.);
#7=(NAMED_UNIT(*)SI_UNIT($,.STERADIAN.)SOLID_ANGLE_UNIT());
#8=(LENGTH_UNIT()NAMED_UNIT(*)SI_UNIT(.MILLI.,.METRE.));
#9=UNCERTAINTY_MEASURE_WITH_UNIT(LENGTH_MEASURE(1.000000E-03),#8,'DISTANCE_ACCURACY_VALUE','Maximum Tolerance applied to model');
#10=(GEOMETRIC_REPRESENTATION_CONTEXT(3)GLOBAL_UNCERTAINTY_ASSIGNED_CONTEXT((#9))GLOBAL_UNIT_ASSIGNED_CONTEXT((#8,#5,#7))REPRESENTATION_CONTEXT('','root'));
#12=CARTESIAN_POINT('',(0.,0.,0.));
#13=DIRECTION('',(0.,0.,1.));
#14=DIRECTION('',(1.,0.,0.));
#15=AXIS2_PLACEMENT_3D('',#12,#13,#14);
#26=(NAMED_UNIT(*)PLANE_ANGLE_UNIT()SI_UNIT($,.RADIAN.));
#27=PLANE_ANGLE_MEASURE_WITH_UNIT(PLANE_ANGLE_MEASURE(0.0174532925),#26);
#28=(CONVERSION_BASED_UNIT('DEGREE',#27)NAMED_UNIT(#29)PLANE_ANGLE_UNIT());
#29=DIMENSIONAL_EXPONENTS(0.,0.,0.,0.,0.,0.,0.);
#30=(NAMED_UNIT(*)SI_UNIT($,.STERADIAN.)SOLID_ANGLE_UNIT());
#31=(LENGTH_UNIT()NAMED_UNIT(*)SI_UNIT(.MILLI.,.METRE.));
#32=UNCERTAINTY_MEASURE_WITH_UNIT(LENGTH_MEASURE(1.000000E-03),#31,'DISTANCE_ACCURACY_VALUE','Maximum Tolerance applied to model');
#33=(GEOMETRIC_REPRESENTATION_CONTEXT(3)GLOBAL_UNCERTAINTY_ASSIGNED_CONTEXT((#32))GLOBAL_UNIT_ASSIGNED_CONTEXT((#31,#28,#30))REPRESENTATION_CONTEXT('','1 \X2\4E2AFF0853556B2179FB52A8\X0\20mm\X2\FF09\X0\.step'));
#45=CARTESIAN_POINT('',(0.,0.,0.));
#46=DIRECTION('',(0.,0.,1.));
#47=DIRECTION('',(1.,0.,-0.));
#48=AXIS2_PLACEMENT_3D('',#45,#46,#47);
#49=ITEM_DEFINED_TRANSFORMATION('','',#48,#15);
#50=(REPRESENTATION_RELATIONSHIP('','',#35,#16)REPRESENTATION_RELATIONSHIP_WITH_TRANSFORMATION(#49)SHAPE_REPRESENTATION_RELATIONSHIP());
#51=NEXT_ASSEMBLY_USAGE_OCCURRENCE('1 \X2\4E2AFF0853556B2179FB52A8\X0\20mm\X2\FF09\X0\.step_1','1 \X2\4E2AFF0853556B2179FB52A8\X0\20mm\X2\FF09\X0\.step','1 \X2\4E2AFF0853556B2179FB52A8\X0\20mm\X2\FF09\X0\.step',#25,#44,$);
#52=PRODUCT_DEFINITION_SHAPE('','',#51);
#53=CONTEXT_DEPENDENT_SHAPE_REPRESENTATION(#50,#52);
#54=(NAMED_UNIT(*)PLANE_ANGLE_UNIT()SI_UNIT($,.RADIAN.));
#55=PLANE_ANGLE_MEASURE_WITH_UNIT(PLANE_ANGLE_MEASURE(0.0174532925),#54);
#56=(CONVERSION_BASED_UNIT('DEGREE',#55)NAMED_UNIT(#57)PLANE_ANGLE_UNIT());
#57=DIMENSIONAL_EXPONENTS(0.,0.,0.,0.,0.,0.,0.);
#58=(NAMED_UNIT(*)SI_UNIT($,.STERADIAN.)SOLID_ANGLE_UNIT());
#59=(LENGTH_UNIT()NAMED_UNIT(*)SI_UNIT(.MILLI.,.METRE.));
#60=UNCERTAINTY_MEASURE_WITH_UNIT(LENGTH_MEASURE(1.000000E-03),#59,'DISTANCE_ACCURACY_VALUE','Maximum Tolerance applied to model');
#61=(GEOMETRIC_REPRESENTATION_CONTEXT(3)GLOBAL_UNCERTAINTY_ASSIGNED_CONTEXT((#60))GLOBAL_UNIT_ASSIGNED_CONTEXT((#59,#56,#58))REPRESENTATION_CONTEXT('','\X2\5DF25BFC5165\X0\'));
#73=CARTESIAN_POINT('',(0.,0.,0.));
#74=DIRECTION('',(0.,0.,1.));
#75=DIRECTION('',(1.,0.,-0.));
#76=AXIS2_PLACEMENT_3D('',#73,#74,#75);
#77=ITEM_DEFINED_TRANSFORMATION('','',#76,#15);
#78=(REPRESENTATION_RELATIONSHIP('','',#63,#35)REPRESENTATION_RELATIONSHIP_WITH_TRANSFORMATION(#77)SHAPE_REPRESENTATION_RELATIONSHIP());
#79=NEXT_ASSEMBLY_USAGE_OCCURRENCE('\X2\5DF25BFC5165\X0\_2','\X2\5DF25BFC5165\X0\','\X2\5DF25BFC5165\X0\',#44,#72,$);
#80=PRODUCT_DEFINITION_SHAPE('','',#79);
#81=CONTEXT_DEPENDENT_SHAPE_REPRESENTATION(#78,#80);
#63=SHAPE_REPRESENTATION('\X2\5DF25BFC5165\X0\',(#15),#61);
#82=CARTESIAN_POINT('',(0.,0.,0.));
#83=DIRECTION('',(0.,0.,1.));
#84=DIRECTION('',(1.,0.,0.));
#85=AXIS2_PLACEMENT_3D('',#82,#83,#84);
#87=MAPPED_ITEM('',#86,#85);
#86=REPRESENTATION_MAP(#85,#63);
#88=APPLICATION_CONTEXT('Managed model based 3d engineering');
#89=APPLICATION_PROTOCOL_DEFINITION('international standard','ap242_managed_model_based_3d_engineering',2014,#88);
#90=PRODUCT_CONTEXT('',#88,'mechanical');
#91=PRODUCT_DEFINITION_CONTEXT('part definition',#88,'design');
#71=PRODUCT('\X2\5DF25BFC5165\X0\','\X2\5DF25BFC5165\X0\','',(#90));
#92=PRODUCT_RELATED_PRODUCT_CATEGORY('part','',(#71));
#93=PRODUCT_DEFINITION_FORMATION_WITH_SPECIFIED_SOURCE('','',#71,.NOT_KNOWN.);
#72=PRODUCT_DEFINITION('design','',#93,#91);
#70=PRODUCT_DEFINITION_SHAPE('','',#72);
#94=SHAPE_DEFINITION_REPRESENTATION(#70,#63);
#62=DRAUGHTING_MODEL('',(#87),#61);
#95=(NAMED_UNIT(*)PLANE_ANGLE_UNIT()SI_UNIT($,.RADIAN.));
#96=PLANE_ANGLE_MEASURE_WITH_UNIT(PLANE_ANGLE_MEASURE(0.0174532925),#95);
#97=(CONVERSION_BASED_UNIT('DEGREE',#96)NAMED_UNIT(#98)PLANE_ANGLE_UNIT());
#98=DIMENSIONAL_EXPONENTS(0.,0.,0.,0.,0.,0.,0.);
#99=(NAMED_UNIT(*)SI_UNIT($,.STERADIAN.)SOLID_ANGLE_UNIT());
#100=(LENGTH_UNIT()NAMED_UNIT(*)SI_UNIT(.MILLI.,.METRE.));
#101=UNCERTAINTY_MEASURE_WITH_UNIT(LENGTH_MEASURE(1.000000E-05),#100,'DISTANCE_ACCURACY_VALUE','Maximum Tolerance applied to model');
#102=(GEOMETRIC_REPRESENTATION_CONTEXT(3)GLOBAL_UNCERTAINTY_ASSIGNED_CONTEXT((#101))GLOBAL_UNIT_ASSIGNED_CONTEXT((#100,#97,#99))REPRESENTATION_CONTEXT('','All-Purpose+Wall+Mount+Hook+Module.STEP'));
#114=CARTESIAN_POINT('',(0.,0.,0.));
#115=DIRECTION('',(0.,0.,1.));
#116=DIRECTION('',(1.,0.,-0.));
#117=AXIS2_PLACEMENT_3D('',#114,#115,#116);
#118=ITEM_DEFINED_TRANSFORMATION('','',#117,#15);
#119=(REPRESENTATION_RELATIONSHIP('','',#104,#35)REPRESENTATION_RELATIONSHIP_WITH_TRANSFORMATION(#118)SHAPE_REPRESENTATION_RELATIONSHIP());
#120=NEXT_ASSEMBLY_USAGE_OCCURRENCE('All-Purpose+Wall+Mount+Hook+Module.STEP_3','All-Purpose+Wall+Mount+Hook+Module.STEP','All-Purpose+Wall+Mount+Hook+Module.STEP',#44,#113,$);
#121=PRODUCT_DEFINITION_SHAPE('','',#120);
#122=CONTEXT_DEPENDENT_SHAPE_REPRESENTATION(#119,#121);
#124=CARTESIAN_POINT('',(148.,133.,79.19));
#125=DIRECTION('',(0.,0.,-1.));
#126=DIRECTION('',(-1.,0.,0.));
#127=AXIS2_PLACEMENT_3D('',#124,#125,#126);
#128=PLANE('',#127);
#129=CARTESIAN_POINT('',(146.99517251,144.1,79.19));
#130=VERTEX_POINT('',#129);
#131=CARTESIAN_POINT('',(146.324328891,143.300519707,79.19));
#132=VERTEX_POINT('',#131);
#133=CARTESIAN_POINT('',(146.99517251,144.1,79.19));
#134=DIRECTION('',(-0.64278761,-0.766044443,0.));
#135=VECTOR('',#134,1.043647403);
#136=LINE('',#133,#135);
#137=EDGE_CURVE('NONE',#130,#132,#136,.T.);
#138=ORIENTED_EDGE('',*,*,#137,.T.);
#139=CARTESIAN_POINT('',(145.95,142.272059531,79.19));
#140=VERTEX_POINT('',#139);
#141=CARTESIAN_POINT('',(147.55,142.272059531,79.19));
#142=DIRECTION('',(-0.,-0.,1.));
#143=DIRECTION('',(-1.,0.,0.));
#144=AXIS2_PLACEMENT_3D('',#141,#142,#143);
#145=CIRCLE('',#144,1.6);
#146=EDGE_CURVE('NONE',#132,#140,#145,.T.);
#147=ORIENTED_EDGE('',*,*,#146,.T.);
#148=CARTESIAN_POINT('',(145.95,133.828427125,79.19));
#149=VERTEX_POINT('',#148);
#150=CARTESIAN_POINT('',(145.95,142.272059531,79.19));
#151=DIRECTION('',(-0.,-1.,-0.));
#152=VECTOR('',#151,8.443632406);
#153=LINE('',#150,#152);
#154=EDGE_CURVE('NONE',#140,#149,#153,.T.);
#155=ORIENTED_EDGE('',*,*,#154,.T.);
#156=CARTESIAN_POINT('',(146.41862915,132.697056275,79.19));
#157=VERTEX_POINT('',#156);
#158=CARTESIAN_POINT('',(147.55,133.828427125,79.19));
#159=DIRECTION('',(-0.,-0.,1.));
#160=DIRECTION('',(-1.,0.,0.));
#161=AXIS2_PLACEMENT_3D('',#158,#159,#160);
#162=CIRCLE('',#161,1.6);
#163=EDGE_CURVE('NONE',#149,#157,#162,.T.);
#164=ORIENTED_EDGE('',*,*,#163,.T.);
#165=CARTESIAN_POINT('',(146.697056275,132.41862915,79.19));
#166=VERTEX_POINT('',#165);
#167=CARTESIAN_POINT('',(146.41862915,132.697056275,79.19));
#168=DIRECTION('',(0.707106781,-0.707106781,0.));
#169=VECTOR('',#168,0.393755416);
#170=LINE('',#167,#169);
#171=EDGE_CURVE('NONE',#157,#166,#170,.T.);
#172=ORIENTED_EDGE('',*,*,#171,.T.);
#173=CARTESIAN_POINT('',(147.828427125,131.95,79.19));
#174=VERTEX_POINT('',#173);
#175=CARTESIAN_POINT('',(147.828427125,133.55,79.19));
#176=DIRECTION('',(-0.,-0.,1.));
#177=DIRECTION('',(-1.,0.,0.));
#178=AXIS2_PLACEMENT_3D('',#175,#176,#177);
#179=CIRCLE('',#178,1.6);
#180=EDGE_CURVE('NONE',#166,#174,#179,.T.);
#181=ORIENTED_EDGE('',*,*,#180,.T.);
#182=CARTESIAN_POINT('',(148.171572875,131.95,79.19));
#183=VERTEX_POINT('',#182);
#184=CARTESIAN_POINT('',(147.828427125,131.95,79.19));
#185=DIRECTION('',(1.,-0.,-0.));
#186=VECTOR('',#185,0.34314575);
#187=LINE('',#184,#186);
#188=EDGE_CURVE('NONE',#174,#183,#187,.T.);
#189=ORIENTED_EDGE('',*,*,#188,.T.);
#190=CARTESIAN_POINT('',(149.302943725,132.41862915,79.19));
#191=VERTEX_POINT('',#190);
#192=CARTESIAN_POINT('',(148.171572875,133.55,79.19));
#193=DIRECTION('',(-0.,-0.,1.));
#194=DIRECTION('',(-1.,0.,0.));
#195=AXIS2_PLACEMENT_3D('',#192,#193,#194);
#196=CIRCLE('',#195,1.6);
#197=EDGE_CURVE('NONE',#183,#191,#196,.T.);
#198=ORIENTED_EDGE('',*,*,#197,.T.);
#199=CARTESIAN_POINT('',(149.58137085,132.697056275,79.19));
#200=VERTEX_POINT('',#199);
#201=CARTESIAN_POINT('',(149.302943725,132.41862915,79.19));
#202=DIRECTION('',(0.707106781,0.707106781,0.));
#203=VECTOR('',#202,0.393755416);
#204=LINE('',#201,#203);
#205=EDGE_CURVE('NONE',#191,#200,#204,.T.);
#206=ORIENTED_EDGE('',*,*,#205,.T.);
#207=CARTESIAN_POINT('',(150.05,133.828427125,79.19));
#208=VERTEX_POINT('',#207);
#209=CARTESIAN_POINT('',(148.45,133.828427125,79.19));
#210=DIRECTION('',(-0.,-0.,1.));
#211=DIRECTION('',(-1.,0.,0.));
#212=AXIS2_PLACEMENT_3D('',#209,#210,#211);
#213=CIRCLE('',#212,1.6);
#214=EDGE_CURVE('NONE',#200,#208,#213,.T.);
#215=ORIENTED_EDGE('',*,*,#214,.T.);
#216=CARTESIAN_POINT('',(150.05,142.272059531,79.19));
#217=VERTEX_POINT('',#216);
#218=CARTESIAN_POINT('',(150.05,133.828427125,79.19));
#219=DIRECTION('',(0.,1.,0.));
#220=VECTOR('',#219,8.443632406);
#221=LINE('',#218,#220);
#222=EDGE_CURVE('NONE',#208,#217,#221,.T.);
#223=ORIENTED_EDGE('',*,*,#222,.T.);
#224=CARTESIAN_POINT('',(149.675671109,143.300519707,79.19));
#225=VERTEX_POINT('',#224);
#226=CARTESIAN_POINT('',(148.45,142.272059531,79.19));
#227=DIRECTION('',(-0.,-0.,1.));
#228=DIRECTION('',(-1.,0.,0.));
#229=AXIS2_PLACEMENT_3D('',#226,#227,#228);
#230=CIRCLE('',#229,1.6);
#231=EDGE_CURVE('NONE',#217,#225,#230,.T.);
#232=ORIENTED_EDGE('',*,*,#231,.T.);
#233=CARTESIAN_POINT('',(149.00482749,144.1,79.19));
#234=VERTEX_POINT('',#233);
#235=CARTESIAN_POINT('',(149.675671109,143.300519707,79.19));
#236=DIRECTION('',(-0.64278761,0.766044443,0.));
#237=VECTOR('',#236,1.043647402);
#238=LINE('',#235,#237);
#239=EDGE_CURVE('NONE',#225,#234,#238,.T.);
#240=ORIENTED_EDGE('',*,*,#239,.T.);
#241=CARTESIAN_POINT('',(149.00482749,144.1,79.19));
#242=DIRECTION('',(-1.,0.,0.));
#243=VECTOR('',#242,2.00965498);
#244=LINE('',#241,#243);
#245=EDGE_CURVE('NONE',#234,#130,#244,.T.);
#246=ORIENTED_EDGE('',*,*,#245,.T.);
#247=EDGE_LOOP('',(#138,#147,#155,#164,#172,#181,#189,#198,#206,#215,#223,#232,#240,#246));
#248=FACE_BOUND('',#247,.T.);
#249=ADVANCED_FACE('NONE',(#248),#128,.F.);
#250=CARTESIAN_POINT('',(157.8,130.55,74.24));
#251=DIRECTION('',(0.,0.,1.));
#252=DIRECTION('',(1.,0.,0.));
#253=AXIS2_PLACEMENT_3D('',#250,#251,#252);
#254=PLANE('',#253);
#255=CARTESIAN_POINT('',(146.277207794,132.555634919,74.24));
#256=VERTEX_POINT('',#255);
#257=CARTESIAN_POINT('',(145.75,133.828427125,74.24));
#258=VERTEX_POINT('',#257);
#259=CARTESIAN_POINT('',(147.55,133.828427125,74.24));
#260=DIRECTION('',(-0.,-0.,-1.));
#261=DIRECTION('',(1.,0.,-0.));
#262=AXIS2_PLACEMENT_3D('',#259,#260,#261);
#263=CIRCLE('',#262,1.8);
#264=EDGE_CURVE('NONE',#256,#258,#263,.T.);
#265=ORIENTED_EDGE('',*,*,#264,.T.);
#266=CARTESIAN_POINT('',(145.75,134.,74.24));
#267=VERTEX_POINT('',#266);
#268=CARTESIAN_POINT('',(145.75,133.828427125,74.24));
#269=DIRECTION('',(0.,1.,0.));
#270=VECTOR('',#269,0.171572875);
#271=LINE('',#268,#270);
#272=EDGE_CURVE('NONE',#258,#267,#271,.T.);
#273=ORIENTED_EDGE('',*,*,#272,.T.);
#274=CARTESIAN_POINT('',(150.25,134.,74.24));
#275=VERTEX_POINT('',#274);
#276=CARTESIAN_POINT('',(150.25,134.,74.24));
#277=DIRECTION('',(-1.,0.,0.));
#278=VECTOR('',#277,4.5);
#279=LINE('',#276,#278);
#280=EDGE_CURVE('NONE',#275,#267,#279,.T.);
#281=ORIENTED_EDGE('',*,*,#280,.F.);
#282=CARTESIAN_POINT('',(150.25,133.828427125,74.24));
#283=VERTEX_POINT('',#282);
#284=CARTESIAN_POINT('',(150.25,134.,74.24));
#285=DIRECTION('',(-0.,-1.,-0.));
#286=VECTOR('',#285,0.171572875);
#287=LINE('',#284,#286);
#288=EDGE_CURVE('NONE',#275,#283,#287,.T.);
#289=ORIENTED_EDGE('',*,*,#288,.T.);
#290=CARTESIAN_POINT('',(149.722792206,132.555634919,74.24));
#291=VERTEX_POINT('',#290);
#292=CARTESIAN_POINT('',(148.45,133.828427125,74.24));
#293=DIRECTION('',(-0.,-0.,-1.));
#294=DIRECTION('',(1.,0.,-0.));
#295=AXIS2_PLACEMENT_3D('',#292,#293,#294);
#296=CIRCLE('',#295,1.8);
#297=EDGE_CURVE('NONE',#283,#291,#296,.T.);
#298=ORIENTED_EDGE('',*,*,#297,.T.);
#299=CARTESIAN_POINT('',(149.444365081,132.277207794,74.24));
#300=VERTEX_POINT('',#299);
#301=CARTESIAN_POINT('',(149.722792206,132.555634919,74.24));
#302=DIRECTION('',(-0.707106781,-0.707106781,0.));
#303=VECTOR('',#302,0.393755416);
#304=LINE('',#301,#303);
#305=EDGE_CURVE('NONE',#291,#300,#304,.T.);
#306=ORIENTED_EDGE('',*,*,#305,.T.);
#307=CARTESIAN_POINT('',(148.171572875,131.75,74.24));
#308=VERTEX_POINT('',#307);
#309=CARTESIAN_POINT('',(148.171572875,133.55,74.24));
#310=DIRECTION('',(-0.,-0.,-1.));
#311=DIRECTION('',(1.,0.,-0.));
#312=AXIS2_PLACEMENT_3D('',#309,#310,#311);
#313=CIRCLE('',#312,1.8);
#314=EDGE_CURVE('NONE',#300,#308,#313,.T.);
#315=ORIENTED_EDGE('',*,*,#314,.T.);
#316=CARTESIAN_POINT('',(147.828427125,131.75,74.24));
#317=VERTEX_POINT('',#316);
#318=CARTESIAN_POINT('',(148.171572875,131.75,74.24));
#319=DIRECTION('',(-1.,-0.,0.));
#320=VECTOR('',#319,0.34314575);
#321=LINE('',#318,#320);
#322=EDGE_CURVE('NONE',#308,#317,#321,.T.);
#323=ORIENTED_EDGE('',*,*,#322,.T.);
#324=CARTESIAN_POINT('',(146.555634919,132.277207794,74.24));
#325=VERTEX_POINT('',#324);
#326=CARTESIAN_POINT('',(147.828427125,133.55,74.24));
#327=DIRECTION('',(-0.,-0.,-1.));
#328=DIRECTION('',(1.,0.,-0.));
#329=AXIS2_PLACEMENT_3D('',#326,#327,#328);
#330=CIRCLE('',#329,1.8);
#331=EDGE_CURVE('NONE',#317,#325,#330,.T.);
#332=ORIENTED_EDGE('',*,*,#331,.T.);
#333=CARTESIAN_POINT('',(146.555634919,132.277207794,74.24));
#334=DIRECTION('',(-0.707106781,0.707106781,0.));
#335=VECTOR('',#334,0.393755416);
#336=LINE('',#333,#335);
#337=EDGE_CURVE('NONE',#325,#256,#336,.T.);
#338=ORIENTED_EDGE('',*,*,#337,.T.);
#339=EDGE_LOOP('',(#265,#273,#281,#289,#298,#306,#315,#323,#332,#338));
#340=FACE_BOUND('',#339,.T.);
#341=ADVANCED_FACE('NONE',(#340),#254,.F.);
#342=CARTESIAN_POINT('',(157.8,130.55,74.24));
#343=DIRECTION('',(0.,0.,1.));
#344=DIRECTION('',(1.,0.,0.));
#345=AXIS2_PLACEMENT_3D('',#342,#343,#344);
#346=PLANE('',#345);
#347=CARTESIAN_POINT('',(145.95,136.,74.24));
#348=VERTEX_POINT('',#347);
#349=CARTESIAN_POINT('',(150.05,136.,74.24));
#350=VERTEX_POINT('',#349);
#351=CARTESIAN_POINT('',(145.95,136.,74.24));
#352=DIRECTION('',(1.,-0.,-0.));
#353=VECTOR('',#352,4.1);
#354=LINE('',#351,#353);
#355=EDGE_CURVE('NONE',#348,#350,#354,.T.);
#356=ORIENTED_EDGE('',*,*,#355,.F.);
#357=CARTESIAN_POINT('',(145.95,138.661145618,74.24));
#358=VERTEX_POINT('',#357);
#359=CARTESIAN_POINT('',(145.95,136.,74.24));
#360=DIRECTION('',(0.,1.,0.));
#361=VECTOR('',#360,2.661145618);
#362=LINE('',#359,#361);
#363=EDGE_CURVE('NONE',#348,#358,#362,.T.);
#364=ORIENTED_EDGE('',*,*,#363,.T.);
#365=CARTESIAN_POINT('',(147.55,138.05,74.24));
#366=VERTEX_POINT('',#365);
#367=CARTESIAN_POINT('',(147.55,140.45,74.24));
#368=DIRECTION('',(0.,0.,1.));
#369=DIRECTION('',(1.,0.,-0.));
#370=AXIS2_PLACEMENT_3D('',#367,#368,#369);
#371=CIRCLE('',#370,2.4);
#372=EDGE_CURVE('NONE',#358,#366,#371,.T.);
#373=ORIENTED_EDGE('',*,*,#372,.T.);
#374=CARTESIAN_POINT('',(148.45,138.05,74.24));
#375=VERTEX_POINT('',#374);
#376=CARTESIAN_POINT('',(147.55,138.05,74.24));
#377=DIRECTION('',(1.,0.,-0.));
#378=VECTOR('',#377,0.9);
#379=LINE('',#376,#378);
#380=EDGE_CURVE('NONE',#366,#375,#379,.T.);
#381=ORIENTED_EDGE('',*,*,#380,.T.);
#382=CARTESIAN_POINT('',(150.05,138.661145618,74.24));
#383=VERTEX_POINT('',#382);
#384=CARTESIAN_POINT('',(148.45,140.45,74.24));
#385=DIRECTION('',(0.,0.,1.));
#386=DIRECTION('',(1.,0.,-0.));
#387=AXIS2_PLACEMENT_3D('',#384,#385,#386);
#388=CIRCLE('',#387,2.4);
#389=EDGE_CURVE('NONE',#375,#383,#388,.T.);
#390=ORIENTED_EDGE('',*,*,#389,.T.);
#391=CARTESIAN_POINT('',(150.05,138.661145618,74.24));
#392=DIRECTION('',(-0.,-1.,-0.));
#393=VECTOR('',#392,2.661145618);
#394=LINE('',#391,#393);
#395=EDGE_CURVE('NONE',#383,#350,#394,.T.);
#396=ORIENTED_EDGE('',*,*,#395,.T.);
#397=EDGE_LOOP('',(#356,#364,#373,#381,#390,#396));
#398=FACE_BOUND('',#397,.T.);
#399=ADVANCED_FACE('NONE',(#398),#346,.F.);
#400=CARTESIAN_POINT('',(150.45,133.,79.19));
#401=DIRECTION('',(1.,0.,0.));
#402=DIRECTION('',(0.,0.,-1.));
#403=AXIS2_PLACEMENT_3D('',#400,#401,#402);
#404=PLANE('',#403);
#405=CARTESIAN_POINT('',(150.45,133.828427125,78.79));
#406=VERTEX_POINT('',#405);
#407=CARTESIAN_POINT('',(150.45,133.828427125,74.44));
#408=VERTEX_POINT('',#407);
#409=CARTESIAN_POINT('',(150.45,133.828427125,78.79));
#410=DIRECTION('',(0.,0.,-1.));
#411=VECTOR('',#410,4.35);
#412=LINE('',#409,#411);
#413=EDGE_CURVE('NONE',#406,#408,#412,.T.);
#414=ORIENTED_EDGE('',*,*,#413,.T.);
#415=CARTESIAN_POINT('',(150.45,136.2,74.44));
#416=VERTEX_POINT('',#415);
#417=CARTESIAN_POINT('',(150.45,133.828427125,74.44));
#418=DIRECTION('',(0.,1.,0.));
#419=VECTOR('',#418,2.371572875);
#420=LINE('',#417,#419);
#421=EDGE_CURVE('NONE',#408,#416,#420,.T.);
#422=ORIENTED_EDGE('',*,*,#421,.T.);
#423=CARTESIAN_POINT('',(150.45,136.4,74.64));
#424=VERTEX_POINT('',#423);
#425=CARTESIAN_POINT('',(150.45,136.2,74.44));
#426=DIRECTION('',(0.,0.707106781,0.707106781));
#427=VECTOR('',#426,0.282842712);
#428=LINE('',#425,#427);
#429=EDGE_CURVE('NONE',#416,#424,#428,.T.);
#430=ORIENTED_EDGE('',*,*,#429,.T.);
#431=CARTESIAN_POINT('',(150.45,138.490408207,74.64));
#432=VERTEX_POINT('',#431);
#433=CARTESIAN_POINT('',(150.45,136.4,74.64));
#434=DIRECTION('',(0.,1.,0.));
#435=VECTOR('',#434,2.090408207);
#436=LINE('',#433,#435);
#437=EDGE_CURVE('NONE',#424,#432,#436,.T.);
#438=ORIENTED_EDGE('',*,*,#437,.T.);
#439=CARTESIAN_POINT('',(150.45,140.45,73.84));
#440=VERTEX_POINT('',#439);
#441=CARTESIAN_POINT('',(150.45,138.490408206,74.64));
#442=CARTESIAN_POINT('',(150.45,138.637282308,74.537209541));
#443=CARTESIAN_POINT('',(150.45,138.786295192,74.438680009));
#444=CARTESIAN_POINT('',(150.45,138.93865698,74.346822236));
#445=CARTESIAN_POINT('',(150.45,139.091018769,74.254964464));
#446=CARTESIAN_POINT('',(150.45,139.246693739,74.169707284));
#447=CARTESIAN_POINT('',(150.45,139.407794227,74.095258937));
#448=CARTESIAN_POINT('',(150.45,139.568894715,74.02081059));
#449=CARTESIAN_POINT('',(150.45,139.73536568,73.957061425));
#450=CARTESIAN_POINT('',(150.45,139.910906587,73.911381592));
#451=CARTESIAN_POINT('',(150.45,140.086447494,73.865701759));
#452=CARTESIAN_POINT('',(150.45,140.26740043,73.839999999));
#453=CARTESIAN_POINT('',(150.45,140.45,73.839999999));
#454=B_SPLINE_CURVE_WITH_KNOTS('',3,(#441,#442,#443,#444,#445,#446,#447,#448,#449,#450,#451,#452,#453),.UNSPECIFIED.,.F.,.F.,(4,3,3,3,4),(0.,0.000532135,0.001064269,0.001596404,0.002128539),.UNSPECIFIED.);
#455=EDGE_CURVE('NONE',#432,#440,#454,.T.);
#456=ORIENTED_EDGE('',*,*,#455,.T.);
#457=CARTESIAN_POINT('',(150.45,140.45,72.5));
#458=VERTEX_POINT('',#457);
#459=CARTESIAN_POINT('',(150.45,140.45,73.84));
#460=DIRECTION('',(0.,0.,-1.));
#461=VECTOR('',#460,1.34);
#462=LINE('',#459,#461);
#463=EDGE_CURVE('NONE',#440,#458,#462,.T.);
#464=ORIENTED_EDGE('',*,*,#463,.T.);
#465=CARTESIAN_POINT('',(150.45,142.272059531,72.5));
#466=VERTEX_POINT('',#465);
#467=CARTESIAN_POINT('',(150.45,142.272059531,72.5));
#468=DIRECTION('',(-0.,-1.,-0.));
#469=VECTOR('',#468,1.822059531);
#470=LINE('',#467,#469);
#471=EDGE_CURVE('NONE',#466,#458,#470,.T.);
#472=ORIENTED_EDGE('',*,*,#471,.F.);
#473=CARTESIAN_POINT('',(150.45,142.272059531,78.79));
#474=VERTEX_POINT('',#473);
#475=CARTESIAN_POINT('',(150.45,142.272059531,72.5));
#476=DIRECTION('',(-0.,-0.,1.));
#477=VECTOR('',#476,6.29);
#478=LINE('',#475,#477);
#479=EDGE_CURVE('NONE',#466,#474,#478,.T.);
#480=ORIENTED_EDGE('',*,*,#479,.T.);
#481=CARTESIAN_POINT('',(150.45,142.272059531,78.79));
#482=DIRECTION('',(-0.,-1.,-0.));
#483=VECTOR('',#482,8.443632406);
#484=LINE('',#481,#483);
#485=EDGE_CURVE('NONE',#474,#406,#484,.T.);
#486=ORIENTED_EDGE('',*,*,#485,.T.);
#487=EDGE_LOOP('',(#414,#422,#430,#438,#456,#464,#472,#480,#486));
#488=FACE_BOUND('',#487,.T.);
#489=ADVANCED_FACE('NONE',(#488),#404,.T.);
#490=CARTESIAN_POINT('',(145.55,133.,79.19));
#491=DIRECTION('',(-1.,0.,0.));
#492=DIRECTION('',(0.,0.,1.));
#493=AXIS2_PLACEMENT_3D('',#490,#491,#492);
#494=PLANE('',#493);
#495=CARTESIAN_POINT('',(145.55,136.4,74.64));
#496=VERTEX_POINT('',#495);
#497=CARTESIAN_POINT('',(145.55,136.2,74.44));
#498=VERTEX_POINT('',#497);
#499=CARTESIAN_POINT('',(145.55,136.4,74.64));
#500=DIRECTION('',(0.,-0.707106781,-0.707106781));
#501=VECTOR('',#500,0.282842712);
#502=LINE('',#499,#501);
#503=EDGE_CURVE('NONE',#496,#498,#502,.T.);
#504=ORIENTED_EDGE('',*,*,#503,.T.);
#505=CARTESIAN_POINT('',(145.55,133.828427125,74.44));
#506=VERTEX_POINT('',#505);
#507=CARTESIAN_POINT('',(145.55,136.2,74.44));
#508=DIRECTION('',(-0.,-1.,-0.));
#509=VECTOR('',#508,2.371572875);
#510=LINE('',#507,#509);
#511=EDGE_CURVE('NONE',#498,#506,#510,.T.);
#512=ORIENTED_EDGE('',*,*,#511,.T.);
#513=CARTESIAN_POINT('',(145.55,133.828427125,78.79));
#514=VERTEX_POINT('',#513);
#515=CARTESIAN_POINT('',(145.55,133.828427125,74.44));
#516=DIRECTION('',(0.,0.,1.));
#517=VECTOR('',#516,4.35);
#518=LINE('',#515,#517);
#519=EDGE_CURVE('NONE',#506,#514,#518,.T.);
#520=ORIENTED_EDGE('',*,*,#519,.T.);
#521=CARTESIAN_POINT('',(145.55,142.272059531,78.79));
#522=VERTEX_POINT('',#521);
#523=CARTESIAN_POINT('',(145.55,133.828427125,78.79));
#524=DIRECTION('',(0.,1.,0.));
#525=VECTOR('',#524,8.443632406);
#526=LINE('',#523,#525);
#527=EDGE_CURVE('NONE',#514,#522,#526,.T.);
#528=ORIENTED_EDGE('',*,*,#527,.T.);
#529=CARTESIAN_POINT('',(145.55,142.272059531,72.5));
#530=VERTEX_POINT('',#529);
#531=CARTESIAN_POINT('',(145.55,142.272059531,78.79));
#532=DIRECTION('',(-0.,-0.,-1.));
#533=VECTOR('',#532,6.29);
#534=LINE('',#531,#533);
#535=EDGE_CURVE('NONE',#522,#530,#534,.T.);
#536=ORIENTED_EDGE('',*,*,#535,.T.);
#537=CARTESIAN_POINT('',(145.55,140.45,72.5));
#538=VERTEX_POINT('',#537);
#539=CARTESIAN_POINT('',(145.55,140.45,72.5));
#540=DIRECTION('',(0.,1.,0.));
#541=VECTOR('',#540,1.822059531);
#542=LINE('',#539,#541);
#543=EDGE_CURVE('NONE',#538,#530,#542,.T.);
#544=ORIENTED_EDGE('',*,*,#543,.F.);
#545=CARTESIAN_POINT('',(145.55,140.45,73.84));
#546=VERTEX_POINT('',#545);
#547=CARTESIAN_POINT('',(145.55,140.45,72.5));
#548=DIRECTION('',(0.,0.,1.));
#549=VECTOR('',#548,1.34);
#550=LINE('',#547,#549);
#551=EDGE_CURVE('NONE',#538,#546,#550,.T.);
#552=ORIENTED_EDGE('',*,*,#551,.T.);
#553=CARTESIAN_POINT('',(145.55,138.490408207,74.64));
#554=VERTEX_POINT('',#553);
#555=CARTESIAN_POINT('',(145.55,140.45,73.839999999));
#556=CARTESIAN_POINT('',(145.55,140.268446574,73.839999999));
#557=CARTESIAN_POINT('',(145.55,140.091233454,73.864982767));
#558=CARTESIAN_POINT('',(145.55,139.917446939,73.909689045));
#559=CARTESIAN_POINT('',(145.55,139.743660425,73.954395322));
#560=CARTESIAN_POINT('',(145.55,139.573452487,74.018897481));
#561=CARTESIAN_POINT('',(145.55,139.411165398,74.093703026));
#562=CARTESIAN_POINT('',(145.55,139.248878308,74.168508572));
#563=CARTESIAN_POINT('',(145.55,139.092467629,74.254127541));
#564=CARTESIAN_POINT('',(145.55,138.939594919,74.346256872));
#565=CARTESIAN_POINT('',(145.55,138.78672221,74.438386203));
#566=CARTESIAN_POINT('',(145.55,138.637430795,74.537105622));
#567=CARTESIAN_POINT('',(145.55,138.490408206,74.64));
#568=B_SPLINE_CURVE_WITH_KNOTS('',3,(#555,#556,#557,#558,#559,#560,#561,#562,#563,#564,#565,#566,#567),.UNSPECIFIED.,.F.,.F.,(4,3,3,3,4),(0.,0.000536622,0.001073244,0.001609866,0.002146488),.UNSPECIFIED.);
#569=EDGE_CURVE('NONE',#546,#554,#568,.T.);
#570=ORIENTED_EDGE('',*,*,#569,.T.);
#571=CARTESIAN_POINT('',(145.55,138.490408207,74.64));
#572=DIRECTION('',(-0.,-1.,-0.));
#573=VECTOR('',#572,2.090408207);
#574=LINE('',#571,#573);
#575=EDGE_CURVE('NONE',#554,#496,#574,.T.);
#576=ORIENTED_EDGE('',*,*,#575,.T.);
#577=EDGE_LOOP('',(#504,#512,#520,#528,#536,#544,#552,#570,#576));
#578=FACE_BOUND('',#577,.T.);
#579=ADVANCED_FACE('NONE',(#578),#494,.T.);
#580=CARTESIAN_POINT('',(157.8,138.45,69.19));
#581=DIRECTION('',(0.,1.,0.));
#582=DIRECTION('',(0.,0.,-1.));
#583=AXIS2_PLACEMENT_3D('',#580,#581,#582);
#584=PLANE('',#583);
#585=CARTESIAN_POINT('',(148.45,138.45,72.5));
#586=VERTEX_POINT('',#585);
#587=CARTESIAN_POINT('',(148.45,138.45,73.84));
#588=VERTEX_POINT('',#587);
#589=CARTESIAN_POINT('',(148.45,138.45,72.5));
#590=DIRECTION('',(-0.,-0.,1.));
#591=VECTOR('',#590,1.34);
#592=LINE('',#589,#591);
#593=EDGE_CURVE('NONE',#586,#588,#592,.T.);
#594=ORIENTED_EDGE('',*,*,#593,.T.);
#595=CARTESIAN_POINT('',(147.55,138.45,73.84));
#596=VERTEX_POINT('',#595);
#597=CARTESIAN_POINT('',(148.45,138.45,73.84));
#598=DIRECTION('',(-1.,0.,0.));
#599=VECTOR('',#598,0.9);
#600=LINE('',#597,#599);
#601=EDGE_CURVE('NONE',#588,#596,#600,.T.);
#602=ORIENTED_EDGE('',*,*,#601,.T.);
#603=CARTESIAN_POINT('',(147.55,138.45,72.5));
#604=VERTEX_POINT('',#603);
#605=CARTESIAN_POINT('',(147.55,138.45,73.84));
#606=DIRECTION('',(0.,0.,-1.));
#607=VECTOR('',#606,1.34);
#608=LINE('',#605,#607);
#609=EDGE_CURVE('NONE',#596,#604,#608,.T.);
#610=ORIENTED_EDGE('',*,*,#609,.T.);
#611=CARTESIAN_POINT('',(148.45,138.45,72.5));
#612=DIRECTION('',(-1.,0.,0.));
#613=VECTOR('',#612,0.9);
#614=LINE('',#611,#613);
#615=EDGE_CURVE('NONE',#586,#604,#614,.T.);
#616=ORIENTED_EDGE('',*,*,#615,.F.);
#617=EDGE_LOOP('',(#594,#602,#610,#616));
#618=FACE_BOUND('',#617,.T.);
#619=ADVANCED_FACE('NONE',(#618),#584,.F.);
#620=CARTESIAN_POINT('',(145.55,134.,74.24));
#621=DIRECTION('',(0.,-0.707106781,-0.707106781));
#622=DIRECTION('',(0.,-0.707106781,0.707106781));
#623=AXIS2_PLACEMENT_3D('',#620,#621,#622);
#624=PLANE('',#623);
#625=ORIENTED_EDGE('',*,*,#280,.T.);
#626=CARTESIAN_POINT('',(146.05,134.3,73.94));
#627=VERTEX_POINT('',#626);
#628=CARTESIAN_POINT('',(145.75,134.,74.24));
#629=DIRECTION('',(0.577350269,0.577350269,-0.577350269));
#630=VECTOR('',#629,0.519615242);
#631=LINE('',#628,#630);
#632=EDGE_CURVE('NONE',#267,#627,#631,.T.);
#633=ORIENTED_EDGE('',*,*,#632,.T.);
#634=CARTESIAN_POINT('',(149.95,134.3,73.94));
#635=VERTEX_POINT('',#634);
#636=CARTESIAN_POINT('',(149.95,134.3,73.94));
#637=DIRECTION('',(-1.,0.,0.));
#638=VECTOR('',#637,3.9);
#639=LINE('',#636,#638);
#640=EDGE_CURVE('NONE',#635,#627,#639,.T.);
#641=ORIENTED_EDGE('',*,*,#640,.F.);
#642=CARTESIAN_POINT('',(149.95,134.3,73.94));
#643=DIRECTION('',(0.577350269,-0.577350269,0.577350269));
#644=VECTOR('',#643,0.519615242);
#645=LINE('',#642,#644);
#646=EDGE_CURVE('NONE',#635,#275,#645,.T.);
#647=ORIENTED_EDGE('',*,*,#646,.T.);
#648=EDGE_LOOP('',(#625,#633,#641,#647));
#649=FACE_BOUND('',#648,.T.);
#650=ADVANCED_FACE('NONE',(#649),#624,.T.);
#651=CARTESIAN_POINT('',(145.55,136.,74.24));
#652=DIRECTION('',(0.,0.707106781,-0.707106781));
#653=DIRECTION('',(0.,-0.707106781,-0.707106781));
#654=AXIS2_PLACEMENT_3D('',#651,#652,#653);
#655=PLANE('',#654);
#656=CARTESIAN_POINT('',(146.05,135.7,73.94));
#657=VERTEX_POINT('',#656);
#658=CARTESIAN_POINT('',(149.95,135.7,73.94));
#659=VERTEX_POINT('',#658);
#660=CARTESIAN_POINT('',(146.05,135.7,73.94));
#661=DIRECTION('',(1.,-0.,-0.));
#662=VECTOR('',#661,3.9);
#663=LINE('',#660,#662);
#664=EDGE_CURVE('NONE',#657,#659,#663,.T.);
#665=ORIENTED_EDGE('',*,*,#664,.F.);
#666=CARTESIAN_POINT('',(146.05,135.7,73.94));
#667=DIRECTION('',(-0.577350269,0.577350269,0.577350269));
#668=VECTOR('',#667,0.866025404);
#669=LINE('',#666,#668);
#670=EDGE_CURVE('NONE',#657,#498,#669,.T.);
#671=ORIENTED_EDGE('',*,*,#670,.T.);
#672=ORIENTED_EDGE('',*,*,#503,.F.);
#673=CARTESIAN_POINT('',(145.55,136.4,74.64));
#674=DIRECTION('',(0.577350269,-0.577350269,-0.577350269));
#675=VECTOR('',#674,0.692820323);
#676=LINE('',#673,#675);
#677=EDGE_CURVE('NONE',#496,#348,#676,.T.);
#678=ORIENTED_EDGE('',*,*,#677,.T.);
#679=ORIENTED_EDGE('',*,*,#355,.T.);
#680=CARTESIAN_POINT('',(150.05,136.,74.24));
#681=DIRECTION('',(0.577350269,0.577350269,0.577350269));
#682=VECTOR('',#681,0.692820323);
#683=LINE('',#680,#682);
#684=EDGE_CURVE('NONE',#350,#424,#683,.T.);
#685=ORIENTED_EDGE('',*,*,#684,.T.);
#686=ORIENTED_EDGE('',*,*,#429,.F.);
#687=CARTESIAN_POINT('',(150.45,136.2,74.44));
#688=DIRECTION('',(-0.577350269,-0.577350269,-0.577350269));
#689=VECTOR('',#688,0.866025404);
#690=LINE('',#687,#689);
#691=EDGE_CURVE('NONE',#416,#659,#690,.T.);
#692=ORIENTED_EDGE('',*,*,#691,.T.);
#693=EDGE_LOOP('',(#665,#671,#672,#678,#679,#685,#686,#692));
#694=FACE_BOUND('',#693,.T.);
#695=ADVANCED_FACE('NONE',(#694),#655,.T.);
#696=CARTESIAN_POINT('',(128.,138.,73.94));
#697=DIRECTION('',(0.,0.,-1.));
#698=DIRECTION('',(-1.,0.,0.));
#699=AXIS2_PLACEMENT_3D('',#696,#697,#698);
#700=PLANE('',#699);
#701=ORIENTED_EDGE('',*,*,#640,.T.);
#702=CARTESIAN_POINT('',(146.05,134.3,73.94));
#703=DIRECTION('',(0.,1.,0.));
#704=VECTOR('',#703,1.4);
#705=LINE('',#702,#704);
#706=EDGE_CURVE('NONE',#627,#657,#705,.T.);
#707=ORIENTED_EDGE('',*,*,#706,.T.);
#708=ORIENTED_EDGE('',*,*,#664,.T.);
#709=CARTESIAN_POINT('',(149.95,135.7,73.94));
#710=DIRECTION('',(-0.,-1.,-0.));
#711=VECTOR('',#710,1.4);
#712=LINE('',#709,#711);
#713=EDGE_CURVE('NONE',#659,#635,#712,.T.);
#714=ORIENTED_EDGE('',*,*,#713,.T.);
#715=EDGE_LOOP('',(#701,#707,#708,#714));
#716=FACE_BOUND('',#715,.T.);
#717=ADVANCED_FACE('NONE',(#716),#700,.T.);
#718=CARTESIAN_POINT('',(147.55,140.45,69.19));
#719=DIRECTION('',(0.,0.,1.));
#720=DIRECTION('',(1.,0.,-0.));
#721=AXIS2_PLACEMENT_3D('',#718,#719,#720);
#722=CYLINDRICAL_SURFACE('',#721,2.);
#723=ORIENTED_EDGE('',*,*,#609,.F.);
#724=CARTESIAN_POINT('',(147.55,140.45,73.84));
#725=DIRECTION('',(-0.,-0.,-1.));
#726=DIRECTION('',(1.,0.,-0.));
#727=AXIS2_PLACEMENT_3D('',#724,#725,#726);
#728=CIRCLE('',#727,2.);
#729=EDGE_CURVE('NONE',#596,#546,#728,.T.);
#730=ORIENTED_EDGE('',*,*,#729,.T.);
#731=ORIENTED_EDGE('',*,*,#551,.F.);
#732=CARTESIAN_POINT('',(147.55,140.45,72.5));
#733=DIRECTION('',(-0.,-0.,-1.));
#734=DIRECTION('',(1.,0.,-0.));
#735=AXIS2_PLACEMENT_3D('',#732,#733,#734);
#736=CIRCLE('',#735,2.);
#737=EDGE_CURVE('NONE',#604,#538,#736,.T.);
#738=ORIENTED_EDGE('',*,*,#737,.F.);
#739=EDGE_LOOP('',(#723,#730,#731,#738));
#740=FACE_BOUND('',#739,.T.);
#741=ADVANCED_FACE('NONE',(#740),#722,.T.);
#742=CARTESIAN_POINT('',(148.45,140.45,69.19));
#743=DIRECTION('',(0.,0.,-1.));
#744=DIRECTION('',(-1.,0.,0.));
#745=AXIS2_PLACEMENT_3D('',#742,#743,#744);
#746=CYLINDRICAL_SURFACE('',#745,2.);
#747=ORIENTED_EDGE('',*,*,#463,.F.);
#748=CARTESIAN_POINT('',(148.45,140.45,73.84));
#749=DIRECTION('',(0.,0.,-1.));
#750=DIRECTION('',(-1.,0.,0.));
#751=AXIS2_PLACEMENT_3D('',#748,#749,#750);
#752=CIRCLE('',#751,2.);
#753=EDGE_CURVE('NONE',#440,#588,#752,.T.);
#754=ORIENTED_EDGE('',*,*,#753,.T.);
#755=ORIENTED_EDGE('',*,*,#593,.F.);
#756=CARTESIAN_POINT('',(148.45,140.45,72.5));
#757=DIRECTION('',(0.,0.,-1.));
#758=DIRECTION('',(-1.,0.,0.));
#759=AXIS2_PLACEMENT_3D('',#756,#757,#758);
#760=CIRCLE('',#759,2.);
#761=EDGE_CURVE('NONE',#458,#586,#760,.T.);
#762=ORIENTED_EDGE('',*,*,#761,.F.);
#763=EDGE_LOOP('',(#747,#754,#755,#762));
#764=FACE_BOUND('',#763,.T.);
#765=ADVANCED_FACE('NONE',(#764),#746,.T.);
#766=CARTESIAN_POINT('',(147.55,140.45,74.24));
#767=DIRECTION('',(0.,0.,1.));
#768=DIRECTION('',(1.,0.,-0.));
#769=AXIS2_PLACEMENT_3D('',#766,#767,#768);
#770=CONICAL_SURFACE('',#769,2.4,44.999999949);
#771=ORIENTED_EDGE('',*,*,#569,.F.);
#772=ORIENTED_EDGE('',*,*,#729,.F.);
#773=CARTESIAN_POINT('',(147.55,138.05,74.24));
#774=DIRECTION('',(-0.,0.707106781,-0.707106781));
#775=VECTOR('',#774,0.565685425);
#776=LINE('',#773,#775);
#777=EDGE_CURVE('NONE',#366,#596,#776,.T.);
#778=ORIENTED_EDGE('',*,*,#777,.F.);
#779=ORIENTED_EDGE('',*,*,#372,.F.);
#780=CARTESIAN_POINT('',(145.95,138.661145618,74.24));
#781=CARTESIAN_POINT('',(145.817195817,138.601753782,74.372804183));
#782=CARTESIAN_POINT('',(145.683820075,138.545040023,74.506179925));
#783=CARTESIAN_POINT('',(145.55,138.490408207,74.64));
#784=B_SPLINE_CURVE_WITH_KNOTS('',3,(#780,#781,#782,#783),.UNSPECIFIED.,.F.,.F.,(4,4),(0.,0.00059089),.UNSPECIFIED.);
#785=EDGE_CURVE('NONE',#358,#554,#784,.T.);
#786=ORIENTED_EDGE('',*,*,#785,.T.);
#787=EDGE_LOOP('',(#771,#772,#778,#779,#786));
#788=FACE_BOUND('',#787,.T.);
#789=ADVANCED_FACE('NONE',(#788),#770,.T.);
#790=CARTESIAN_POINT('',(157.8,138.45,73.84));
#791=DIRECTION('',(0.,-0.707106781,-0.707106781));
#792=DIRECTION('',(1.,0.,0.));
#793=AXIS2_PLACEMENT_3D('',#790,#791,#792);
#794=PLANE('',#793);
#795=ORIENTED_EDGE('',*,*,#777,.T.);
#796=ORIENTED_EDGE('',*,*,#601,.F.);
#797=CARTESIAN_POINT('',(148.45,138.05,74.24));
#798=CARTESIAN_POINT('',(148.45,138.183333333,74.106666667));
#799=CARTESIAN_POINT('',(148.45,138.316666666,73.973333333));
#800=CARTESIAN_POINT('',(148.45,138.45,73.84));
#801=B_SPLINE_CURVE_WITH_KNOTS('',3,(#797,#798,#799,#800),.UNSPECIFIED.,.F.,.F.,(4,4),(0.,0.565685425),.UNSPECIFIED.);
#802=EDGE_CURVE('NONE',#375,#588,#801,.T.);
#803=ORIENTED_EDGE('',*,*,#802,.F.);
#804=ORIENTED_EDGE('',*,*,#380,.F.);
#805=EDGE_LOOP('',(#795,#796,#803,#804));
#806=FACE_BOUND('',#805,.T.);
#807=ADVANCED_FACE('NONE',(#806),#794,.T.);
#808=CARTESIAN_POINT('',(148.45,140.45,74.24));
#809=DIRECTION('',(0.,0.,1.));
#810=DIRECTION('',(1.,0.,-0.));
#811=AXIS2_PLACEMENT_3D('',#808,#809,#810);
#812=CONICAL_SURFACE('',#811,2.4,44.999999949);
#813=ORIENTED_EDGE('',*,*,#802,.T.);
#814=ORIENTED_EDGE('',*,*,#753,.F.);
#815=ORIENTED_EDGE('',*,*,#455,.F.);
#816=CARTESIAN_POINT('',(150.45,138.490408207,74.64));
#817=CARTESIAN_POINT('',(150.316179925,138.545040023,74.506179925));
#818=CARTESIAN_POINT('',(150.182804183,138.601753782,74.372804183));
#819=CARTESIAN_POINT('',(150.05,138.661145618,74.24));
#820=B_SPLINE_CURVE_WITH_KNOTS('',3,(#816,#817,#818,#819),.UNSPECIFIED.,.F.,.F.,(4,4),(0.,0.00059089),.UNSPECIFIED.);
#821=EDGE_CURVE('NONE',#432,#383,#820,.T.);
#822=ORIENTED_EDGE('',*,*,#821,.T.);
#823=ORIENTED_EDGE('',*,*,#389,.F.);
#824=EDGE_LOOP('',(#813,#814,#815,#822,#823));
#825=FACE_BOUND('',#824,.T.);
#826=ADVANCED_FACE('NONE',(#825),#812,.T.);
#827=CARTESIAN_POINT('',(143.,144.5,59.19));
#828=DIRECTION('',(0.,1.,0.));
#829=DIRECTION('',(0.,0.,-1.));
#830=AXIS2_PLACEMENT_3D('',#827,#828,#829);
#831=PLANE('',#830);
#832=CARTESIAN_POINT('',(146.808649447,144.5,72.5));
#833=VERTEX_POINT('',#832);
#834=CARTESIAN_POINT('',(149.191350553,144.5,72.5));
#835=VERTEX_POINT('',#834);
#836=CARTESIAN_POINT('',(146.808649447,144.5,72.5));
#837=DIRECTION('',(1.,-0.,-0.));
#838=VECTOR('',#837,2.382701106);
#839=LINE('',#836,#838);
#840=EDGE_CURVE('NONE',#833,#835,#839,.T.);
#841=ORIENTED_EDGE('',*,*,#840,.F.);
#842=CARTESIAN_POINT('',(146.808649447,144.5,78.789999999));
#843=VERTEX_POINT('',#842);
#844=CARTESIAN_POINT('',(146.808649447,144.5,72.5));
#845=DIRECTION('',(-0.,-0.,1.));
#846=VECTOR('',#845,6.289999999);
#847=LINE('',#844,#846);
#848=EDGE_CURVE('NONE',#833,#843,#847,.T.);
#849=ORIENTED_EDGE('',*,*,#848,.T.);
#850=CARTESIAN_POINT('',(149.191350553,144.5,78.79));
#851=VERTEX_POINT('',#850);
#852=CARTESIAN_POINT('',(146.808649447,144.5,78.79));
#853=DIRECTION('',(1.,-0.,-0.));
#854=VECTOR('',#853,2.382701105);
#855=LINE('',#852,#854);
#856=EDGE_CURVE('NONE',#843,#851,#855,.T.);
#857=ORIENTED_EDGE('',*,*,#856,.T.);
#858=CARTESIAN_POINT('',(149.191350553,144.5,72.5));
#859=DIRECTION('',(-0.,-0.,1.));
#860=VECTOR('',#859,6.29);
#861=LINE('',#858,#860);
#862=EDGE_CURVE('NONE',#835,#851,#861,.T.);
#863=ORIENTED_EDGE('',*,*,#862,.F.);
#864=EDGE_LOOP('',(#841,#849,#857,#863));
#865=FACE_BOUND('',#864,.T.);
#866=ADVANCED_FACE('NONE',(#865),#831,.T.);
#867=CARTESIAN_POINT('',(145.55,143.,63.711633455));
#868=DIRECTION('',(0.766044443,-0.64278761,0.));
#869=DIRECTION('',(-0.64278761,-0.766044443,0.));
#870=AXIS2_PLACEMENT_3D('',#867,#868,#869);
#871=PLANE('',#870);
#872=CARTESIAN_POINT('',(146.017911114,143.557634751,72.5));
#873=VERTEX_POINT('',#872);
#874=CARTESIAN_POINT('',(146.017911114,143.557634751,78.79));
#875=VERTEX_POINT('',#874);
#876=CARTESIAN_POINT('',(146.017911114,143.557634751,72.5));
#877=DIRECTION('',(-0.,-0.,1.));
#878=VECTOR('',#877,6.29);
#879=LINE('',#876,#878);
#880=EDGE_CURVE('NONE',#873,#875,#879,.T.);
#881=ORIENTED_EDGE('',*,*,#880,.T.);
#882=CARTESIAN_POINT('',(146.017911114,143.557634751,78.79));
#883=DIRECTION('',(0.64278761,0.766044443,-0.));
#884=VECTOR('',#883,1.230170466);
#885=LINE('',#882,#884);
#886=EDGE_CURVE('NONE',#875,#843,#885,.T.);
#887=ORIENTED_EDGE('',*,*,#886,.T.);
#888=ORIENTED_EDGE('',*,*,#848,.F.);
#889=CARTESIAN_POINT('',(146.017911114,143.557634751,72.5));
#890=DIRECTION('',(0.64278761,0.766044443,0.));
#891=VECTOR('',#890,1.230170466);
#892=LINE('',#889,#891);
#893=EDGE_CURVE('NONE',#873,#833,#892,.T.);
#894=ORIENTED_EDGE('',*,*,#893,.F.);
#895=EDGE_LOOP('',(#881,#887,#888,#894));
#896=FACE_BOUND('',#895,.T.);
#897=ADVANCED_FACE('NONE',(#896),#871,.F.);
#898=CARTESIAN_POINT('',(150.45,143.,63.711633455));
#899=DIRECTION('',(-0.766044443,-0.64278761,0.));
#900=DIRECTION('',(-0.64278761,0.766044443,0.));
#901=AXIS2_PLACEMENT_3D('',#898,#899,#900);
#902=PLANE('',#901);
#903=ORIENTED_EDGE('',*,*,#862,.T.);
#904=CARTESIAN_POINT('',(149.982088886,143.557634751,78.79));
#905=VERTEX_POINT('',#904);
#906=CARTESIAN_POINT('',(149.191350553,144.5,78.79));
#907=DIRECTION('',(0.64278761,-0.766044443,-0.));
#908=VECTOR('',#907,1.230170466);
#909=LINE('',#906,#908);
#910=EDGE_CURVE('NONE',#851,#905,#909,.T.);
#911=ORIENTED_EDGE('',*,*,#910,.T.);
#912=CARTESIAN_POINT('',(149.982088886,143.557634751,72.5));
#913=VERTEX_POINT('',#912);
#914=CARTESIAN_POINT('',(149.982088886,143.557634751,78.79));
#915=DIRECTION('',(0.,0.,-1.));
#916=VECTOR('',#915,6.29);
#917=LINE('',#914,#916);
#918=EDGE_CURVE('NONE',#905,#913,#917,.T.);
#919=ORIENTED_EDGE('',*,*,#918,.T.);
#920=CARTESIAN_POINT('',(149.191350553,144.5,72.5));
#921=DIRECTION('',(0.64278761,-0.766044443,0.));
#922=VECTOR('',#921,1.230170466);
#923=LINE('',#920,#922);
#924=EDGE_CURVE('NONE',#835,#913,#923,.T.);
#925=ORIENTED_EDGE('',*,*,#924,.F.);
#926=EDGE_LOOP('',(#903,#911,#919,#925));
#927=FACE_BOUND('',#926,.T.);
#928=ADVANCED_FACE('NONE',(#927),#902,.F.);
#929=CARTESIAN_POINT('',(149.,131.55,63.711633455));
#930=DIRECTION('',(0.,1.,0.));
#931=DIRECTION('',(0.,0.,-1.));
#932=AXIS2_PLACEMENT_3D('',#929,#930,#931);
#933=PLANE('',#932);
#934=CARTESIAN_POINT('',(147.828427125,131.55,78.79));
#935=VERTEX_POINT('',#934);
#936=CARTESIAN_POINT('',(147.828427125,131.55,74.44));
#937=VERTEX_POINT('',#936);
#938=CARTESIAN_POINT('',(147.828427125,131.55,78.79));
#939=DIRECTION('',(0.,0.,-1.));
#940=VECTOR('',#939,4.35);
#941=LINE('',#938,#940);
#942=EDGE_CURVE('NONE',#935,#937,#941,.T.);
#943=ORIENTED_EDGE('',*,*,#942,.T.);
#944=CARTESIAN_POINT('',(148.171572875,131.55,74.44));
#945=VERTEX_POINT('',#944);
#946=CARTESIAN_POINT('',(147.828427125,131.55,74.44));
#947=DIRECTION('',(1.,-0.,-0.));
#948=VECTOR('',#947,0.34314575);
#949=LINE('',#946,#948);
#950=EDGE_CURVE('NONE',#937,#945,#949,.T.);
#951=ORIENTED_EDGE('',*,*,#950,.T.);
#952=CARTESIAN_POINT('',(148.171572875,131.55,78.79));
#953=VERTEX_POINT('',#952);
#954=CARTESIAN_POINT('',(148.171572875,131.55,74.44));
#955=DIRECTION('',(-0.,-0.,1.));
#956=VECTOR('',#955,4.35);
#957=LINE('',#954,#956);
#958=EDGE_CURVE('NONE',#945,#953,#957,.T.);
#959=ORIENTED_EDGE('',*,*,#958,.T.);
#960=CARTESIAN_POINT('',(148.171572875,131.55,78.79));
#961=DIRECTION('',(-1.,0.,0.));
#962=VECTOR('',#961,0.34314575);
#963=LINE('',#960,#962);
#964=EDGE_CURVE('NONE',#953,#935,#963,.T.);
#965=ORIENTED_EDGE('',*,*,#964,.T.);
#966=EDGE_LOOP('',(#943,#951,#959,#965));
#967=FACE_BOUND('',#966,.T.);
#968=ADVANCED_FACE('NONE',(#967),#933,.F.);
#969=CARTESIAN_POINT('',(150.45,133.,63.711633455));
#970=DIRECTION('',(-0.707106781,0.707106781,0.));
#971=DIRECTION('',(0.707106781,0.707106781,0.));
#972=AXIS2_PLACEMENT_3D('',#969,#970,#971);
#973=PLANE('',#972);
#974=CARTESIAN_POINT('',(149.585786437,132.135786438,78.79));
#975=VERTEX_POINT('',#974);
#976=CARTESIAN_POINT('',(149.585786437,132.135786438,74.44));
#977=VERTEX_POINT('',#976);
#978=CARTESIAN_POINT('',(149.585786438,132.135786438,78.79));
#979=DIRECTION('',(0.,0.,-1.));
#980=VECTOR('',#979,4.35);
#981=LINE('',#978,#980);
#982=EDGE_CURVE('NONE',#975,#977,#981,.T.);
#983=ORIENTED_EDGE('',*,*,#982,.T.);
#984=CARTESIAN_POINT('',(149.864213562,132.414213562,74.44));
#985=VERTEX_POINT('',#984);
#986=CARTESIAN_POINT('',(149.585786438,132.135786438,74.44));
#987=DIRECTION('',(0.707106781,0.707106781,0.));
#988=VECTOR('',#987,0.393755416);
#989=LINE('',#986,#988);
#990=EDGE_CURVE('NONE',#977,#985,#989,.T.);
#991=ORIENTED_EDGE('',*,*,#990,.T.);
#992=CARTESIAN_POINT('',(149.864213562,132.414213563,78.79));
#993=VERTEX_POINT('',#992);
#994=CARTESIAN_POINT('',(149.864213562,132.414213562,74.44));
#995=DIRECTION('',(-0.,-0.,1.));
#996=VECTOR('',#995,4.35);
#997=LINE('',#994,#996);
#998=EDGE_CURVE('NONE',#985,#993,#997,.T.);
#999=ORIENTED_EDGE('',*,*,#998,.T.);
#1000=CARTESIAN_POINT('',(149.864213562,132.414213562,78.79));
#1001=DIRECTION('',(-0.707106781,-0.707106781,-0.));
#1002=VECTOR('',#1001,0.393755416);
#1003=LINE('',#1000,#1002);
#1004=EDGE_CURVE('NONE',#993,#975,#1003,.T.);
#1005=ORIENTED_EDGE('',*,*,#1004,.T.);
#1006=EDGE_LOOP('',(#983,#991,#999,#1005));
#1007=FACE_BOUND('',#1006,.T.);
#1008=ADVANCED_FACE('NONE',(#1007),#973,.F.);
#1009=CARTESIAN_POINT('',(147.,131.55,63.711633455));
#1010=DIRECTION('',(0.707106781,0.707106781,0.));
#1011=DIRECTION('',(0.707106781,-0.707106781,0.));
#1012=AXIS2_PLACEMENT_3D('',#1009,#1010,#1011);
#1013=PLANE('',#1012);
#1014=CARTESIAN_POINT('',(146.135786438,132.414213563,78.79));
#1015=VERTEX_POINT('',#1014);
#1016=CARTESIAN_POINT('',(146.135786438,132.414213563,74.44));
#1017=VERTEX_POINT('',#1016);
#1018=CARTESIAN_POINT('',(146.135786438,132.414213562,78.79));
#1019=DIRECTION('',(0.,0.,-1.));
#1020=VECTOR('',#1019,4.35);
#1021=LINE('',#1018,#1020);
#1022=EDGE_CURVE('NONE',#1015,#1017,#1021,.T.);
#1023=ORIENTED_EDGE('',*,*,#1022,.T.);
#1024=CARTESIAN_POINT('',(146.414213562,132.135786438,74.44));
#1025=VERTEX_POINT('',#1024);
#1026=CARTESIAN_POINT('',(146.135786438,132.414213562,74.44));
#1027=DIRECTION('',(0.707106781,-0.707106781,0.));
#1028=VECTOR('',#1027,0.393755416);
#1029=LINE('',#1026,#1028);
#1030=EDGE_CURVE('NONE',#1017,#1025,#1029,.T.);
#1031=ORIENTED_EDGE('',*,*,#1030,.T.);
#1032=CARTESIAN_POINT('',(146.414213562,132.135786438,78.79));
#1033=VERTEX_POINT('',#1032);
#1034=CARTESIAN_POINT('',(146.414213562,132.135786438,74.44));
#1035=DIRECTION('',(-0.,-0.,1.));
#1036=VECTOR('',#1035,4.35);
#1037=LINE('',#1034,#1036);
#1038=EDGE_CURVE('NONE',#1025,#1033,#1037,.T.);
#1039=ORIENTED_EDGE('',*,*,#1038,.T.);
#1040=CARTESIAN_POINT('',(146.414213562,132.135786438,78.79));
#1041=DIRECTION('',(-0.707106781,0.707106781,-0.));
#1042=VECTOR('',#1041,0.393755416);
#1043=LINE('',#1040,#1042);
#1044=EDGE_CURVE('NONE',#1033,#1015,#1043,.T.);
#1045=ORIENTED_EDGE('',*,*,#1044,.T.);
#1046=EDGE_LOOP('',(#1023,#1031,#1039,#1045));
#1047=FACE_BOUND('',#1046,.T.);
#1048=ADVANCED_FACE('NONE',(#1047),#1013,.F.);
#1049=CARTESIAN_POINT('',(147.55,133.828427125,63.711633455));
#1050=DIRECTION('',(0.,0.,1.));
#1051=DIRECTION('',(1.,0.,-0.));
#1052=AXIS2_PLACEMENT_3D('',#1049,#1050,#1051);
#1053=CYLINDRICAL_SURFACE('',#1052,2.);
#1054=ORIENTED_EDGE('',*,*,#519,.F.);
#1055=CARTESIAN_POINT('',(147.55,133.828427125,74.44));
#1056=DIRECTION('',(0.,0.,1.));
#1057=DIRECTION('',(1.,0.,-0.));
#1058=AXIS2_PLACEMENT_3D('',#1055,#1056,#1057);
#1059=CIRCLE('',#1058,2.);
#1060=EDGE_CURVE('NONE',#506,#1017,#1059,.T.);
#1061=ORIENTED_EDGE('',*,*,#1060,.T.);
#1062=ORIENTED_EDGE('',*,*,#1022,.F.);
#1063=CARTESIAN_POINT('',(147.55,133.828427125,78.79));
#1064=DIRECTION('',(-0.,-0.,-1.));
#1065=DIRECTION('',(1.,0.,-0.));
#1066=AXIS2_PLACEMENT_3D('',#1063,#1064,#1065);
#1067=CIRCLE('',#1066,2.);
#1068=EDGE_CURVE('NONE',#1015,#514,#1067,.T.);
#1069=ORIENTED_EDGE('',*,*,#1068,.T.);
#1070=EDGE_LOOP('',(#1054,#1061,#1062,#1069));
#1071=FACE_BOUND('',#1070,.T.);
#1072=ADVANCED_FACE('NONE',(#1071),#1053,.T.);
#1073=CARTESIAN_POINT('',(148.45,133.828427125,79.19));
#1074=DIRECTION('',(0.,0.,1.));
#1075=DIRECTION('',(1.,0.,-0.));
#1076=AXIS2_PLACEMENT_3D('',#1073,#1074,#1075);
#1077=CYLINDRICAL_SURFACE('',#1076,2.);
#1078=ORIENTED_EDGE('',*,*,#998,.F.);
#1079=CARTESIAN_POINT('',(148.45,133.828427125,74.44));
#1080=DIRECTION('',(0.,0.,1.));
#1081=DIRECTION('',(1.,0.,-0.));
#1082=AXIS2_PLACEMENT_3D('',#1079,#1080,#1081);
#1083=CIRCLE('',#1082,2.);
#1084=EDGE_CURVE('NONE',#985,#408,#1083,.T.);
#1085=ORIENTED_EDGE('',*,*,#1084,.T.);
#1086=ORIENTED_EDGE('',*,*,#413,.F.);
#1087=CARTESIAN_POINT('',(148.45,133.828427125,78.79));
#1088=DIRECTION('',(-0.,-0.,-1.));
#1089=DIRECTION('',(1.,0.,-0.));
#1090=AXIS2_PLACEMENT_3D('',#1087,#1088,#1089);
#1091=CIRCLE('',#1090,2.);
#1092=EDGE_CURVE('NONE',#406,#993,#1091,.T.);
#1093=ORIENTED_EDGE('',*,*,#1092,.T.);
#1094=EDGE_LOOP('',(#1078,#1085,#1086,#1093));
#1095=FACE_BOUND('',#1094,.T.);
#1096=ADVANCED_FACE('NONE',(#1095),#1077,.T.);
#1097=CARTESIAN_POINT('',(147.55,142.272059531,79.19));
#1098=DIRECTION('',(0.,0.,1.));
#1099=DIRECTION('',(1.,0.,-0.));
#1100=AXIS2_PLACEMENT_3D('',#1097,#1098,#1099);
#1101=CYLINDRICAL_SURFACE('',#1100,2.);
#1102=ORIENTED_EDGE('',*,*,#535,.F.);
#1103=CARTESIAN_POINT('',(147.55,142.272059531,78.79));
#1104=DIRECTION('',(-0.,-0.,-1.));
#1105=DIRECTION('',(1.,0.,-0.));
#1106=AXIS2_PLACEMENT_3D('',#1103,#1104,#1105);
#1107=CIRCLE('',#1106,2.);
#1108=EDGE_CURVE('NONE',#522,#875,#1107,.T.);
#1109=ORIENTED_EDGE('',*,*,#1108,.T.);
#1110=ORIENTED_EDGE('',*,*,#880,.F.);
#1111=CARTESIAN_POINT('',(147.55,142.272059531,72.5));
#1112=DIRECTION('',(-0.,-0.,-1.));
#1113=DIRECTION('',(1.,0.,-0.));
#1114=AXIS2_PLACEMENT_3D('',#1111,#1112,#1113);
#1115=CIRCLE('',#1114,2.);
#1116=EDGE_CURVE('NONE',#530,#873,#1115,.T.);
#1117=ORIENTED_EDGE('',*,*,#1116,.F.);
#1118=EDGE_LOOP('',(#1102,#1109,#1110,#1117));
#1119=FACE_BOUND('',#1118,.T.);
#1120=ADVANCED_FACE('NONE',(#1119),#1101,.T.);
#1121=CARTESIAN_POINT('',(148.45,142.272059531,63.711633455));
#1122=DIRECTION('',(0.,0.,1.));
#1123=DIRECTION('',(1.,0.,-0.));
#1124=AXIS2_PLACEMENT_3D('',#1121,#1122,#1123);
#1125=CYLINDRICAL_SURFACE('',#1124,2.);
#1126=ORIENTED_EDGE('',*,*,#918,.F.);
#1127=CARTESIAN_POINT('',(148.45,142.272059531,78.79));
#1128=DIRECTION('',(-0.,-0.,-1.));
#1129=DIRECTION('',(1.,0.,-0.));
#1130=AXIS2_PLACEMENT_3D('',#1127,#1128,#1129);
#1131=CIRCLE('',#1130,2.);
#1132=EDGE_CURVE('NONE',#905,#474,#1131,.T.);
#1133=ORIENTED_EDGE('',*,*,#1132,.T.);
#1134=ORIENTED_EDGE('',*,*,#479,.F.);
#1135=CARTESIAN_POINT('',(148.45,142.272059531,72.5));
#1136=DIRECTION('',(-0.,-0.,-1.));
#1137=DIRECTION('',(1.,0.,-0.));
#1138=AXIS2_PLACEMENT_3D('',#1135,#1136,#1137);
#1139=CIRCLE('',#1138,2.);
#1140=EDGE_CURVE('NONE',#913,#466,#1139,.T.);
#1141=ORIENTED_EDGE('',*,*,#1140,.F.);
#1142=EDGE_LOOP('',(#1126,#1133,#1134,#1141));
#1143=FACE_BOUND('',#1142,.T.);
#1144=ADVANCED_FACE('NONE',(#1143),#1125,.T.);
#1145=CARTESIAN_POINT('',(148.171572875,133.55,63.711633455));
#1146=DIRECTION('',(0.,0.,1.));
#1147=DIRECTION('',(1.,0.,-0.));
#1148=AXIS2_PLACEMENT_3D('',#1145,#1146,#1147);
#1149=CYLINDRICAL_SURFACE('',#1148,2.);
#1150=ORIENTED_EDGE('',*,*,#958,.F.);
#1151=CARTESIAN_POINT('',(148.171572875,133.55,74.44));
#1152=DIRECTION('',(0.,0.,1.));
#1153=DIRECTION('',(1.,0.,-0.));
#1154=AXIS2_PLACEMENT_3D('',#1151,#1152,#1153);
#1155=CIRCLE('',#1154,2.);
#1156=EDGE_CURVE('NONE',#945,#977,#1155,.T.);
#1157=ORIENTED_EDGE('',*,*,#1156,.T.);
#1158=ORIENTED_EDGE('',*,*,#982,.F.);
#1159=CARTESIAN_POINT('',(148.171572875,133.55,78.79));
#1160=DIRECTION('',(-0.,-0.,-1.));
#1161=DIRECTION('',(1.,0.,-0.));
#1162=AXIS2_PLACEMENT_3D('',#1159,#1160,#1161);
#1163=CIRCLE('',#1162,2.);
#1164=EDGE_CURVE('NONE',#975,#953,#1163,.T.);
#1165=ORIENTED_EDGE('',*,*,#1164,.T.);
#1166=EDGE_LOOP('',(#1150,#1157,#1158,#1165));
#1167=FACE_BOUND('',#1166,.T.);
#1168=ADVANCED_FACE('NONE',(#1167),#1149,.T.);
#1169=CARTESIAN_POINT('',(147.828427125,133.55,63.711633455));
#1170=DIRECTION('',(0.,0.,1.));
#1171=DIRECTION('',(1.,0.,-0.));
#1172=AXIS2_PLACEMENT_3D('',#1169,#1170,#1171);
#1173=CYLINDRICAL_SURFACE('',#1172,2.);
#1174=ORIENTED_EDGE('',*,*,#1038,.F.);
#1175=CARTESIAN_POINT('',(147.828427125,133.55,74.44));
#1176=DIRECTION('',(0.,0.,1.));
#1177=DIRECTION('',(1.,0.,-0.));
#1178=AXIS2_PLACEMENT_3D('',#1175,#1176,#1177);
#1179=CIRCLE('',#1178,2.);
#1180=EDGE_CURVE('NONE',#1025,#937,#1179,.T.);
#1181=ORIENTED_EDGE('',*,*,#1180,.T.);
#1182=ORIENTED_EDGE('',*,*,#942,.F.);
#1183=CARTESIAN_POINT('',(147.828427125,133.55,78.79));
#1184=DIRECTION('',(-0.,-0.,-1.));
#1185=DIRECTION('',(1.,0.,-0.));
#1186=AXIS2_PLACEMENT_3D('',#1183,#1184,#1185);
#1187=CIRCLE('',#1186,2.);
#1188=EDGE_CURVE('NONE',#935,#1033,#1187,.T.);
#1189=ORIENTED_EDGE('',*,*,#1188,.T.);
#1190=EDGE_LOOP('',(#1174,#1181,#1182,#1189));
#1191=FACE_BOUND('',#1190,.T.);
#1192=ADVANCED_FACE('NONE',(#1191),#1173,.T.);
#1193=CARTESIAN_POINT('',(150.45,133.,78.79));
#1194=DIRECTION('',(-0.5,0.5,-0.707106781));
#1195=DIRECTION('',(-0.707106781,-0.707106781,0.));
#1196=AXIS2_PLACEMENT_3D('',#1193,#1194,#1195);
#1197=PLANE('',#1196);
#1198=CARTESIAN_POINT('',(149.585786437,132.135786439,78.79));
#1199=CARTESIAN_POINT('',(149.491505533,132.230067343,78.923333333));
#1200=CARTESIAN_POINT('',(149.397224629,132.324348246,79.056666667));
#1201=CARTESIAN_POINT('',(149.302943725,132.41862915,79.19));
#1202=B_SPLINE_CURVE_WITH_KNOTS('',3,(#1198,#1199,#1200,#1201),.UNSPECIFIED.,.F.,.F.,(4,4),(0.,0.565685425),.UNSPECIFIED.);
#1203=EDGE_CURVE('NONE',#975,#191,#1202,.T.);
#1204=ORIENTED_EDGE('',*,*,#1203,.F.);
#1205=ORIENTED_EDGE('',*,*,#1004,.F.);
#1206=CARTESIAN_POINT('',(149.58137085,132.697056275,79.19));
#1207=CARTESIAN_POINT('',(149.675651754,132.602775371,79.056666667));
#1208=CARTESIAN_POINT('',(149.769932658,132.508494467,78.923333333));
#1209=CARTESIAN_POINT('',(149.864213561,132.414213563,78.79));
#1210=B_SPLINE_CURVE_WITH_KNOTS('',3,(#1206,#1207,#1208,#1209),.UNSPECIFIED.,.F.,.F.,(4,4),(0.,0.565685425),.UNSPECIFIED.);
#1211=EDGE_CURVE('NONE',#200,#993,#1210,.T.);
#1212=ORIENTED_EDGE('',*,*,#1211,.F.);
#1213=ORIENTED_EDGE('',*,*,#205,.F.);
#1214=EDGE_LOOP('',(#1204,#1205,#1212,#1213));
#1215=FACE_BOUND('',#1214,.T.);
#1216=ADVANCED_FACE('NONE',(#1215),#1197,.F.);
#1217=CARTESIAN_POINT('',(148.45,133.828427125,79.19));
#1218=DIRECTION('',(0.,0.,-1.));
#1219=DIRECTION('',(-1.,0.,0.));
#1220=AXIS2_PLACEMENT_3D('',#1217,#1218,#1219);
#1221=CONICAL_SURFACE('',#1220,1.6,44.999999949);
#1222=ORIENTED_EDGE('',*,*,#1211,.T.);
#1223=ORIENTED_EDGE('',*,*,#1092,.F.);
#1224=CARTESIAN_POINT('',(150.05,133.828427125,79.19));
#1225=DIRECTION('',(0.707106781,-0.,-0.707106781));
#1226=VECTOR('',#1225,0.565685425);
#1227=LINE('',#1224,#1226);
#1228=EDGE_CURVE('NONE',#208,#406,#1227,.T.);
#1229=ORIENTED_EDGE('',*,*,#1228,.F.);
#1230=ORIENTED_EDGE('',*,*,#214,.F.);
#1231=EDGE_LOOP('',(#1222,#1223,#1229,#1230));
#1232=FACE_BOUND('',#1231,.T.);
#1233=ADVANCED_FACE('NONE',(#1232),#1221,.T.);
#1234=CARTESIAN_POINT('',(148.171572875,133.55,79.19));
#1235=DIRECTION('',(0.,0.,-1.));
#1236=DIRECTION('',(-1.,0.,0.));
#1237=AXIS2_PLACEMENT_3D('',#1234,#1235,#1236);
#1238=CONICAL_SURFACE('',#1237,1.6,44.999999949);
#1239=ORIENTED_EDGE('',*,*,#1203,.T.);
#1240=ORIENTED_EDGE('',*,*,#197,.F.);
#1241=CARTESIAN_POINT('',(148.171572875,131.55,78.79));
#1242=DIRECTION('',(0.,0.707106781,0.707106781));
#1243=VECTOR('',#1242,0.565685425);
#1244=LINE('',#1241,#1243);
#1245=EDGE_CURVE('NONE',#953,#183,#1244,.T.);
#1246=ORIENTED_EDGE('',*,*,#1245,.F.);
#1247=ORIENTED_EDGE('',*,*,#1164,.F.);
#1248=EDGE_LOOP('',(#1239,#1240,#1246,#1247));
#1249=FACE_BOUND('',#1248,.T.);
#1250=ADVANCED_FACE('NONE',(#1249),#1238,.T.);
#1251=CARTESIAN_POINT('',(150.45,133.,78.79));
#1252=DIRECTION('',(0.707106781,0.,0.707106781));
#1253=DIRECTION('',(0.,1.,0.));
#1254=AXIS2_PLACEMENT_3D('',#1251,#1252,#1253);
#1255=PLANE('',#1254);
#1256=ORIENTED_EDGE('',*,*,#1228,.T.);
#1257=ORIENTED_EDGE('',*,*,#485,.F.);
#1258=CARTESIAN_POINT('',(150.05,142.272059531,79.19));
#1259=CARTESIAN_POINT('',(150.183333333,142.272059531,79.056666667));
#1260=CARTESIAN_POINT('',(150.316666666,142.272059531,78.923333333));
#1261=CARTESIAN_POINT('',(150.449999999,142.272059531,78.79));
#1262=B_SPLINE_CURVE_WITH_KNOTS('',3,(#1258,#1259,#1260,#1261),.UNSPECIFIED.,.F.,.F.,(4,4),(0.,0.565685425),.UNSPECIFIED.);
#1263=EDGE_CURVE('NONE',#217,#474,#1262,.T.);
#1264=ORIENTED_EDGE('',*,*,#1263,.F.);
#1265=ORIENTED_EDGE('',*,*,#222,.F.);
#1266=EDGE_LOOP('',(#1256,#1257,#1264,#1265));
#1267=FACE_BOUND('',#1266,.T.);
#1268=ADVANCED_FACE('NONE',(#1267),#1255,.T.);
#1269=CARTESIAN_POINT('',(149.,131.55,78.79));
#1270=DIRECTION('',(0.,0.707106781,-0.707106781));
#1271=DIRECTION('',(-1.,0.,0.));
#1272=AXIS2_PLACEMENT_3D('',#1269,#1270,#1271);
#1273=PLANE('',#1272);
#1274=ORIENTED_EDGE('',*,*,#1245,.T.);
#1275=ORIENTED_EDGE('',*,*,#188,.F.);
#1276=CARTESIAN_POINT('',(147.828427125,131.55,78.79));
#1277=DIRECTION('',(-0.,0.707106781,0.707106782));
#1278=VECTOR('',#1277,0.565685425);
#1279=LINE('',#1276,#1278);
#1280=EDGE_CURVE('NONE',#935,#174,#1279,.T.);
#1281=ORIENTED_EDGE('',*,*,#1280,.F.);
#1282=ORIENTED_EDGE('',*,*,#964,.F.);
#1283=EDGE_LOOP('',(#1274,#1275,#1281,#1282));
#1284=FACE_BOUND('',#1283,.T.);
#1285=ADVANCED_FACE('NONE',(#1284),#1273,.F.);
#1286=CARTESIAN_POINT('',(148.45,142.272059531,79.19));
#1287=DIRECTION('',(0.,0.,-1.));
#1288=DIRECTION('',(-1.,0.,0.));
#1289=AXIS2_PLACEMENT_3D('',#1286,#1287,#1288);
#1290=CONICAL_SURFACE('',#1289,1.6,44.999999949);
#1291=ORIENTED_EDGE('',*,*,#1263,.T.);
#1292=ORIENTED_EDGE('',*,*,#1132,.F.);
#1293=CARTESIAN_POINT('',(149.675671109,143.300519707,79.19));
#1294=DIRECTION('',(0.54167522,0.454519478,-0.707106781));
#1295=VECTOR('',#1294,0.565685425);
#1296=LINE('',#1293,#1295);
#1297=EDGE_CURVE('NONE',#225,#905,#1296,.T.);
#1298=ORIENTED_EDGE('',*,*,#1297,.F.);
#1299=ORIENTED_EDGE('',*,*,#231,.F.);
#1300=EDGE_LOOP('',(#1291,#1292,#1298,#1299));
#1301=FACE_BOUND('',#1300,.T.);
#1302=ADVANCED_FACE('NONE',(#1301),#1290,.T.);
#1303=CARTESIAN_POINT('',(147.828427125,133.55,79.19));
#1304=DIRECTION('',(0.,0.,-1.));
#1305=DIRECTION('',(-1.,0.,0.));
#1306=AXIS2_PLACEMENT_3D('',#1303,#1304,#1305);
#1307=CONICAL_SURFACE('',#1306,1.6,44.999999949);
#1308=ORIENTED_EDGE('',*,*,#1280,.T.);
#1309=ORIENTED_EDGE('',*,*,#180,.F.);
#1310=CARTESIAN_POINT('',(146.414213562,132.135786438,78.79));
#1311=DIRECTION('',(0.5,0.5,0.707106781));
#1312=VECTOR('',#1311,0.565685425);
#1313=LINE('',#1310,#1312);
#1314=EDGE_CURVE('NONE',#1033,#166,#1313,.T.);
#1315=ORIENTED_EDGE('',*,*,#1314,.F.);
#1316=ORIENTED_EDGE('',*,*,#1188,.F.);
#1317=EDGE_LOOP('',(#1308,#1309,#1315,#1316));
#1318=FACE_BOUND('',#1317,.T.);
#1319=ADVANCED_FACE('NONE',(#1318),#1307,.T.);
#1320=CARTESIAN_POINT('',(150.45,143.,78.79));
#1321=DIRECTION('',(-0.54167522,-0.454519478,-0.707106781));
#1322=DIRECTION('',(0.64278761,-0.766044443,0.));
#1323=AXIS2_PLACEMENT_3D('',#1320,#1321,#1322);
#1324=PLANE('',#1323);
#1325=ORIENTED_EDGE('',*,*,#1297,.T.);
#1326=ORIENTED_EDGE('',*,*,#910,.F.);
#1327=CARTESIAN_POINT('',(149.00482749,144.1,79.19));
#1328=DIRECTION('',(0.313145613,0.671542934,-0.671542934));
#1329=VECTOR('',#1328,0.595643226);
#1330=LINE('',#1327,#1329);
#1331=EDGE_CURVE('NONE',#234,#851,#1330,.T.);
#1332=ORIENTED_EDGE('',*,*,#1331,.F.);
#1333=ORIENTED_EDGE('',*,*,#239,.F.);
#1334=EDGE_LOOP('',(#1325,#1326,#1332,#1333));
#1335=FACE_BOUND('',#1334,.T.);
#1336=ADVANCED_FACE('NONE',(#1335),#1324,.F.);
#1337=CARTESIAN_POINT('',(147.,131.55,78.79));
#1338=DIRECTION('',(0.5,0.5,-0.707106781));
#1339=DIRECTION('',(-0.707106781,0.707106781,0.));
#1340=AXIS2_PLACEMENT_3D('',#1337,#1338,#1339);
#1341=PLANE('',#1340);
#1342=ORIENTED_EDGE('',*,*,#1314,.T.);
#1343=ORIENTED_EDGE('',*,*,#171,.F.);
#1344=CARTESIAN_POINT('',(146.135786439,132.414213563,78.79));
#1345=CARTESIAN_POINT('',(146.230067343,132.508494467,78.923333333));
#1346=CARTESIAN_POINT('',(146.324348246,132.602775371,79.056666667));
#1347=CARTESIAN_POINT('',(146.41862915,132.697056275,79.19));
#1348=B_SPLINE_CURVE_WITH_KNOTS('',3,(#1344,#1345,#1346,#1347),.UNSPECIFIED.,.F.,.F.,(4,4),(0.,0.565685425),.UNSPECIFIED.);
#1349=EDGE_CURVE('NONE',#1015,#157,#1348,.T.);
#1350=ORIENTED_EDGE('',*,*,#1349,.F.);
#1351=ORIENTED_EDGE('',*,*,#1044,.F.);
#1352=EDGE_LOOP('',(#1342,#1343,#1350,#1351));
#1353=FACE_BOUND('',#1352,.T.);
#1354=ADVANCED_FACE('NONE',(#1353),#1341,.F.);
#1355=CARTESIAN_POINT('',(148.,144.1,79.19));
#1356=DIRECTION('',(0.,0.707106781,0.707106781));
#1357=DIRECTION('',(1.,0.,0.));
#1358=AXIS2_PLACEMENT_3D('',#1355,#1356,#1357);
#1359=PLANE('',#1358);
#1360=ORIENTED_EDGE('',*,*,#1331,.T.);
#1361=ORIENTED_EDGE('',*,*,#856,.F.);
#1362=CARTESIAN_POINT('',(146.995172511,144.1,79.189999999));
#1363=DIRECTION('',(-0.313145613,0.671542934,-0.671542934));
#1364=VECTOR('',#1363,0.595643227);
#1365=LINE('',#1362,#1364);
#1366=EDGE_CURVE('NONE',#130,#843,#1365,.T.);
#1367=ORIENTED_EDGE('',*,*,#1366,.F.);
#1368=ORIENTED_EDGE('',*,*,#245,.F.);
#1369=EDGE_LOOP('',(#1360,#1361,#1367,#1368));
#1370=FACE_BOUND('',#1369,.T.);
#1371=ADVANCED_FACE('NONE',(#1370),#1359,.T.);
#1372=CARTESIAN_POINT('',(147.55,133.828427125,79.19));
#1373=DIRECTION('',(0.,0.,-1.));
#1374=DIRECTION('',(-1.,0.,0.));
#1375=AXIS2_PLACEMENT_3D('',#1372,#1373,#1374);
#1376=CONICAL_SURFACE('',#1375,1.6,44.999999949);
#1377=ORIENTED_EDGE('',*,*,#1349,.T.);
#1378=ORIENTED_EDGE('',*,*,#163,.F.);
#1379=CARTESIAN_POINT('',(145.55,133.828427125,78.79));
#1380=DIRECTION('',(0.707106781,0.,0.707106781));
#1381=VECTOR('',#1380,0.565685425);
#1382=LINE('',#1379,#1381);
#1383=EDGE_CURVE('NONE',#514,#149,#1382,.T.);
#1384=ORIENTED_EDGE('',*,*,#1383,.F.);
#1385=ORIENTED_EDGE('',*,*,#1068,.F.);
#1386=EDGE_LOOP('',(#1377,#1378,#1384,#1385));
#1387=FACE_BOUND('',#1386,.T.);
#1388=ADVANCED_FACE('NONE',(#1387),#1376,.T.);
#1389=CARTESIAN_POINT('',(145.55,143.,78.79));
#1390=DIRECTION('',(0.54167522,-0.454519478,-0.707106781));
#1391=DIRECTION('',(0.64278761,0.766044443,-0.));
#1392=AXIS2_PLACEMENT_3D('',#1389,#1390,#1391);
#1393=PLANE('',#1392);
#1394=ORIENTED_EDGE('',*,*,#1366,.T.);
#1395=ORIENTED_EDGE('',*,*,#886,.F.);
#1396=CARTESIAN_POINT('',(146.324328891,143.300519707,79.19));
#1397=CARTESIAN_POINT('',(146.222189632,143.386224721,79.056666667));
#1398=CARTESIAN_POINT('',(146.120050374,143.471929736,78.923333333));
#1399=CARTESIAN_POINT('',(146.017911115,143.557634751,78.79));
#1400=B_SPLINE_CURVE_WITH_KNOTS('',3,(#1396,#1397,#1398,#1399),.UNSPECIFIED.,.F.,.F.,(4,4),(0.,0.565685425),.UNSPECIFIED.);
#1401=EDGE_CURVE('NONE',#132,#875,#1400,.T.);
#1402=ORIENTED_EDGE('',*,*,#1401,.F.);
#1403=ORIENTED_EDGE('',*,*,#137,.F.);
#1404=EDGE_LOOP('',(#1394,#1395,#1402,#1403));
#1405=FACE_BOUND('',#1404,.T.);
#1406=ADVANCED_FACE('NONE',(#1405),#1393,.F.);
#1407=CARTESIAN_POINT('',(145.55,133.,78.79));
#1408=DIRECTION('',(-0.707106781,0.,0.707106781));
#1409=DIRECTION('',(0.,-1.,0.));
#1410=AXIS2_PLACEMENT_3D('',#1407,#1408,#1409);
#1411=PLANE('',#1410);
#1412=ORIENTED_EDGE('',*,*,#1383,.T.);
#1413=ORIENTED_EDGE('',*,*,#154,.F.);
#1414=CARTESIAN_POINT('',(145.55,142.272059531,78.79));
#1415=DIRECTION('',(0.707106781,-0.,0.707106782));
#1416=VECTOR('',#1415,0.565685425);
#1417=LINE('',#1414,#1416);
#1418=EDGE_CURVE('NONE',#522,#140,#1417,.T.);
#1419=ORIENTED_EDGE('',*,*,#1418,.F.);
#1420=ORIENTED_EDGE('',*,*,#527,.F.);
#1421=EDGE_LOOP('',(#1412,#1413,#1419,#1420));
#1422=FACE_BOUND('',#1421,.T.);
#1423=ADVANCED_FACE('NONE',(#1422),#1411,.T.);
#1424=CARTESIAN_POINT('',(147.55,142.272059531,79.19));
#1425=DIRECTION('',(0.,0.,-1.));
#1426=DIRECTION('',(-1.,0.,0.));
#1427=AXIS2_PLACEMENT_3D('',#1424,#1425,#1426);
#1428=CONICAL_SURFACE('',#1427,1.6,44.999999949);
#1429=ORIENTED_EDGE('',*,*,#1401,.T.);
#1430=ORIENTED_EDGE('',*,*,#1108,.F.);
#1431=ORIENTED_EDGE('',*,*,#1418,.T.);
#1432=ORIENTED_EDGE('',*,*,#146,.F.);
#1433=EDGE_LOOP('',(#1429,#1430,#1431,#1432));
#1434=FACE_BOUND('',#1433,.T.);
#1435=ADVANCED_FACE('NONE',(#1434),#1428,.T.);
#1436=CARTESIAN_POINT('',(145.95,130.55,74.24));
#1437=DIRECTION('',(-0.707106781,0.,-0.707106781));
#1438=DIRECTION('',(0.,-1.,0.));
#1439=AXIS2_PLACEMENT_3D('',#1436,#1437,#1438);
#1440=PLANE('',#1439);
#1441=ORIENTED_EDGE('',*,*,#677,.F.);
#1442=ORIENTED_EDGE('',*,*,#575,.F.);
#1443=ORIENTED_EDGE('',*,*,#785,.F.);
#1444=ORIENTED_EDGE('',*,*,#363,.F.);
#1445=EDGE_LOOP('',(#1441,#1442,#1443,#1444));
#1446=FACE_BOUND('',#1445,.T.);
#1447=ADVANCED_FACE('NONE',(#1446),#1440,.T.);
#1448=CARTESIAN_POINT('',(150.05,130.55,74.24));
#1449=DIRECTION('',(0.707106781,0.,-0.707106781));
#1450=DIRECTION('',(0.,1.,0.));
#1451=AXIS2_PLACEMENT_3D('',#1448,#1449,#1450);
#1452=PLANE('',#1451);
#1453=ORIENTED_EDGE('',*,*,#821,.F.);
#1454=ORIENTED_EDGE('',*,*,#437,.F.);
#1455=ORIENTED_EDGE('',*,*,#684,.F.);
#1456=ORIENTED_EDGE('',*,*,#395,.F.);
#1457=EDGE_LOOP('',(#1453,#1454,#1455,#1456));
#1458=FACE_BOUND('',#1457,.T.);
#1459=ADVANCED_FACE('NONE',(#1458),#1452,.T.);
#1460=CARTESIAN_POINT('',(139.,144.5,72.5));
#1461=DIRECTION('',(0.,0.,1.));
#1462=DIRECTION('',(0.,1.,0.));
#1463=AXIS2_PLACEMENT_3D('',#1460,#1461,#1462);
#1464=PLANE('',#1463);
#1465=ORIENTED_EDGE('',*,*,#840,.T.);
#1466=ORIENTED_EDGE('',*,*,#924,.T.);
#1467=ORIENTED_EDGE('',*,*,#1140,.T.);
#1468=ORIENTED_EDGE('',*,*,#471,.T.);
#1469=ORIENTED_EDGE('',*,*,#761,.T.);
#1470=ORIENTED_EDGE('',*,*,#615,.T.);
#1471=ORIENTED_EDGE('',*,*,#737,.T.);
#1472=ORIENTED_EDGE('',*,*,#543,.T.);
#1473=ORIENTED_EDGE('',*,*,#1116,.T.);
#1474=ORIENTED_EDGE('',*,*,#893,.T.);
#1475=EDGE_LOOP('',(#1465,#1466,#1467,#1468,#1469,#1470,#1471,#1472,#1473,#1474));
#1476=FACE_BOUND('',#1475,.T.);
#1477=ADVANCED_FACE('NONE',(#1476),#1464,.F.);
#1478=CARTESIAN_POINT('',(150.25,130.55,74.24));
#1479=DIRECTION('',(0.707106781,0.,-0.707106781));
#1480=DIRECTION('',(0.,1.,0.));
#1481=AXIS2_PLACEMENT_3D('',#1478,#1479,#1480);
#1482=PLANE('',#1481);
#1483=ORIENTED_EDGE('',*,*,#691,.F.);
#1484=ORIENTED_EDGE('',*,*,#421,.F.);
#1485=CARTESIAN_POINT('',(150.25,133.828427125,74.24));
#1486=CARTESIAN_POINT('',(150.316666667,133.828427125,74.306666667));
#1487=CARTESIAN_POINT('',(150.383333333,133.828427125,74.373333333));
#1488=CARTESIAN_POINT('',(150.45,133.828427125,74.44));
#1489=B_SPLINE_CURVE_WITH_KNOTS('',3,(#1485,#1486,#1487,#1488),.UNSPECIFIED.,.F.,.F.,(4,4),(0.,0.282842712),.UNSPECIFIED.);
#1490=EDGE_CURVE('NONE',#283,#408,#1489,.T.);
#1491=ORIENTED_EDGE('',*,*,#1490,.F.);
#1492=ORIENTED_EDGE('',*,*,#288,.F.);
#1493=ORIENTED_EDGE('',*,*,#646,.F.);
#1494=ORIENTED_EDGE('',*,*,#713,.F.);
#1495=EDGE_LOOP('',(#1483,#1484,#1491,#1492,#1493,#1494));
#1496=FACE_BOUND('',#1495,.T.);
#1497=ADVANCED_FACE('NONE',(#1496),#1482,.T.);
#1498=CARTESIAN_POINT('',(148.45,133.828427125,74.24));
#1499=DIRECTION('',(0.,0.,1.));
#1500=DIRECTION('',(1.,0.,-0.));
#1501=AXIS2_PLACEMENT_3D('',#1498,#1499,#1500);
#1502=CONICAL_SURFACE('',#1501,1.8,44.999999949);
#1503=ORIENTED_EDGE('',*,*,#1490,.T.);
#1504=ORIENTED_EDGE('',*,*,#1084,.F.);
#1505=CARTESIAN_POINT('',(149.722792206,132.555634919,74.24));
#1506=DIRECTION('',(0.5,-0.5,0.707106781));
#1507=VECTOR('',#1506,0.282842713);
#1508=LINE('',#1505,#1507);
#1509=EDGE_CURVE('NONE',#291,#985,#1508,.T.);
#1510=ORIENTED_EDGE('',*,*,#1509,.F.);
#1511=ORIENTED_EDGE('',*,*,#297,.F.);
#1512=EDGE_LOOP('',(#1503,#1504,#1510,#1511));
#1513=FACE_BOUND('',#1512,.T.);
#1514=ADVANCED_FACE('NONE',(#1513),#1502,.T.);
#1515=CARTESIAN_POINT('',(152.758578644,135.591421356,74.24));
#1516=DIRECTION('',(-0.5,0.5,0.707106781));
#1517=DIRECTION('',(-0.707106781,-0.707106781,0.));
#1518=AXIS2_PLACEMENT_3D('',#1515,#1516,#1517);
#1519=PLANE('',#1518);
#1520=ORIENTED_EDGE('',*,*,#1509,.T.);
#1521=ORIENTED_EDGE('',*,*,#990,.F.);
#1522=CARTESIAN_POINT('',(149.444365081,132.277207794,74.24));
#1523=CARTESIAN_POINT('',(149.491505533,132.230067342,74.306666667));
#1524=CARTESIAN_POINT('',(149.538645985,132.18292689,74.373333333));
#1525=CARTESIAN_POINT('',(149.585786437,132.135786438,74.44));
#1526=B_SPLINE_CURVE_WITH_KNOTS('',3,(#1522,#1523,#1524,#1525),.UNSPECIFIED.,.F.,.F.,(4,4),(0.,0.282842713),.UNSPECIFIED.);
#1527=EDGE_CURVE('NONE',#300,#977,#1526,.T.);
#1528=ORIENTED_EDGE('',*,*,#1527,.F.);
#1529=ORIENTED_EDGE('',*,*,#305,.F.);
#1530=EDGE_LOOP('',(#1520,#1521,#1528,#1529));
#1531=FACE_BOUND('',#1530,.T.);
#1532=ADVANCED_FACE('NONE',(#1531),#1519,.F.);
#1533=CARTESIAN_POINT('',(148.171572875,133.55,74.24));
#1534=DIRECTION('',(0.,0.,1.));
#1535=DIRECTION('',(1.,0.,-0.));
#1536=AXIS2_PLACEMENT_3D('',#1533,#1534,#1535);
#1537=CONICAL_SURFACE('',#1536,1.8,44.999999949);
#1538=ORIENTED_EDGE('',*,*,#1527,.T.);
#1539=ORIENTED_EDGE('',*,*,#1156,.F.);
#1540=CARTESIAN_POINT('',(148.171572875,131.75,74.24));
#1541=DIRECTION('',(0.,-0.707106781,0.707106781));
#1542=VECTOR('',#1541,0.282842712);
#1543=LINE('',#1540,#1542);
#1544=EDGE_CURVE('NONE',#308,#945,#1543,.T.);
#1545=ORIENTED_EDGE('',*,*,#1544,.F.);
#1546=ORIENTED_EDGE('',*,*,#314,.F.);
#1547=EDGE_LOOP('',(#1538,#1539,#1545,#1546));
#1548=FACE_BOUND('',#1547,.T.);
#1549=ADVANCED_FACE('NONE',(#1548),#1537,.T.);
#1550=CARTESIAN_POINT('',(157.8,131.75,74.24));
#1551=DIRECTION('',(0.,0.707106781,0.707106781));
#1552=DIRECTION('',(-1.,0.,0.));
#1553=AXIS2_PLACEMENT_3D('',#1550,#1551,#1552);
#1554=PLANE('',#1553);
#1555=ORIENTED_EDGE('',*,*,#1544,.T.);
#1556=ORIENTED_EDGE('',*,*,#950,.F.);
#1557=CARTESIAN_POINT('',(147.828427125,131.75,74.24));
#1558=CARTESIAN_POINT('',(147.828427125,131.683333333,74.306666667));
#1559=CARTESIAN_POINT('',(147.828427125,131.616666667,74.373333333));
#1560=CARTESIAN_POINT('',(147.828427125,131.55,74.44));
#1561=B_SPLINE_CURVE_WITH_KNOTS('',3,(#1557,#1558,#1559,#1560),.UNSPECIFIED.,.F.,.F.,(4,4),(0.,0.282842712),.UNSPECIFIED.);
#1562=EDGE_CURVE('NONE',#317,#937,#1561,.T.);
#1563=ORIENTED_EDGE('',*,*,#1562,.F.);
#1564=ORIENTED_EDGE('',*,*,#322,.F.);
#1565=EDGE_LOOP('',(#1555,#1556,#1563,#1564));
#1566=FACE_BOUND('',#1565,.T.);
#1567=ADVANCED_FACE('NONE',(#1566),#1554,.F.);
#1568=CARTESIAN_POINT('',(147.828427125,133.55,74.24));
#1569=DIRECTION('',(0.,0.,1.));
#1570=DIRECTION('',(1.,0.,-0.));
#1571=AXIS2_PLACEMENT_3D('',#1568,#1569,#1570);
#1572=CONICAL_SURFACE('',#1571,1.8,44.999999949);
#1573=ORIENTED_EDGE('',*,*,#1562,.T.);
#1574=ORIENTED_EDGE('',*,*,#1180,.F.);
#1575=CARTESIAN_POINT('',(146.555634919,132.277207794,74.24));
#1576=DIRECTION('',(-0.5,-0.5,0.707106781));
#1577=VECTOR('',#1576,0.282842713);
#1578=LINE('',#1575,#1577);
#1579=EDGE_CURVE('NONE',#325,#1025,#1578,.T.);
#1580=ORIENTED_EDGE('',*,*,#1579,.F.);
#1581=ORIENTED_EDGE('',*,*,#331,.F.);
#1582=EDGE_LOOP('',(#1573,#1574,#1580,#1581));
#1583=FACE_BOUND('',#1582,.T.);
#1584=ADVANCED_FACE('NONE',(#1583),#1572,.T.);
#1585=CARTESIAN_POINT('',(153.041421356,125.791421356,74.24));
#1586=DIRECTION('',(0.5,0.5,0.707106781));
#1587=DIRECTION('',(-0.707106781,0.707106781,0.));
#1588=AXIS2_PLACEMENT_3D('',#1585,#1586,#1587);
#1589=PLANE('',#1588);
#1590=ORIENTED_EDGE('',*,*,#1579,.T.);
#1591=ORIENTED_EDGE('',*,*,#1030,.F.);
#1592=CARTESIAN_POINT('',(146.277207794,132.555634919,74.24));
#1593=CARTESIAN_POINT('',(146.230067342,132.508494467,74.306666667));
#1594=CARTESIAN_POINT('',(146.18292689,132.461354015,74.373333333));
#1595=CARTESIAN_POINT('',(146.135786438,132.414213563,74.44));
#1596=B_SPLINE_CURVE_WITH_KNOTS('',3,(#1592,#1593,#1594,#1595),.UNSPECIFIED.,.F.,.F.,(4,4),(0.,0.282842713),.UNSPECIFIED.);
#1597=EDGE_CURVE('NONE',#256,#1017,#1596,.T.);
#1598=ORIENTED_EDGE('',*,*,#1597,.F.);
#1599=ORIENTED_EDGE('',*,*,#337,.F.);
#1600=EDGE_LOOP('',(#1590,#1591,#1598,#1599));
#1601=FACE_BOUND('',#1600,.T.);
#1602=ADVANCED_FACE('NONE',(#1601),#1589,.F.);
#1603=CARTESIAN_POINT('',(145.75,130.55,74.24));
#1604=DIRECTION('',(-0.707106781,0.,-0.707106781));
#1605=DIRECTION('',(0.,-1.,0.));
#1606=AXIS2_PLACEMENT_3D('',#1603,#1604,#1605);
#1607=PLANE('',#1606);
#1608=ORIENTED_EDGE('',*,*,#632,.F.);
#1609=ORIENTED_EDGE('',*,*,#272,.F.);
#1610=CARTESIAN_POINT('',(145.55,133.828427125,74.44));
#1611=DIRECTION('',(0.707106781,-0.,-0.707106782));
#1612=VECTOR('',#1611,0.282842713);
#1613=LINE('',#1610,#1612);
#1614=EDGE_CURVE('NONE',#506,#258,#1613,.T.);
#1615=ORIENTED_EDGE('',*,*,#1614,.F.);
#1616=ORIENTED_EDGE('',*,*,#511,.F.);
#1617=ORIENTED_EDGE('',*,*,#670,.F.);
#1618=ORIENTED_EDGE('',*,*,#706,.F.);
#1619=EDGE_LOOP('',(#1608,#1609,#1615,#1616,#1617,#1618));
#1620=FACE_BOUND('',#1619,.T.);
#1621=ADVANCED_FACE('NONE',(#1620),#1607,.T.);
#1622=CARTESIAN_POINT('',(147.55,133.828427125,74.24));
#1623=DIRECTION('',(0.,0.,1.));
#1624=DIRECTION('',(1.,0.,-0.));
#1625=AXIS2_PLACEMENT_3D('',#1622,#1623,#1624);
#1626=CONICAL_SURFACE('',#1625,1.8,44.999999949);
#1627=ORIENTED_EDGE('',*,*,#1597,.T.);
#1628=ORIENTED_EDGE('',*,*,#1060,.F.);
#1629=ORIENTED_EDGE('',*,*,#1614,.T.);
#1630=ORIENTED_EDGE('',*,*,#264,.F.);
#1631=EDGE_LOOP('',(#1627,#1628,#1629,#1630));
#1632=FACE_BOUND('',#1631,.T.);
#1633=ADVANCED_FACE('NONE',(#1632),#1626,.T.);
#1634=CLOSED_SHELL('',(#249,#341,#399,#489,#579,#619,#650,#695,#717,#741,#765,#789,#807,#826,#866,#897,#928,#968,#1008,#1048,#1072,#1096,#1120,#1144,#1168,#1192,
#1216,#1233,#1250,#1268,#1285,#1302,#1319,#1336,#1354,#1371,#1388,#1406,#1423,#1435,#1447,#1459,#1477,#1497,#1514,#1532,#1549,#1567,#1584,#1602,#1621,
#1633));
#1635=MANIFOLD_SOLID_BREP('\S\R\S\F\S\6\S\/\S\C\S\f2',#1634);
#1636=COLOUR_RGB('',0.792156875,0.819607854,0.933333337);
#1637=FILL_AREA_STYLE_COLOUR('',#1636);
#1638=FILL_AREA_STYLE('',(#1637));
#1639=SURFACE_STYLE_FILL_AREA(#1638);
#1640=SURFACE_SIDE_STYLE('',(#1639));
#1641=SURFACE_STYLE_USAGE(.BOTH.,#1640);
#1642=PRESENTATION_STYLE_ASSIGNMENT((#1641));
#123=STYLED_ITEM('',(#1642),#1635);
#104=SHAPE_REPRESENTATION('All-Purpose+Wall+Mount+Hook+Module.STEP',(#15),#102);
#105=ADVANCED_BREP_SHAPE_REPRESENTATION('All-Purpose+Wall+Mount+Hook+Module.STEP',(#1635),#102);
#1650=SHAPE_REPRESENTATION_RELATIONSHIP('','',#104,#105);
#1651=CARTESIAN_POINT('',(0.,0.,0.));
#1652=DIRECTION('',(0.,0.,1.));
#1653=DIRECTION('',(1.,0.,0.));
#1654=AXIS2_PLACEMENT_3D('',#1651,#1652,#1653);
#1656=MAPPED_ITEM('',#1655,#1654);
#1655=REPRESENTATION_MAP(#1654,#104);
#112=PRODUCT('All-Purpose+Wall+Mount+Hook+Module.STEP','All-Purpose+Wall+Mount+Hook+Module.STEP','',(#90));
#1657=PRODUCT_RELATED_PRODUCT_CATEGORY('part','',(#112));
#1658=PRODUCT_DEFINITION_FORMATION_WITH_SPECIFIED_SOURCE('','',#112,.NOT_KNOWN.);
#113=PRODUCT_DEFINITION('design','',#1658,#91);
#111=PRODUCT_DEFINITION_SHAPE('','',#113);
#1659=SHAPE_DEFINITION_REPRESENTATION(#111,#104);
#103=DRAUGHTING_MODEL('',(#1656),#102);
#35=SHAPE_REPRESENTATION('1 \X2\4E2AFF0853556B2179FB52A8\X0\20mm\X2\FF09\X0\.step',(#15,#76,#117),#33);
#1660=CARTESIAN_POINT('',(0.,0.,0.));
#1661=DIRECTION('',(0.,0.,1.));
#1662=DIRECTION('',(1.,0.,0.));
#1663=AXIS2_PLACEMENT_3D('',#1660,#1661,#1662);
#1665=MAPPED_ITEM('',#1664,#1663);
#1664=REPRESENTATION_MAP(#1663,#35);
#43=PRODUCT('1 \X2\4E2AFF0853556B2179FB52A8\X0\20mm\X2\FF09\X0\.step','1 \X2\4E2AFF0853556B2179FB52A8\X0\20mm\X2\FF09\X0\.step','',(#90));
#1666=PRODUCT_RELATED_PRODUCT_CATEGORY('part','',(#43));
#1667=PRODUCT_DEFINITION_FORMATION_WITH_SPECIFIED_SOURCE('','',#43,.NOT_KNOWN.);
#44=PRODUCT_DEFINITION('design','',#1667,#91);
#42=PRODUCT_DEFINITION_SHAPE('','',#44);
#1668=SHAPE_DEFINITION_REPRESENTATION(#42,#35);
#34=DRAUGHTING_MODEL('',(#1665),#33);
#16=SHAPE_REPRESENTATION('root',(#15,#48),#10);
#1669=CARTESIAN_POINT('',(0.,0.,0.));
#1670=DIRECTION('',(0.,0.,1.));
#1671=DIRECTION('',(1.,0.,0.));
#1672=AXIS2_PLACEMENT_3D('',#1669,#1670,#1671);
#1674=MAPPED_ITEM('',#1673,#1672);
#1673=REPRESENTATION_MAP(#1672,#16);
#24=PRODUCT('root','root','',(#90));
#1675=PRODUCT_RELATED_PRODUCT_CATEGORY('part','',(#24));
#1676=PRODUCT_DEFINITION_FORMATION_WITH_SPECIFIED_SOURCE('','',#24,.NOT_KNOWN.);
#25=PRODUCT_DEFINITION('design','',#1676,#91);
#23=PRODUCT_DEFINITION_SHAPE('','',#25);
#1677=SHAPE_DEFINITION_REPRESENTATION(#23,#16);
#11=DRAUGHTING_MODEL('',(#1674),#10);
#1678=DESCRIPTIVE_REPRESENTATION_ITEM('KEY','/Users/ken/Library/Containers/com.shapr3d.shapr/Data/tmp/AD32135C-04B3-4B73-A30F-61BE28DB6CF2.tmp');
#1679=PROPERTY_DEFINITION('KEY','',#25);
#1680=REPRESENTATION('',(#1678),#10);
#1681=PROPERTY_DEFINITION_REPRESENTATION(#1679,#1680);
#1682=GENERAL_PROPERTY('','KEY','');
#1683=GENERAL_PROPERTY_ASSOCIATION('','',#1682,#1679);
#1=MECHANICAL_DESIGN_GEOMETRIC_PRESENTATION_REPRESENTATION('',(#123),#10);
ENDSEC;
END-ISO-10303-21;
